<ttFont>
<head>
    <!-- Most of this table will be recalculated by the compiler -->
    <tableVersion value="1.0"/>
    <fontRevision value="2.538"/>
    <checkSumAdjustment value="0x2a0e7dca"/>
    <magicNumber value="0x5f0f3cf5"/>
    <flags value="00000000 00001111"/>
    <unitsPerEm value="1000"/>
    <created value="Thu May 18 16:19:49 2017"/>
    <modified value="Thu May 18 11:32:08 2017"/>
    <xMin value="-569"/>
    <yMin value="-510"/>
    <xMax value="1291"/>
    <yMax value="938"/>
    <macStyle value="00000000 00000000"/>
    <lowestRecPPEM value="9"/>
    <fontDirectionHint value="2"/>
    <indexToLocFormat value="1"/>
    <glyphDataFormat value="0"/>
  </head>
    <TTGlyph name=".notdef" xMin="0" yMin="0" xMax="480" yMax="700">
      <contour>
        <pt x="0" y="700" on="1"/>
        <pt x="480" y="700" on="1"/>
        <pt x="480" y="0" on="1"/>
        <pt x="0" y="0" on="1"/>
      </contour>
      <contour>
        <pt x="420" y="660" on="1"/>
        <pt x="60" y="660" on="1"/>
        <pt x="240" y="385" on="1"/>
      </contour>
      <contour>
        <pt x="440" y="85" on="1"/>
        <pt x="440" y="615" on="1"/>
        <pt x="265" y="350" on="1"/>
      </contour>
      <contour>
        <pt x="420" y="40" on="1"/>
        <pt x="240" y="315" on="1"/>
        <pt x="60" y="40" on="1"/>
      </contour>
      <contour>
        <pt x="40" y="85" on="1"/>
        <pt x="215" y="350" on="1"/>
        <pt x="40" y="615" on="1"/>
      </contour>
    </TTGlyph>
    <TTGlyph name="A" xMin="26" yMin="0" xMax="557" yMax="630">
      <contour>
        <pt x="267" y="630" on="1"/>
        <pt x="319" y="630" on="1"/>
        <pt x="557" y="0" on="1"/>
        <pt x="501" y="0" on="1"/>
        <pt x="432" y="186" on="1"/>
        <pt x="150" y="186" on="1"/>
        <pt x="81" y="0" on="1"/>
        <pt x="26" y="0" on="1"/>
      </contour>
      <contour>
        <pt x="166" y="228" on="1"/>
        <pt x="415" y="228" on="1"/>
        <pt x="336" y="444" on="1"/>
        <pt x="334" y="450" on="0"/>
        <pt x="324" y="480" on="0"/>
        <pt x="312" y="518" on="0"/>
        <pt x="299" y="560" on="0"/>
        <pt x="294" y="578" on="1"/>
        <pt x="292" y="578" on="1"/>
        <pt x="287" y="560" on="0"/>
        <pt x="274" y="520" on="0"/>
        <pt x="261" y="483" on="0"/>
        <pt x="250" y="453" on="0"/>
        <pt x="247" y="444" on="1"/>
      </contour>
    </TTGlyph>
    <TTGlyph name="AE" xMin="16" yMin="0" xMax="723" yMax="630">
      <contour>
        <pt x="16" y="0" on="1"/>
        <pt x="340" y="630" on="1"/>
        <pt x="720" y="630" on="1"/>
        <pt x="720" y="588" on="1"/>
        <pt x="422" y="588" on="1"/>
        <pt x="422" y="345" on="1"/>
        <pt x="694" y="345" on="1"/>
        <pt x="694" y="303" on="1"/>
        <pt x="422" y="303" on="1"/>
        <pt x="422" y="42" on="1"/>
        <pt x="723" y="42" on="1"/>
        <pt x="723" y="0" on="1"/>
        <pt x="370" y="0" on="1"/>
        <pt x="370" y="193" on="1"/>
        <pt x="168" y="193" on="1"/>
        <pt x="71" y="0" on="1"/>
      </contour>
      <contour>
        <pt x="370" y="593" on="1"/>
        <pt x="189" y="235" on="1"/>
        <pt x="370" y="235" on="1"/>
      </contour>
    </TTGlyph>
    <TTGlyph name="AEacute" xMin="16" yMin="0" xMax="723" yMax="834">
      <contour>
        <pt x="16" y="0" on="1"/>
        <pt x="340" y="630" on="1"/>
        <pt x="720" y="630" on="1"/>
        <pt x="720" y="588" on="1"/>
        <pt x="422" y="588" on="1"/>
        <pt x="422" y="345" on="1"/>
        <pt x="694" y="345" on="1"/>
        <pt x="694" y="303" on="1"/>
        <pt x="422" y="303" on="1"/>
        <pt x="422" y="42" on="1"/>
        <pt x="723" y="42" on="1"/>
        <pt x="723" y="0" on="1"/>
        <pt x="370" y="0" on="1"/>
        <pt x="370" y="193" on="1"/>
        <pt x="168" y="193" on="1"/>
        <pt x="71" y="0" on="1"/>
      </contour>
      <contour>
        <pt x="370" y="593" on="1"/>
        <pt x="189" y="235" on="1"/>
        <pt x="370" y="235" on="1"/>
      </contour>
      <contour>
        <pt x="391" y="710" on="1"/>
        <pt x="349" y="710" on="1"/>
        <pt x="439" y="834" on="1"/>
        <pt x="502" y="834" on="1"/>
      </contour>
    </TTGlyph>
    <TTGlyph name="Aacute" xMin="26" yMin="0" xMax="557" yMax="834">
      <contour>
        <pt x="311" y="710" on="1"/>
        <pt x="269" y="710" on="1"/>
        <pt x="359" y="834" on="1"/>
        <pt x="422" y="834" on="1"/>
      </contour>
      <contour>
        <pt x="267" y="630" on="1"/>
        <pt x="319" y="630" on="1"/>
        <pt x="557" y="0" on="1"/>
        <pt x="501" y="0" on="1"/>
        <pt x="432" y="186" on="1"/>
        <pt x="150" y="186" on="1"/>
        <pt x="81" y="0" on="1"/>
        <pt x="26" y="0" on="1"/>
      </contour>
      <contour>
        <pt x="166" y="228" on="1"/>
        <pt x="415" y="228" on="1"/>
        <pt x="336" y="444" on="1"/>
        <pt x="334" y="450" on="0"/>
        <pt x="324" y="480" on="0"/>
        <pt x="312" y="518" on="0"/>
        <pt x="299" y="560" on="0"/>
        <pt x="294" y="578" on="1"/>
        <pt x="292" y="578" on="1"/>
        <pt x="287" y="560" on="0"/>
        <pt x="274" y="520" on="0"/>
        <pt x="261" y="483" on="0"/>
        <pt x="250" y="453" on="0"/>
        <pt x="247" y="444" on="1"/>
      </contour>
    </TTGlyph>
    <TTGlyph name="Abreve" xMin="26" yMin="0" xMax="557" yMax="834">
      <contour>
        <pt x="206" y="834" on="1"/>
        <pt x="207" y="796" on="0"/>
        <pt x="247" y="750" on="0"/>
        <pt x="294" y="750" on="1"/>
        <pt x="333" y="750" on="0"/>
        <pt x="378" y="794" on="0"/>
        <pt x="379" y="834" on="1"/>
        <pt x="427" y="834" on="1"/>
        <pt x="427" y="780" on="0"/>
        <pt x="359" y="710" on="0"/>
        <pt x="294" y="710" on="1"/>
        <pt x="258" y="710" on="0"/>
        <pt x="207" y="730" on="0"/>
        <pt x="174" y="765" on="0"/>
        <pt x="158" y="810" on="0"/>
        <pt x="158" y="834" on="1"/>
      </contour>
      <contour>
        <pt x="267" y="630" on="1"/>
        <pt x="319" y="630" on="1"/>
        <pt x="557" y="0" on="1"/>
        <pt x="501" y="0" on="1"/>
        <pt x="432" y="186" on="1"/>
        <pt x="150" y="186" on="1"/>
        <pt x="81" y="0" on="1"/>
        <pt x="26" y="0" on="1"/>
      </contour>
      <contour>
        <pt x="166" y="228" on="1"/>
        <pt x="415" y="228" on="1"/>
        <pt x="336" y="444" on="1"/>
        <pt x="334" y="450" on="0"/>
        <pt x="324" y="480" on="0"/>
        <pt x="312" y="518" on="0"/>
        <pt x="299" y="560" on="0"/>
        <pt x="294" y="578" on="1"/>
        <pt x="292" y="578" on="1"/>
        <pt x="287" y="560" on="0"/>
        <pt x="274" y="520" on="0"/>
        <pt x="261" y="483" on="0"/>
        <pt x="250" y="453" on="0"/>
        <pt x="247" y="444" on="1"/>
      </contour>
    </TTGlyph>
    <TTGlyph name="Acircumflex" xMin="26" yMin="0" xMax="557" yMax="844">
      <contour>
        <pt x="270" y="844" on="1"/>
        <pt x="319" y="844" on="1"/>
        <pt x="444" y="710" on="1"/>
        <pt x="384" y="710" on="1"/>
        <pt x="294" y="809" on="1"/>
        <pt x="204" y="710" on="1"/>
        <pt x="148" y="710" on="1"/>
      </contour>
      <contour>
        <pt x="267" y="630" on="1"/>
        <pt x="319" y="630" on="1"/>
        <pt x="557" y="0" on="1"/>
        <pt x="501" y="0" on="1"/>
        <pt x="432" y="186" on="1"/>
        <pt x="150" y="186" on="1"/>
        <pt x="81" y="0" on="1"/>
        <pt x="26" y="0" on="1"/>
      </contour>
      <contour>
        <pt x="166" y="228" on="1"/>
        <pt x="415" y="228" on="1"/>
        <pt x="336" y="444" on="1"/>
        <pt x="334" y="450" on="0"/>
        <pt x="324" y="480" on="0"/>
        <pt x="312" y="518" on="0"/>
        <pt x="299" y="560" on="0"/>
        <pt x="294" y="578" on="1"/>
        <pt x="292" y="578" on="1"/>
        <pt x="287" y="560" on="0"/>
        <pt x="274" y="520" on="0"/>
        <pt x="261" y="483" on="0"/>
        <pt x="250" y="453" on="0"/>
        <pt x="247" y="444" on="1"/>
      </contour>
    </TTGlyph>
    <TTGlyph name="Addak.gm" xMin="-263" yMin="648" xMax="16" yMax="791">
      <contour>
        <pt x="-122" y="648" on="1"/>
        <pt x="-151" y="648" on="0"/>
        <pt x="-203" y="667" on="0"/>
        <pt x="-241" y="702" on="0"/>
        <pt x="-263" y="754" on="0"/>
        <pt x="-263" y="787" on="1"/>
        <pt x="-263" y="791" on="1"/>
        <pt x="-226" y="791" on="1"/>
        <pt x="-222" y="737" on="0"/>
        <pt x="-160" y="688" on="0"/>
        <pt x="-122" y="688" on="1"/>
        <pt x="-81" y="688" on="0"/>
        <pt x="-23" y="737" on="0"/>
        <pt x="-21" y="791" on="1"/>
        <pt x="16" y="791" on="1"/>
        <pt x="16" y="787" on="1"/>
        <pt x="16" y="719" on="0"/>
        <pt x="-63" y="648" on="0"/>
      </contour>
    </TTGlyph>
    <TTGlyph name="Addak.gm.alt" xMin="-387" yMin="662" xMax="-179" yMax="766">
      <contour>
        <pt x="-287" y="662" on="1"/>
        <pt x="-333" y="662" on="0"/>
        <pt x="-387" y="713" on="0"/>
        <pt x="-387" y="755" on="1"/>
        <pt x="-387" y="763" on="1"/>
        <pt x="-348" y="766" on="1"/>
        <pt x="-346" y="730" on="0"/>
        <pt x="-311" y="697" on="0"/>
        <pt x="-284" y="697" on="1"/>
        <pt x="-254" y="697" on="0"/>
        <pt x="-219" y="733" on="0"/>
        <pt x="-218" y="766" on="1"/>
        <pt x="-179" y="763" on="1"/>
        <pt x="-179" y="755" on="1"/>
        <pt x="-179" y="711" on="0"/>
        <pt x="-236" y="662" on="0"/>
      </contour>
    </TTGlyph>
    <TTGlyph name="AddakBindi.gm" xMin="-263" yMin="648" xMax="16" yMax="826">
      <contour>
        <pt x="-158" y="791" on="1"/>
        <pt x="-158" y="806" on="0"/>
        <pt x="-139" y="826" on="0"/>
        <pt x="-123" y="826" on="1"/>
        <pt x="-106" y="826" on="0"/>
        <pt x="-87" y="806" on="0"/>
        <pt x="-87" y="791" on="1"/>
        <pt x="-87" y="776" on="0"/>
        <pt x="-106" y="755" on="0"/>
        <pt x="-123" y="755" on="1"/>
        <pt x="-139" y="755" on="0"/>
        <pt x="-158" y="776" on="0"/>
      </contour>
      <contour>
        <pt x="-122" y="648" on="1"/>
        <pt x="-151" y="648" on="0"/>
        <pt x="-203" y="667" on="0"/>
        <pt x="-241" y="702" on="0"/>
        <pt x="-263" y="754" on="0"/>
        <pt x="-263" y="787" on="1"/>
        <pt x="-263" y="791" on="1"/>
        <pt x="-226" y="791" on="1"/>
        <pt x="-222" y="737" on="0"/>
        <pt x="-160" y="688" on="0"/>
        <pt x="-122" y="688" on="1"/>
        <pt x="-81" y="688" on="0"/>
        <pt x="-23" y="737" on="0"/>
        <pt x="-21" y="791" on="1"/>
        <pt x="16" y="791" on="1"/>
        <pt x="16" y="787" on="1"/>
        <pt x="16" y="719" on="0"/>
        <pt x="-63" y="648" on="0"/>
      </contour>
    </TTGlyph>
    <TTGlyph name="AddakBindi.gm.alt" xMin="-387" yMin="662" xMax="-179" yMax="802">
      <contour>
        <pt x="-314" y="770" on="1"/>
        <pt x="-314" y="784" on="0"/>
        <pt x="-297" y="802" on="0"/>
        <pt x="-284" y="802" on="1"/>
        <pt x="-270" y="802" on="0"/>
        <pt x="-252" y="784" on="0"/>
        <pt x="-252" y="770" on="1"/>
        <pt x="-252" y="756" on="0"/>
        <pt x="-269" y="737" on="0"/>
        <pt x="-283" y="737" on="1"/>
        <pt x="-297" y="737" on="0"/>
        <pt x="-314" y="756" on="0"/>
      </contour>
      <contour>
        <pt x="-287" y="662" on="1"/>
        <pt x="-330" y="662" on="0"/>
        <pt x="-387" y="710" on="0"/>
        <pt x="-387" y="755" on="1"/>
        <pt x="-387" y="763" on="1"/>
        <pt x="-348" y="766" on="1"/>
        <pt x="-346" y="728" on="0"/>
        <pt x="-310" y="697" on="0"/>
        <pt x="-284" y="697" on="1"/>
        <pt x="-255" y="697" on="0"/>
        <pt x="-219" y="731" on="0"/>
        <pt x="-218" y="766" on="1"/>
        <pt x="-179" y="763" on="1"/>
        <pt x="-179" y="755" on="1"/>
        <pt x="-179" y="710" on="0"/>
        <pt x="-237" y="662" on="0"/>
      </contour>
    </TTGlyph>
    <TTGlyph name="AddhaMa.gm" xMin="0" yMin="0" xMax="438" yMax="577">
      <contour>
        <pt x="0" y="291" on="1"/>
        <pt x="273" y="291" on="1"/>
        <pt x="273" y="577" on="1"/>
        <pt x="438" y="577" on="1"/>
        <pt x="438" y="539" on="1"/>
        <pt x="320" y="539" on="1"/>
        <pt x="320" y="0" on="1"/>
        <pt x="273" y="0" on="1"/>
        <pt x="273" y="251" on="1"/>
        <pt x="0" y="251" on="1"/>
      </contour>
    </TTGlyph>
    <TTGlyph name="AddhaTha.gm" xMin="-30" yMin="0" xMax="458" yMax="577">
      <contour>
        <pt x="-30" y="577" on="1"/>
        <pt x="458" y="577" on="1"/>
        <pt x="458" y="539" on="1"/>
        <pt x="340" y="539" on="1"/>
        <pt x="340" y="0" on="1"/>
        <pt x="293" y="0" on="1"/>
        <pt x="293" y="153" on="1"/>
        <pt x="269" y="134" on="0"/>
        <pt x="197" y="110" on="0"/>
        <pt x="145" y="110" on="1"/>
        <pt x="94" y="110" on="0"/>
        <pt x="13" y="137" on="0"/>
        <pt x="-13" y="160" on="1"/>
        <pt x="13" y="192" on="1"/>
        <pt x="64" y="150" on="0"/>
        <pt x="145" y="150" on="1"/>
        <pt x="198" y="150" on="0"/>
        <pt x="270" y="181" on="0"/>
        <pt x="293" y="207" on="1"/>
        <pt x="293" y="539" on="1"/>
        <pt x="-30" y="539" on="1"/>
      </contour>
    </TTGlyph>
    <TTGlyph name="AddhaYa.gm" xMin="-30" yMin="0" xMax="570" yMax="577">
      <contour>
        <pt x="-30" y="577" on="1"/>
        <pt x="570" y="577" on="1"/>
        <pt x="570" y="539" on="1"/>
        <pt x="452" y="539" on="1"/>
        <pt x="452" y="0" on="1"/>
        <pt x="405" y="0" on="1"/>
        <pt x="405" y="318" on="1"/>
        <pt x="240" y="318" on="1"/>
        <pt x="240" y="105" on="1"/>
        <pt x="228" y="99" on="0"/>
        <pt x="186" y="90" on="0"/>
        <pt x="159" y="90" on="1"/>
        <pt x="108" y="90" on="0"/>
        <pt x="23" y="120" on="0"/>
        <pt x="-15" y="156" on="1"/>
        <pt x="13" y="188" on="1"/>
        <pt x="39" y="164" on="0"/>
        <pt x="110" y="131" on="0"/>
        <pt x="160" y="131" on="1"/>
        <pt x="168" y="131" on="0"/>
        <pt x="184" y="131" on="0"/>
        <pt x="192" y="133" on="1"/>
        <pt x="192" y="358" on="1"/>
        <pt x="405" y="358" on="1"/>
        <pt x="405" y="539" on="1"/>
        <pt x="-30" y="539" on="1"/>
      </contour>
    </TTGlyph>
    <TTGlyph name="Adieresis" xMin="26" yMin="0" xMax="557" yMax="810">
      <contour>
        <pt x="169" y="766" on="1"/>
        <pt x="169" y="786" on="0"/>
        <pt x="192" y="810" on="0"/>
        <pt x="209" y="810" on="1"/>
        <pt x="226" y="810" on="0"/>
        <pt x="249" y="786" on="0"/>
        <pt x="249" y="766" on="1"/>
        <pt x="249" y="745" on="0"/>
        <pt x="226" y="722" on="0"/>
        <pt x="209" y="722" on="1"/>
        <pt x="192" y="722" on="0"/>
        <pt x="169" y="745" on="0"/>
      </contour>
      <contour>
        <pt x="339" y="766" on="1"/>
        <pt x="339" y="786" on="0"/>
        <pt x="362" y="810" on="0"/>
        <pt x="379" y="810" on="1"/>
        <pt x="396" y="810" on="0"/>
        <pt x="419" y="786" on="0"/>
        <pt x="419" y="766" on="1"/>
        <pt x="419" y="745" on="0"/>
        <pt x="396" y="722" on="0"/>
        <pt x="379" y="722" on="1"/>
        <pt x="362" y="722" on="0"/>
        <pt x="339" y="745" on="0"/>
      </contour>
      <contour>
        <pt x="267" y="630" on="1"/>
        <pt x="319" y="630" on="1"/>
        <pt x="557" y="0" on="1"/>
        <pt x="501" y="0" on="1"/>
        <pt x="432" y="186" on="1"/>
        <pt x="150" y="186" on="1"/>
        <pt x="81" y="0" on="1"/>
        <pt x="26" y="0" on="1"/>
      </contour>
      <contour>
        <pt x="166" y="228" on="1"/>
        <pt x="415" y="228" on="1"/>
        <pt x="336" y="444" on="1"/>
        <pt x="334" y="450" on="0"/>
        <pt x="324" y="480" on="0"/>
        <pt x="312" y="518" on="0"/>
        <pt x="299" y="560" on="0"/>
        <pt x="294" y="578" on="1"/>
        <pt x="292" y="578" on="1"/>
        <pt x="287" y="560" on="0"/>
        <pt x="274" y="520" on="0"/>
        <pt x="261" y="483" on="0"/>
        <pt x="250" y="453" on="0"/>
        <pt x="247" y="444" on="1"/>
      </contour>
    </TTGlyph>
    <TTGlyph name="Agrave" xMin="26" yMin="0" xMax="557" yMax="834">
      <contour>
        <pt x="171" y="834" on="1"/>
        <pt x="234" y="834" on="1"/>
        <pt x="324" y="710" on="1"/>
        <pt x="282" y="710" on="1"/>
      </contour>
      <contour>
        <pt x="267" y="630" on="1"/>
        <pt x="319" y="630" on="1"/>
        <pt x="557" y="0" on="1"/>
        <pt x="501" y="0" on="1"/>
        <pt x="432" y="186" on="1"/>
        <pt x="150" y="186" on="1"/>
        <pt x="81" y="0" on="1"/>
        <pt x="26" y="0" on="1"/>
      </contour>
      <contour>
        <pt x="166" y="228" on="1"/>
        <pt x="415" y="228" on="1"/>
        <pt x="336" y="444" on="1"/>
        <pt x="334" y="450" on="0"/>
        <pt x="324" y="480" on="0"/>
        <pt x="312" y="518" on="0"/>
        <pt x="299" y="560" on="0"/>
        <pt x="294" y="578" on="1"/>
        <pt x="292" y="578" on="1"/>
        <pt x="287" y="560" on="0"/>
        <pt x="274" y="520" on="0"/>
        <pt x="261" y="483" on="0"/>
        <pt x="250" y="453" on="0"/>
        <pt x="247" y="444" on="1"/>
      </contour>
    </TTGlyph>
    <TTGlyph name="Amacron" xMin="26" yMin="0" xMax="557" yMax="772">
      <contour>
        <pt x="417" y="772" on="1"/>
        <pt x="417" y="730" on="1"/>
        <pt x="172" y="730" on="1"/>
        <pt x="172" y="772" on="1"/>
      </contour>
      <contour>
        <pt x="267" y="630" on="1"/>
        <pt x="319" y="630" on="1"/>
        <pt x="557" y="0" on="1"/>
        <pt x="501" y="0" on="1"/>
        <pt x="432" y="186" on="1"/>
        <pt x="150" y="186" on="1"/>
        <pt x="81" y="0" on="1"/>
        <pt x="26" y="0" on="1"/>
      </contour>
      <contour>
        <pt x="166" y="228" on="1"/>
        <pt x="415" y="228" on="1"/>
        <pt x="336" y="444" on="1"/>
        <pt x="334" y="450" on="0"/>
        <pt x="324" y="480" on="0"/>
        <pt x="312" y="518" on="0"/>
        <pt x="299" y="560" on="0"/>
        <pt x="294" y="578" on="1"/>
        <pt x="292" y="578" on="1"/>
        <pt x="287" y="560" on="0"/>
        <pt x="274" y="520" on="0"/>
        <pt x="261" y="483" on="0"/>
        <pt x="250" y="453" on="0"/>
        <pt x="247" y="444" on="1"/>
      </contour>
    </TTGlyph>
    <TTGlyph name="Aogonek" xMin="26" yMin="-206" xMax="601" yMax="630">
      <contour>
        <pt x="267" y="630" on="1"/>
        <pt x="319" y="630" on="1"/>
        <pt x="557" y="0" on="1"/>
        <pt x="463" y="-45" on="0"/>
        <pt x="463" y="-106" on="1"/>
        <pt x="463" y="-135" on="0"/>
        <pt x="501" y="-166" on="0"/>
        <pt x="536" y="-166" on="1"/>
        <pt x="553" y="-166" on="0"/>
        <pt x="582" y="-159" on="0"/>
        <pt x="592" y="-154" on="1"/>
        <pt x="601" y="-185" on="1"/>
        <pt x="566" y="-206" on="0"/>
        <pt x="521" y="-206" on="1"/>
        <pt x="475" y="-206" on="0"/>
        <pt x="414" y="-156" on="0"/>
        <pt x="414" y="-109" on="1"/>
        <pt x="414" y="-71" on="0"/>
        <pt x="467" y="-14" on="0"/>
        <pt x="501" y="0" on="1"/>
        <pt x="432" y="186" on="1"/>
        <pt x="150" y="186" on="1"/>
        <pt x="81" y="0" on="1"/>
        <pt x="26" y="0" on="1"/>
      </contour>
      <contour>
        <pt x="166" y="228" on="1"/>
        <pt x="415" y="228" on="1"/>
        <pt x="336" y="444" on="1"/>
        <pt x="334" y="450" on="0"/>
        <pt x="324" y="480" on="0"/>
        <pt x="312" y="518" on="0"/>
        <pt x="299" y="560" on="0"/>
        <pt x="294" y="578" on="1"/>
        <pt x="292" y="578" on="1"/>
        <pt x="287" y="560" on="0"/>
        <pt x="274" y="520" on="0"/>
        <pt x="261" y="483" on="0"/>
        <pt x="250" y="453" on="0"/>
        <pt x="247" y="444" on="1"/>
      </contour>
    </TTGlyph>
    <TTGlyph name="Aring" xMin="26" yMin="0" xMax="557" yMax="843">
      <contour>
        <pt x="201" y="760" on="1"/>
        <pt x="201" y="802" on="0"/>
        <pt x="256" y="843" on="0"/>
        <pt x="294" y="843" on="1"/>
        <pt x="332" y="843" on="0"/>
        <pt x="387" y="802" on="0"/>
        <pt x="387" y="760" on="1"/>
        <pt x="387" y="718" on="0"/>
        <pt x="331" y="677" on="0"/>
        <pt x="294" y="677" on="1"/>
        <pt x="256" y="677" on="0"/>
        <pt x="201" y="720" on="0"/>
      </contour>
      <contour>
        <pt x="241" y="760" on="1"/>
        <pt x="241" y="734" on="0"/>
        <pt x="269" y="705" on="0"/>
        <pt x="294" y="705" on="1"/>
        <pt x="319" y="705" on="0"/>
        <pt x="347" y="734" on="0"/>
        <pt x="347" y="760" on="1"/>
        <pt x="347" y="786" on="0"/>
        <pt x="318" y="815" on="0"/>
        <pt x="294" y="815" on="1"/>
        <pt x="270" y="815" on="0"/>
        <pt x="241" y="786" on="0"/>
      </contour>
      <contour>
        <pt x="267" y="630" on="1"/>
        <pt x="319" y="630" on="1"/>
        <pt x="557" y="0" on="1"/>
        <pt x="501" y="0" on="1"/>
        <pt x="432" y="186" on="1"/>
        <pt x="150" y="186" on="1"/>
        <pt x="81" y="0" on="1"/>
        <pt x="26" y="0" on="1"/>
      </contour>
      <contour>
        <pt x="166" y="228" on="1"/>
        <pt x="415" y="228" on="1"/>
        <pt x="336" y="444" on="1"/>
        <pt x="334" y="450" on="0"/>
        <pt x="324" y="480" on="0"/>
        <pt x="312" y="518" on="0"/>
        <pt x="299" y="560" on="0"/>
        <pt x="294" y="578" on="1"/>
        <pt x="292" y="578" on="1"/>
        <pt x="287" y="560" on="0"/>
        <pt x="274" y="520" on="0"/>
        <pt x="261" y="483" on="0"/>
        <pt x="250" y="453" on="0"/>
        <pt x="247" y="444" on="1"/>
      </contour>
    </TTGlyph>
    <TTGlyph name="Asmall" xMin="1" yMin="0" xMax="409" yMax="470">
      <contour>
        <pt x="182" y="470" on="1"/>
        <pt x="231" y="470" on="1"/>
        <pt x="409" y="0" on="1"/>
        <pt x="357" y="0" on="1"/>
        <pt x="307" y="132" on="1"/>
        <pt x="101" y="132" on="1"/>
        <pt x="52" y="0" on="1"/>
        <pt x="1" y="0" on="1"/>
      </contour>
      <contour>
        <pt x="205" y="411" on="1"/>
        <pt x="197" y="388" on="0"/>
        <pt x="182" y="347" on="0"/>
        <pt x="177" y="333" on="1"/>
        <pt x="116" y="171" on="1"/>
        <pt x="293" y="171" on="1"/>
        <pt x="233" y="333" on="1"/>
        <pt x="229" y="343" on="0"/>
        <pt x="213" y="390" on="0"/>
        <pt x="207" y="411" on="1"/>
      </contour>
    </TTGlyph>
    <TTGlyph name="Atilde" xMin="26" yMin="0" xMax="557" yMax="818">
      <contour>
        <pt x="148" y="715" on="1"/>
        <pt x="148" y="757" on="0"/>
        <pt x="189" y="815" on="0"/>
        <pt x="235" y="815" on="1"/>
        <pt x="257" y="815" on="0"/>
        <pt x="289" y="798" on="0"/>
        <pt x="317" y="778" on="0"/>
        <pt x="345" y="761" on="0"/>
        <pt x="362" y="761" on="1"/>
        <pt x="388" y="761" on="0"/>
        <pt x="409" y="793" on="0"/>
        <pt x="411" y="818" on="1"/>
        <pt x="451" y="818" on="1"/>
        <pt x="451" y="799" on="0"/>
        <pt x="440" y="764" on="0"/>
        <pt x="419" y="737" on="0"/>
        <pt x="388" y="721" on="0"/>
        <pt x="367" y="721" on="1"/>
        <pt x="344" y="721" on="0"/>
        <pt x="308" y="738" on="0"/>
        <pt x="278" y="758" on="0"/>
        <pt x="251" y="775" on="0"/>
        <pt x="238" y="775" on="1"/>
        <pt x="212" y="775" on="0"/>
        <pt x="190" y="739" on="0"/>
        <pt x="188" y="715" on="1"/>
      </contour>
      <contour>
        <pt x="267" y="630" on="1"/>
        <pt x="319" y="630" on="1"/>
        <pt x="557" y="0" on="1"/>
        <pt x="501" y="0" on="1"/>
        <pt x="432" y="186" on="1"/>
        <pt x="150" y="186" on="1"/>
        <pt x="81" y="0" on="1"/>
        <pt x="26" y="0" on="1"/>
      </contour>
      <contour>
        <pt x="166" y="228" on="1"/>
        <pt x="415" y="228" on="1"/>
        <pt x="336" y="444" on="1"/>
        <pt x="334" y="450" on="0"/>
        <pt x="324" y="480" on="0"/>
        <pt x="312" y="518" on="0"/>
        <pt x="299" y="560" on="0"/>
        <pt x="294" y="578" on="1"/>
        <pt x="292" y="578" on="1"/>
        <pt x="287" y="560" on="0"/>
        <pt x="274" y="520" on="0"/>
        <pt x="261" y="483" on="0"/>
        <pt x="250" y="453" on="0"/>
        <pt x="247" y="444" on="1"/>
      </contour>
    </TTGlyph>
    <TTGlyph name="B" xMin="80" yMin="0" xMax="447" yMax="630">
      <contour>
        <pt x="230" y="630" on="1"/>
        <pt x="324" y="630" on="0"/>
        <pt x="428" y="550" on="0"/>
        <pt x="428" y="472" on="1"/>
        <pt x="428" y="414" on="0"/>
        <pt x="363" y="348" on="0"/>
        <pt x="314" y="335" on="1"/>
        <pt x="342" y="330" on="0"/>
        <pt x="390" y="305" on="0"/>
        <pt x="426" y="265" on="0"/>
        <pt x="447" y="210" on="0"/>
        <pt x="447" y="176" on="1"/>
        <pt x="447" y="137" on="0"/>
        <pt x="415" y="72" on="0"/>
        <pt x="355" y="26" on="0"/>
        <pt x="270" y="0" on="0"/>
        <pt x="218" y="0" on="1"/>
        <pt x="80" y="0" on="1"/>
        <pt x="80" y="630" on="1"/>
      </contour>
      <contour>
        <pt x="132" y="354" on="1"/>
        <pt x="210" y="354" on="1"/>
        <pt x="242" y="354" on="0"/>
        <pt x="302" y="365" on="0"/>
        <pt x="347" y="392" on="0"/>
        <pt x="374" y="436" on="0"/>
        <pt x="374" y="469" on="1"/>
        <pt x="374" y="533" on="0"/>
        <pt x="288" y="588" on="0"/>
        <pt x="216" y="588" on="1"/>
        <pt x="132" y="588" on="1"/>
      </contour>
      <contour>
        <pt x="132" y="42" on="1"/>
        <pt x="208" y="42" on="1"/>
        <pt x="245" y="42" on="0"/>
        <pt x="312" y="57" on="0"/>
        <pt x="362" y="92" on="0"/>
        <pt x="391" y="146" on="0"/>
        <pt x="391" y="185" on="1"/>
        <pt x="391" y="222" on="0"/>
        <pt x="362" y="271" on="0"/>
        <pt x="312" y="300" on="0"/>
        <pt x="247" y="312" on="0"/>
        <pt x="211" y="312" on="1"/>
        <pt x="132" y="312" on="1"/>
      </contour>
    </TTGlyph>
    <TTGlyph name="Ba.gm" xMin="-40" yMin="0" xMax="602" yMax="577">
      <contour>
        <pt x="437" y="131" on="1"/>
        <pt x="412" y="114" on="0"/>
        <pt x="335" y="87" on="0"/>
        <pt x="279" y="87" on="1"/>
        <pt x="206" y="87" on="0"/>
        <pt x="87" y="156" on="0"/>
        <pt x="51" y="219" on="1"/>
        <pt x="73" y="264" on="0"/>
        <pt x="152" y="333" on="0"/>
        <pt x="208" y="349" on="1"/>
        <pt x="185" y="358" on="0"/>
        <pt x="137" y="392" on="0"/>
        <pt x="97" y="440" on="0"/>
        <pt x="67" y="502" on="0"/>
        <pt x="61" y="539" on="1"/>
        <pt x="-40" y="539" on="1"/>
        <pt x="-40" y="577" on="1"/>
        <pt x="602" y="577" on="1"/>
        <pt x="602" y="539" on="1"/>
        <pt x="484" y="539" on="1"/>
        <pt x="484" y="0" on="1"/>
        <pt x="437" y="0" on="1"/>
      </contour>
      <contour>
        <pt x="285" y="128" on="1"/>
        <pt x="342" y="128" on="0"/>
        <pt x="414" y="160" on="0"/>
        <pt x="437" y="180" on="1"/>
        <pt x="437" y="326" on="1"/>
        <pt x="304" y="326" on="1"/>
        <pt x="239" y="326" on="0"/>
        <pt x="131" y="269" on="0"/>
        <pt x="102" y="222" on="1"/>
        <pt x="133" y="177" on="0"/>
        <pt x="228" y="128" on="0"/>
      </contour>
      <contour>
        <pt x="437" y="366" on="1"/>
        <pt x="437" y="539" on="1"/>
        <pt x="110" y="539" on="1"/>
        <pt x="117" y="501" on="0"/>
        <pt x="157" y="437" on="0"/>
        <pt x="210" y="391" on="0"/>
        <pt x="272" y="366" on="0"/>
        <pt x="301" y="366" on="1"/>
      </contour>
    </TTGlyph>
    <TTGlyph name="BaVirama.gm" xMin="-40" yMin="-243" xMax="647" yMax="577">
      <contour>
        <pt x="437" y="131" on="1"/>
        <pt x="412" y="114" on="0"/>
        <pt x="335" y="87" on="0"/>
        <pt x="279" y="87" on="1"/>
        <pt x="206" y="87" on="0"/>
        <pt x="87" y="156" on="0"/>
        <pt x="51" y="219" on="1"/>
        <pt x="73" y="264" on="0"/>
        <pt x="152" y="333" on="0"/>
        <pt x="208" y="349" on="1"/>
        <pt x="185" y="358" on="0"/>
        <pt x="137" y="392" on="0"/>
        <pt x="97" y="440" on="0"/>
        <pt x="67" y="502" on="0"/>
        <pt x="61" y="539" on="1"/>
        <pt x="-40" y="539" on="1"/>
        <pt x="-40" y="577" on="1"/>
        <pt x="602" y="577" on="1"/>
        <pt x="602" y="539" on="1"/>
        <pt x="484" y="539" on="1"/>
        <pt x="484" y="0" on="1"/>
        <pt x="437" y="0" on="1"/>
      </contour>
      <contour>
        <pt x="285" y="128" on="1"/>
        <pt x="342" y="128" on="0"/>
        <pt x="414" y="160" on="0"/>
        <pt x="437" y="180" on="1"/>
        <pt x="437" y="326" on="1"/>
        <pt x="304" y="326" on="1"/>
        <pt x="239" y="326" on="0"/>
        <pt x="131" y="269" on="0"/>
        <pt x="102" y="222" on="1"/>
        <pt x="133" y="177" on="0"/>
        <pt x="228" y="128" on="0"/>
      </contour>
      <contour>
        <pt x="437" y="366" on="1"/>
        <pt x="437" y="539" on="1"/>
        <pt x="110" y="539" on="1"/>
        <pt x="117" y="501" on="0"/>
        <pt x="157" y="437" on="0"/>
        <pt x="210" y="391" on="0"/>
        <pt x="272" y="366" on="0"/>
        <pt x="301" y="366" on="1"/>
      </contour>
      <contour>
        <pt x="647" y="-215" on="1"/>
        <pt x="622" y="-243" on="1"/>
        <pt x="440" y="-101" on="1"/>
        <pt x="471" y="-63" on="1"/>
      </contour>
    </TTGlyph>
    <TTGlyph name="Bha.gm" xMin="-20" yMin="-3" xMax="578" yMax="577">
      <contour>
        <pt x="-20" y="577" on="1"/>
        <pt x="578" y="577" on="1"/>
        <pt x="578" y="539" on="1"/>
        <pt x="484" y="539" on="1"/>
        <pt x="482" y="476" on="0"/>
        <pt x="446" y="360" on="0"/>
        <pt x="420" y="319" on="1"/>
        <pt x="446" y="295" on="0"/>
        <pt x="480" y="223" on="0"/>
        <pt x="480" y="183" on="1"/>
        <pt x="480" y="139" on="0"/>
        <pt x="445" y="70" on="0"/>
        <pt x="381" y="22" on="0"/>
        <pt x="291" y="-3" on="0"/>
        <pt x="236" y="-3" on="1"/>
        <pt x="200" y="-3" on="0"/>
        <pt x="138" y="9" on="0"/>
        <pt x="87" y="27" on="0"/>
        <pt x="48" y="48" on="0"/>
        <pt x="37" y="58" on="1"/>
        <pt x="61" y="92" on="1"/>
        <pt x="73" y="84" on="0"/>
        <pt x="107" y="64" on="0"/>
        <pt x="152" y="48" on="0"/>
        <pt x="206" y="37" on="0"/>
        <pt x="238" y="37" on="1"/>
        <pt x="287" y="37" on="0"/>
        <pt x="360" y="61" on="0"/>
        <pt x="408" y="101" on="0"/>
        <pt x="432" y="154" on="0"/>
        <pt x="432" y="183" on="1"/>
        <pt x="432" y="215" on="0"/>
        <pt x="408" y="266" on="0"/>
        <pt x="393" y="283" on="1"/>
        <pt x="379" y="268" on="0"/>
        <pt x="342" y="238" on="0"/>
        <pt x="295" y="214" on="0"/>
        <pt x="239" y="200" on="0"/>
        <pt x="207" y="200" on="1"/>
        <pt x="177" y="200" on="0"/>
        <pt x="123" y="214" on="0"/>
        <pt x="84" y="241" on="0"/>
        <pt x="61" y="280" on="0"/>
        <pt x="61" y="306" on="1"/>
        <pt x="61" y="353" on="0"/>
        <pt x="137" y="415" on="0"/>
        <pt x="206" y="415" on="1"/>
        <pt x="267" y="415" on="0"/>
        <pt x="360" y="374" on="0"/>
        <pt x="389" y="350" on="1"/>
        <pt x="401" y="371" on="0"/>
        <pt x="418" y="421" on="0"/>
        <pt x="429" y="472" on="0"/>
        <pt x="435" y="519" on="0"/>
        <pt x="435" y="539" on="1"/>
        <pt x="-20" y="539" on="1"/>
      </contour>
      <contour>
        <pt x="213" y="241" on="1"/>
        <pt x="258" y="241" on="0"/>
        <pt x="338" y="280" on="0"/>
        <pt x="368" y="315" on="1"/>
        <pt x="339" y="339" on="0"/>
        <pt x="260" y="375" on="0"/>
        <pt x="210" y="375" on="1"/>
        <pt x="159" y="375" on="0"/>
        <pt x="109" y="335" on="0"/>
        <pt x="109" y="306" on="1"/>
        <pt x="109" y="277" on="0"/>
        <pt x="164" y="241" on="0"/>
      </contour>
    </TTGlyph>
    <TTGlyph name="BhaVirama.gm" xMin="-20" yMin="-243" xMax="578" yMax="577">
      <contour>
        <pt x="-20" y="577" on="1"/>
        <pt x="578" y="577" on="1"/>
        <pt x="578" y="539" on="1"/>
        <pt x="484" y="539" on="1"/>
        <pt x="482" y="476" on="0"/>
        <pt x="446" y="360" on="0"/>
        <pt x="420" y="319" on="1"/>
        <pt x="446" y="295" on="0"/>
        <pt x="480" y="223" on="0"/>
        <pt x="480" y="183" on="1"/>
        <pt x="480" y="139" on="0"/>
        <pt x="445" y="70" on="0"/>
        <pt x="381" y="22" on="0"/>
        <pt x="291" y="-3" on="0"/>
        <pt x="236" y="-3" on="1"/>
        <pt x="200" y="-3" on="0"/>
        <pt x="138" y="9" on="0"/>
        <pt x="87" y="27" on="0"/>
        <pt x="48" y="48" on="0"/>
        <pt x="37" y="58" on="1"/>
        <pt x="61" y="92" on="1"/>
        <pt x="73" y="84" on="0"/>
        <pt x="107" y="64" on="0"/>
        <pt x="152" y="48" on="0"/>
        <pt x="206" y="37" on="0"/>
        <pt x="238" y="37" on="1"/>
        <pt x="287" y="37" on="0"/>
        <pt x="360" y="61" on="0"/>
        <pt x="408" y="101" on="0"/>
        <pt x="432" y="154" on="0"/>
        <pt x="432" y="183" on="1"/>
        <pt x="432" y="215" on="0"/>
        <pt x="408" y="266" on="0"/>
        <pt x="393" y="283" on="1"/>
        <pt x="379" y="268" on="0"/>
        <pt x="342" y="238" on="0"/>
        <pt x="295" y="214" on="0"/>
        <pt x="239" y="200" on="0"/>
        <pt x="207" y="200" on="1"/>
        <pt x="177" y="200" on="0"/>
        <pt x="123" y="214" on="0"/>
        <pt x="84" y="241" on="0"/>
        <pt x="61" y="280" on="0"/>
        <pt x="61" y="306" on="1"/>
        <pt x="61" y="353" on="0"/>
        <pt x="137" y="415" on="0"/>
        <pt x="206" y="415" on="1"/>
        <pt x="267" y="415" on="0"/>
        <pt x="360" y="374" on="0"/>
        <pt x="389" y="350" on="1"/>
        <pt x="401" y="371" on="0"/>
        <pt x="418" y="421" on="0"/>
        <pt x="429" y="472" on="0"/>
        <pt x="435" y="519" on="0"/>
        <pt x="435" y="539" on="1"/>
        <pt x="-20" y="539" on="1"/>
      </contour>
      <contour>
        <pt x="213" y="241" on="1"/>
        <pt x="258" y="241" on="0"/>
        <pt x="338" y="280" on="0"/>
        <pt x="368" y="315" on="1"/>
        <pt x="339" y="339" on="0"/>
        <pt x="260" y="375" on="0"/>
        <pt x="210" y="375" on="1"/>
        <pt x="159" y="375" on="0"/>
        <pt x="109" y="335" on="0"/>
        <pt x="109" y="306" on="1"/>
        <pt x="109" y="277" on="0"/>
        <pt x="164" y="241" on="0"/>
      </contour>
      <contour>
        <pt x="520" y="-215" on="1"/>
        <pt x="495" y="-243" on="1"/>
        <pt x="313" y="-101" on="1"/>
        <pt x="344" y="-63" on="1"/>
      </contour>
    </TTGlyph>
    <TTGlyph name="Bindi.gm" xMin="-158" yMin="675" xMax="-86" yMax="746">
      <contour>
        <pt x="-158" y="710" on="1"/>
        <pt x="-158" y="724" on="0"/>
        <pt x="-138" y="746" on="0"/>
        <pt x="-122" y="746" on="1"/>
        <pt x="-106" y="746" on="0"/>
        <pt x="-86" y="724" on="0"/>
        <pt x="-86" y="710" on="1"/>
        <pt x="-86" y="696" on="0"/>
        <pt x="-106" y="675" on="0"/>
        <pt x="-122" y="675" on="1"/>
        <pt x="-138" y="675" on="0"/>
        <pt x="-158" y="696" on="0"/>
      </contour>
    </TTGlyph>
    <TTGlyph name="Bindi.gm.alt" xMin="-156" yMin="679" xMax="-92" yMax="742">
      <contour>
        <pt x="-156" y="710" on="1"/>
        <pt x="-156" y="723" on="0"/>
        <pt x="-138" y="742" on="0"/>
        <pt x="-124" y="742" on="1"/>
        <pt x="-110" y="742" on="0"/>
        <pt x="-92" y="723" on="0"/>
        <pt x="-92" y="710" on="1"/>
        <pt x="-92" y="697" on="0"/>
        <pt x="-110" y="679" on="0"/>
        <pt x="-124" y="679" on="1"/>
        <pt x="-138" y="679" on="0"/>
        <pt x="-156" y="697" on="0"/>
      </contour>
    </TTGlyph>
    <TTGlyph name="Bsmall" xMin="68" yMin="0" xMax="385" yMax="470">
      <contour>
        <pt x="221" y="470" on="1"/>
        <pt x="290" y="470" on="0"/>
        <pt x="366" y="406" on="0"/>
        <pt x="366" y="354" on="1"/>
        <pt x="366" y="316" on="0"/>
        <pt x="320" y="263" on="0"/>
        <pt x="284" y="251" on="1"/>
        <pt x="330" y="242" on="0"/>
        <pt x="385" y="185" on="0"/>
        <pt x="385" y="137" on="1"/>
        <pt x="385" y="109" on="0"/>
        <pt x="364" y="59" on="0"/>
        <pt x="323" y="22" on="0"/>
        <pt x="261" y="0" on="0"/>
        <pt x="220" y="0" on="1"/>
        <pt x="68" y="0" on="1"/>
        <pt x="68" y="470" on="1"/>
      </contour>
      <contour>
        <pt x="116" y="264" on="1"/>
        <pt x="208" y="264" on="1"/>
        <pt x="262" y="264" on="0"/>
        <pt x="316" y="311" on="0"/>
        <pt x="316" y="349" on="1"/>
        <pt x="316" y="389" on="0"/>
        <pt x="262" y="432" on="0"/>
        <pt x="200" y="432" on="1"/>
        <pt x="116" y="432" on="1"/>
      </contour>
      <contour>
        <pt x="116" y="38" on="1"/>
        <pt x="199" y="38" on="1"/>
        <pt x="262" y="38" on="0"/>
        <pt x="335" y="84" on="0"/>
        <pt x="335" y="140" on="1"/>
        <pt x="335" y="156" on="0"/>
        <pt x="322" y="188" on="0"/>
        <pt x="294" y="212" on="0"/>
        <pt x="251" y="227" on="0"/>
        <pt x="220" y="227" on="1"/>
        <pt x="116" y="227" on="1"/>
      </contour>
    </TTGlyph>
    <TTGlyph name="C" xMin="35" yMin="-8" xMax="496" yMax="638">
      <contour>
        <pt x="341" y="34" on="1"/>
        <pt x="389" y="34" on="0"/>
        <pt x="455" y="52" on="0"/>
        <pt x="481" y="66" on="1"/>
        <pt x="493" y="24" on="1"/>
        <pt x="463" y="9" on="0"/>
        <pt x="388" y="-8" on="0"/>
        <pt x="334" y="-8" on="1"/>
        <pt x="272" y="-8" on="0"/>
        <pt x="163" y="34" on="0"/>
        <pt x="82" y="115" on="0"/>
        <pt x="35" y="235" on="0"/>
        <pt x="35" y="314" on="1"/>
        <pt x="35" y="391" on="0"/>
        <pt x="80" y="512" on="0"/>
        <pt x="159" y="595" on="0"/>
        <pt x="268" y="638" on="0"/>
        <pt x="332" y="638" on="1"/>
        <pt x="390" y="638" on="0"/>
        <pt x="464" y="619" on="0"/>
        <pt x="496" y="602" on="1"/>
        <pt x="484" y="563" on="1"/>
        <pt x="451" y="580" on="0"/>
        <pt x="384" y="596" on="0"/>
        <pt x="343" y="596" on="1"/>
        <pt x="293" y="596" on="0"/>
        <pt x="202" y="564" on="0"/>
        <pt x="131" y="495" on="0"/>
        <pt x="89" y="388" on="0"/>
        <pt x="89" y="313" on="1"/>
        <pt x="89" y="235" on="0"/>
        <pt x="134" y="128" on="0"/>
        <pt x="206" y="63" on="0"/>
        <pt x="296" y="34" on="0"/>
      </contour>
    </TTGlyph>
    <TTGlyph name="Ca.gm" xMin="-20" yMin="-5" xMax="619" yMax="577">
      <contour>
        <pt x="-20" y="577" on="1"/>
        <pt x="619" y="577" on="1"/>
        <pt x="619" y="539" on="1"/>
        <pt x="496" y="539" on="1"/>
        <pt x="496" y="316" on="1"/>
        <pt x="515" y="288" on="0"/>
        <pt x="539" y="214" on="0"/>
        <pt x="539" y="170" on="1"/>
        <pt x="539" y="124" on="0"/>
        <pt x="506" y="58" on="0"/>
        <pt x="450" y="15" on="0"/>
        <pt x="377" y="-5" on="0"/>
        <pt x="338" y="-5" on="1"/>
        <pt x="284" y="-5" on="0"/>
        <pt x="195" y="32" on="0"/>
        <pt x="129" y="106" on="0"/>
        <pt x="91" y="219" on="0"/>
        <pt x="89" y="295" on="1"/>
        <pt x="63" y="295" on="0"/>
        <pt x="30" y="317" on="0"/>
        <pt x="30" y="342" on="1"/>
        <pt x="30" y="355" on="0"/>
        <pt x="43" y="380" on="0"/>
        <pt x="64" y="399" on="0"/>
        <pt x="91" y="410" on="0"/>
        <pt x="105" y="410" on="1"/>
        <pt x="116" y="410" on="0"/>
        <pt x="131" y="406" on="0"/>
        <pt x="138" y="403" on="1"/>
        <pt x="138" y="336" on="1"/>
        <pt x="449" y="336" on="1"/>
        <pt x="449" y="539" on="1"/>
        <pt x="-20" y="539" on="1"/>
      </contour>
      <contour>
        <pt x="490" y="174" on="1"/>
        <pt x="490" y="210" on="0"/>
        <pt x="471" y="272" on="0"/>
        <pt x="455" y="296" on="1"/>
        <pt x="138" y="296" on="1"/>
        <pt x="140" y="228" on="0"/>
        <pt x="173" y="130" on="0"/>
        <pt x="227" y="67" on="0"/>
        <pt x="299" y="36" on="0"/>
        <pt x="340" y="36" on="1"/>
        <pt x="370" y="36" on="0"/>
        <pt x="424" y="52" on="0"/>
        <pt x="465" y="86" on="0"/>
        <pt x="490" y="138" on="0"/>
      </contour>
    </TTGlyph>
    <TTGlyph name="CaVirama.gm" xMin="-20" yMin="-243" xMax="619" yMax="577">
      <contour>
        <pt x="-20" y="577" on="1"/>
        <pt x="619" y="577" on="1"/>
        <pt x="619" y="539" on="1"/>
        <pt x="496" y="539" on="1"/>
        <pt x="496" y="316" on="1"/>
        <pt x="515" y="288" on="0"/>
        <pt x="539" y="214" on="0"/>
        <pt x="539" y="170" on="1"/>
        <pt x="539" y="124" on="0"/>
        <pt x="506" y="58" on="0"/>
        <pt x="450" y="15" on="0"/>
        <pt x="377" y="-5" on="0"/>
        <pt x="338" y="-5" on="1"/>
        <pt x="284" y="-5" on="0"/>
        <pt x="195" y="32" on="0"/>
        <pt x="129" y="106" on="0"/>
        <pt x="91" y="219" on="0"/>
        <pt x="89" y="295" on="1"/>
        <pt x="63" y="295" on="0"/>
        <pt x="30" y="317" on="0"/>
        <pt x="30" y="342" on="1"/>
        <pt x="30" y="355" on="0"/>
        <pt x="43" y="380" on="0"/>
        <pt x="64" y="399" on="0"/>
        <pt x="91" y="410" on="0"/>
        <pt x="105" y="410" on="1"/>
        <pt x="116" y="410" on="0"/>
        <pt x="131" y="406" on="0"/>
        <pt x="138" y="403" on="1"/>
        <pt x="138" y="336" on="1"/>
        <pt x="449" y="336" on="1"/>
        <pt x="449" y="539" on="1"/>
        <pt x="-20" y="539" on="1"/>
      </contour>
      <contour>
        <pt x="490" y="174" on="1"/>
        <pt x="490" y="210" on="0"/>
        <pt x="471" y="272" on="0"/>
        <pt x="455" y="296" on="1"/>
        <pt x="138" y="296" on="1"/>
        <pt x="140" y="228" on="0"/>
        <pt x="173" y="130" on="0"/>
        <pt x="227" y="67" on="0"/>
        <pt x="299" y="36" on="0"/>
        <pt x="340" y="36" on="1"/>
        <pt x="370" y="36" on="0"/>
        <pt x="424" y="52" on="0"/>
        <pt x="465" y="86" on="0"/>
        <pt x="490" y="138" on="0"/>
      </contour>
      <contour>
        <pt x="551" y="-215" on="1"/>
        <pt x="526" y="-243" on="1"/>
        <pt x="344" y="-101" on="1"/>
        <pt x="375" y="-63" on="1"/>
      </contour>
    </TTGlyph>
    <TTGlyph name="Cacute" xMin="35" yMin="-8" xMax="496" yMax="834">
      <contour>
        <pt x="341" y="34" on="1"/>
        <pt x="389" y="34" on="0"/>
        <pt x="455" y="52" on="0"/>
        <pt x="481" y="66" on="1"/>
        <pt x="493" y="24" on="1"/>
        <pt x="463" y="9" on="0"/>
        <pt x="388" y="-8" on="0"/>
        <pt x="334" y="-8" on="1"/>
        <pt x="272" y="-8" on="0"/>
        <pt x="163" y="34" on="0"/>
        <pt x="82" y="115" on="0"/>
        <pt x="35" y="235" on="0"/>
        <pt x="35" y="314" on="1"/>
        <pt x="35" y="391" on="0"/>
        <pt x="80" y="512" on="0"/>
        <pt x="159" y="595" on="0"/>
        <pt x="268" y="638" on="0"/>
        <pt x="332" y="638" on="1"/>
        <pt x="390" y="638" on="0"/>
        <pt x="464" y="619" on="0"/>
        <pt x="496" y="602" on="1"/>
        <pt x="484" y="563" on="1"/>
        <pt x="451" y="580" on="0"/>
        <pt x="384" y="596" on="0"/>
        <pt x="343" y="596" on="1"/>
        <pt x="293" y="596" on="0"/>
        <pt x="202" y="564" on="0"/>
        <pt x="131" y="495" on="0"/>
        <pt x="89" y="388" on="0"/>
        <pt x="89" y="313" on="1"/>
        <pt x="89" y="235" on="0"/>
        <pt x="134" y="128" on="0"/>
        <pt x="206" y="63" on="0"/>
        <pt x="296" y="34" on="0"/>
      </contour>
      <contour>
        <pt x="291" y="710" on="1"/>
        <pt x="249" y="710" on="1"/>
        <pt x="339" y="834" on="1"/>
        <pt x="402" y="834" on="1"/>
      </contour>
    </TTGlyph>
    <TTGlyph name="Ccaron" xMin="35" yMin="-8" xMax="496" yMax="845">
      <contour>
        <pt x="341" y="34" on="1"/>
        <pt x="389" y="34" on="0"/>
        <pt x="455" y="52" on="0"/>
        <pt x="481" y="66" on="1"/>
        <pt x="493" y="24" on="1"/>
        <pt x="463" y="9" on="0"/>
        <pt x="388" y="-8" on="0"/>
        <pt x="334" y="-8" on="1"/>
        <pt x="272" y="-8" on="0"/>
        <pt x="163" y="34" on="0"/>
        <pt x="82" y="115" on="0"/>
        <pt x="35" y="235" on="0"/>
        <pt x="35" y="314" on="1"/>
        <pt x="35" y="391" on="0"/>
        <pt x="80" y="512" on="0"/>
        <pt x="159" y="595" on="0"/>
        <pt x="268" y="638" on="0"/>
        <pt x="332" y="638" on="1"/>
        <pt x="390" y="638" on="0"/>
        <pt x="464" y="619" on="0"/>
        <pt x="496" y="602" on="1"/>
        <pt x="484" y="563" on="1"/>
        <pt x="451" y="580" on="0"/>
        <pt x="384" y="596" on="0"/>
        <pt x="343" y="596" on="1"/>
        <pt x="293" y="596" on="0"/>
        <pt x="202" y="564" on="0"/>
        <pt x="131" y="495" on="0"/>
        <pt x="89" y="388" on="0"/>
        <pt x="89" y="313" on="1"/>
        <pt x="89" y="235" on="0"/>
        <pt x="134" y="128" on="0"/>
        <pt x="206" y="63" on="0"/>
        <pt x="296" y="34" on="0"/>
      </contour>
      <contour>
        <pt x="186" y="845" on="1"/>
        <pt x="242" y="845" on="1"/>
        <pt x="332" y="746" on="1"/>
        <pt x="422" y="845" on="1"/>
        <pt x="482" y="845" on="1"/>
        <pt x="357" y="711" on="1"/>
        <pt x="308" y="711" on="1"/>
      </contour>
    </TTGlyph>
    <TTGlyph name="Ccedilla" xMin="35" yMin="-214" xMax="496" yMax="638">
      <contour>
        <pt x="341" y="34" on="1"/>
        <pt x="389" y="34" on="0"/>
        <pt x="455" y="52" on="0"/>
        <pt x="481" y="66" on="1"/>
        <pt x="493" y="24" on="1"/>
        <pt x="464" y="10" on="0"/>
        <pt x="394" y="-7" on="0"/>
        <pt x="344" y="-8" on="1"/>
        <pt x="327" y="-47" on="1"/>
        <pt x="355" y="-47" on="0"/>
        <pt x="396" y="-60" on="0"/>
        <pt x="422" y="-82" on="0"/>
        <pt x="435" y="-110" on="0"/>
        <pt x="435" y="-125" on="1"/>
        <pt x="435" y="-167" on="0"/>
        <pt x="366" y="-214" on="0"/>
        <pt x="314" y="-214" on="1"/>
        <pt x="291" y="-214" on="0"/>
        <pt x="252" y="-207" on="0"/>
        <pt x="240" y="-202" on="1"/>
        <pt x="249" y="-170" on="1"/>
        <pt x="262" y="-174" on="0"/>
        <pt x="293" y="-179" on="0"/>
        <pt x="307" y="-179" on="1"/>
        <pt x="347" y="-179" on="0"/>
        <pt x="385" y="-150" on="0"/>
        <pt x="385" y="-127" on="1"/>
        <pt x="385" y="-117" on="0"/>
        <pt x="377" y="-99" on="0"/>
        <pt x="353" y="-86" on="0"/>
        <pt x="309" y="-78" on="0"/>
        <pt x="274" y="-78" on="1"/>
        <pt x="307" y="-7" on="1"/>
        <pt x="250" y="-3" on="0"/>
        <pt x="150" y="42" on="0"/>
        <pt x="77" y="123" on="0"/>
        <pt x="35" y="239" on="0"/>
        <pt x="35" y="314" on="1"/>
        <pt x="35" y="391" on="0"/>
        <pt x="80" y="512" on="0"/>
        <pt x="159" y="595" on="0"/>
        <pt x="268" y="638" on="0"/>
        <pt x="332" y="638" on="1"/>
        <pt x="390" y="638" on="0"/>
        <pt x="464" y="619" on="0"/>
        <pt x="496" y="602" on="1"/>
        <pt x="484" y="563" on="1"/>
        <pt x="451" y="580" on="0"/>
        <pt x="384" y="596" on="0"/>
        <pt x="343" y="596" on="1"/>
        <pt x="293" y="596" on="0"/>
        <pt x="202" y="564" on="0"/>
        <pt x="131" y="495" on="0"/>
        <pt x="89" y="388" on="0"/>
        <pt x="89" y="313" on="1"/>
        <pt x="89" y="235" on="0"/>
        <pt x="134" y="128" on="0"/>
        <pt x="206" y="63" on="0"/>
        <pt x="296" y="34" on="0"/>
      </contour>
    </TTGlyph>
    <TTGlyph name="Ccircumflex" xMin="35" yMin="-8" xMax="496" yMax="844">
      <contour>
        <pt x="341" y="34" on="1"/>
        <pt x="389" y="34" on="0"/>
        <pt x="455" y="52" on="0"/>
        <pt x="481" y="66" on="1"/>
        <pt x="493" y="24" on="1"/>
        <pt x="463" y="9" on="0"/>
        <pt x="388" y="-8" on="0"/>
        <pt x="334" y="-8" on="1"/>
        <pt x="272" y="-8" on="0"/>
        <pt x="163" y="34" on="0"/>
        <pt x="82" y="115" on="0"/>
        <pt x="35" y="235" on="0"/>
        <pt x="35" y="314" on="1"/>
        <pt x="35" y="391" on="0"/>
        <pt x="80" y="512" on="0"/>
        <pt x="159" y="595" on="0"/>
        <pt x="268" y="638" on="0"/>
        <pt x="332" y="638" on="1"/>
        <pt x="390" y="638" on="0"/>
        <pt x="464" y="619" on="0"/>
        <pt x="496" y="602" on="1"/>
        <pt x="484" y="563" on="1"/>
        <pt x="451" y="580" on="0"/>
        <pt x="384" y="596" on="0"/>
        <pt x="343" y="596" on="1"/>
        <pt x="293" y="596" on="0"/>
        <pt x="202" y="564" on="0"/>
        <pt x="131" y="495" on="0"/>
        <pt x="89" y="388" on="0"/>
        <pt x="89" y="313" on="1"/>
        <pt x="89" y="235" on="0"/>
        <pt x="134" y="128" on="0"/>
        <pt x="206" y="63" on="0"/>
        <pt x="296" y="34" on="0"/>
      </contour>
      <contour>
        <pt x="309" y="844" on="1"/>
        <pt x="358" y="844" on="1"/>
        <pt x="483" y="710" on="1"/>
        <pt x="423" y="710" on="1"/>
        <pt x="333" y="809" on="1"/>
        <pt x="243" y="710" on="1"/>
        <pt x="187" y="710" on="1"/>
      </contour>
    </TTGlyph>
    <TTGlyph name="Cdotaccent" xMin="35" yMin="-8" xMax="496" yMax="822">
      <contour>
        <pt x="341" y="34" on="1"/>
        <pt x="389" y="34" on="0"/>
        <pt x="455" y="52" on="0"/>
        <pt x="481" y="66" on="1"/>
        <pt x="493" y="24" on="1"/>
        <pt x="463" y="9" on="0"/>
        <pt x="388" y="-8" on="0"/>
        <pt x="334" y="-8" on="1"/>
        <pt x="272" y="-8" on="0"/>
        <pt x="163" y="34" on="0"/>
        <pt x="82" y="115" on="0"/>
        <pt x="35" y="235" on="0"/>
        <pt x="35" y="314" on="1"/>
        <pt x="35" y="391" on="0"/>
        <pt x="80" y="512" on="0"/>
        <pt x="159" y="595" on="0"/>
        <pt x="268" y="638" on="0"/>
        <pt x="332" y="638" on="1"/>
        <pt x="390" y="638" on="0"/>
        <pt x="464" y="619" on="0"/>
        <pt x="496" y="602" on="1"/>
        <pt x="484" y="563" on="1"/>
        <pt x="451" y="580" on="0"/>
        <pt x="384" y="596" on="0"/>
        <pt x="343" y="596" on="1"/>
        <pt x="293" y="596" on="0"/>
        <pt x="202" y="564" on="0"/>
        <pt x="131" y="495" on="0"/>
        <pt x="89" y="388" on="0"/>
        <pt x="89" y="313" on="1"/>
        <pt x="89" y="235" on="0"/>
        <pt x="134" y="128" on="0"/>
        <pt x="206" y="63" on="0"/>
        <pt x="296" y="34" on="0"/>
      </contour>
      <contour>
        <pt x="292" y="778" on="1"/>
        <pt x="292" y="798" on="0"/>
        <pt x="315" y="822" on="0"/>
        <pt x="332" y="822" on="1"/>
        <pt x="349" y="822" on="0"/>
        <pt x="372" y="798" on="0"/>
        <pt x="372" y="778" on="1"/>
        <pt x="372" y="757" on="0"/>
        <pt x="349" y="734" on="0"/>
        <pt x="332" y="734" on="1"/>
        <pt x="315" y="734" on="0"/>
        <pt x="292" y="757" on="0"/>
      </contour>
    </TTGlyph>
    <TTGlyph name="Cha.gm" xMin="-20" yMin="0" xMax="593" yMax="577">
      <contour>
        <pt x="-20" y="577" on="1"/>
        <pt x="593" y="577" on="1"/>
        <pt x="593" y="539" on="1"/>
        <pt x="483" y="539" on="1"/>
        <pt x="483" y="372" on="1"/>
        <pt x="192" y="372" on="1"/>
        <pt x="148" y="372" on="0"/>
        <pt x="110" y="336" on="0"/>
        <pt x="110" y="308" on="1"/>
        <pt x="110" y="280" on="0"/>
        <pt x="146" y="241" on="0"/>
        <pt x="184" y="239" on="1"/>
        <pt x="368" y="239" on="1"/>
        <pt x="434" y="239" on="0"/>
        <pt x="515" y="175" on="0"/>
        <pt x="515" y="118" on="1"/>
        <pt x="515" y="64" on="0"/>
        <pt x="438" y="0" on="0"/>
        <pt x="366" y="0" on="1"/>
        <pt x="215" y="0" on="1"/>
        <pt x="140" y="0" on="0"/>
        <pt x="58" y="68" on="0"/>
        <pt x="58" y="123" on="1"/>
        <pt x="58" y="159" on="0"/>
        <pt x="98" y="210" on="0"/>
        <pt x="126" y="219" on="1"/>
        <pt x="99" y="228" on="0"/>
        <pt x="61" y="274" on="0"/>
        <pt x="61" y="309" on="1"/>
        <pt x="61" y="361" on="0"/>
        <pt x="134" y="412" on="0"/>
        <pt x="191" y="412" on="1"/>
        <pt x="436" y="412" on="1"/>
        <pt x="436" y="539" on="1"/>
        <pt x="-20" y="539" on="1"/>
      </contour>
      <contour>
        <pt x="290" y="39" on="1"/>
        <pt x="287" y="114" on="0"/>
        <pt x="235" y="201" on="0"/>
        <pt x="179" y="201" on="1"/>
        <pt x="167" y="201" on="0"/>
        <pt x="141" y="192" on="0"/>
        <pt x="120" y="174" on="0"/>
        <pt x="106" y="146" on="0"/>
        <pt x="106" y="126" on="1"/>
        <pt x="106" y="86" on="0"/>
        <pt x="164" y="39" on="0"/>
        <pt x="224" y="39" on="1"/>
      </contour>
      <contour>
        <pt x="268" y="200" on="1"/>
        <pt x="277" y="193" on="0"/>
        <pt x="298" y="171" on="0"/>
        <pt x="318" y="134" on="0"/>
        <pt x="333" y="79" on="0"/>
        <pt x="335" y="39" on="1"/>
        <pt x="366" y="39" on="1"/>
        <pt x="413" y="39" on="0"/>
        <pt x="467" y="79" on="0"/>
        <pt x="467" y="121" on="1"/>
        <pt x="467" y="152" on="0"/>
        <pt x="417" y="200" on="0"/>
        <pt x="369" y="200" on="1"/>
      </contour>
    </TTGlyph>
    <TTGlyph name="ChaVirama.gm" xMin="-20" yMin="-243" xMax="593" yMax="577">
      <contour>
        <pt x="-20" y="577" on="1"/>
        <pt x="593" y="577" on="1"/>
        <pt x="593" y="539" on="1"/>
        <pt x="483" y="539" on="1"/>
        <pt x="483" y="372" on="1"/>
        <pt x="192" y="372" on="1"/>
        <pt x="148" y="372" on="0"/>
        <pt x="110" y="336" on="0"/>
        <pt x="110" y="308" on="1"/>
        <pt x="110" y="280" on="0"/>
        <pt x="146" y="241" on="0"/>
        <pt x="184" y="239" on="1"/>
        <pt x="368" y="239" on="1"/>
        <pt x="434" y="239" on="0"/>
        <pt x="515" y="175" on="0"/>
        <pt x="515" y="118" on="1"/>
        <pt x="515" y="64" on="0"/>
        <pt x="438" y="0" on="0"/>
        <pt x="366" y="0" on="1"/>
        <pt x="215" y="0" on="1"/>
        <pt x="140" y="0" on="0"/>
        <pt x="58" y="68" on="0"/>
        <pt x="58" y="123" on="1"/>
        <pt x="58" y="159" on="0"/>
        <pt x="98" y="210" on="0"/>
        <pt x="126" y="219" on="1"/>
        <pt x="99" y="228" on="0"/>
        <pt x="61" y="274" on="0"/>
        <pt x="61" y="309" on="1"/>
        <pt x="61" y="361" on="0"/>
        <pt x="134" y="412" on="0"/>
        <pt x="191" y="412" on="1"/>
        <pt x="436" y="412" on="1"/>
        <pt x="436" y="539" on="1"/>
        <pt x="-20" y="539" on="1"/>
      </contour>
      <contour>
        <pt x="290" y="39" on="1"/>
        <pt x="287" y="114" on="0"/>
        <pt x="235" y="201" on="0"/>
        <pt x="179" y="201" on="1"/>
        <pt x="167" y="201" on="0"/>
        <pt x="141" y="192" on="0"/>
        <pt x="120" y="174" on="0"/>
        <pt x="106" y="146" on="0"/>
        <pt x="106" y="126" on="1"/>
        <pt x="106" y="86" on="0"/>
        <pt x="164" y="39" on="0"/>
        <pt x="224" y="39" on="1"/>
      </contour>
      <contour>
        <pt x="268" y="200" on="1"/>
        <pt x="277" y="193" on="0"/>
        <pt x="298" y="171" on="0"/>
        <pt x="318" y="134" on="0"/>
        <pt x="333" y="79" on="0"/>
        <pt x="335" y="39" on="1"/>
        <pt x="366" y="39" on="1"/>
        <pt x="413" y="39" on="0"/>
        <pt x="467" y="79" on="0"/>
        <pt x="467" y="121" on="1"/>
        <pt x="467" y="152" on="0"/>
        <pt x="417" y="200" on="0"/>
        <pt x="369" y="200" on="1"/>
      </contour>
      <contour>
        <pt x="540" y="-215" on="1"/>
        <pt x="515" y="-243" on="1"/>
        <pt x="333" y="-101" on="1"/>
        <pt x="364" y="-63" on="1"/>
      </contour>
    </TTGlyph>
    <TTGlyph name="Csmall" xMin="38" yMin="-8" xMax="392" yMax="476">
      <contour>
        <pt x="274" y="28" on="1"/>
        <pt x="306" y="28" on="0"/>
        <pt x="358" y="42" on="0"/>
        <pt x="381" y="53" on="1"/>
        <pt x="392" y="19" on="1"/>
        <pt x="365" y="5" on="0"/>
        <pt x="306" y="-8" on="0"/>
        <pt x="268" y="-8" on="1"/>
        <pt x="221" y="-8" on="0"/>
        <pt x="138" y="22" on="0"/>
        <pt x="75" y="82" on="0"/>
        <pt x="38" y="173" on="0"/>
        <pt x="38" y="234" on="1"/>
        <pt x="38" y="290" on="0"/>
        <pt x="72" y="380" on="0"/>
        <pt x="134" y="443" on="0"/>
        <pt x="217" y="476" on="0"/>
        <pt x="267" y="476" on="1"/>
        <pt x="300" y="476" on="0"/>
        <pt x="362" y="464" on="0"/>
        <pt x="390" y="451" on="1"/>
        <pt x="378" y="414" on="1"/>
        <pt x="354" y="426" on="0"/>
        <pt x="299" y="436" on="0"/>
        <pt x="273" y="436" on="1"/>
        <pt x="232" y="436" on="0"/>
        <pt x="164" y="408" on="0"/>
        <pt x="115" y="356" on="0"/>
        <pt x="88" y="282" on="0"/>
        <pt x="88" y="237" on="1"/>
        <pt x="88" y="177" on="0"/>
        <pt x="121" y="97" on="0"/>
        <pt x="174" y="49" on="0"/>
        <pt x="240" y="28" on="0"/>
      </contour>
    </TTGlyph>
    <TTGlyph name="D" xMin="80" yMin="0" xMax="556" yMax="630">
      <contour>
        <pt x="265" y="630" on="1"/>
        <pt x="327" y="630" on="0"/>
        <pt x="434" y="592" on="0"/>
        <pt x="512" y="517" on="0"/>
        <pt x="556" y="404" on="0"/>
        <pt x="556" y="329" on="1"/>
        <pt x="556" y="238" on="0"/>
        <pt x="504" y="112" on="0"/>
        <pt x="414" y="34" on="0"/>
        <pt x="296" y="0" on="0"/>
        <pt x="230" y="0" on="1"/>
        <pt x="80" y="0" on="1"/>
        <pt x="80" y="630" on="1"/>
      </contour>
      <contour>
        <pt x="132" y="42" on="1"/>
        <pt x="221" y="42" on="1"/>
        <pt x="273" y="42" on="0"/>
        <pt x="373" y="67" on="0"/>
        <pt x="453" y="132" on="0"/>
        <pt x="502" y="243" on="0"/>
        <pt x="502" y="329" on="1"/>
        <pt x="502" y="390" on="0"/>
        <pt x="465" y="486" on="0"/>
        <pt x="397" y="553" on="0"/>
        <pt x="304" y="588" on="0"/>
        <pt x="247" y="588" on="1"/>
        <pt x="132" y="588" on="1"/>
      </contour>
    </TTGlyph>
    <TTGlyph name="Da.gm" xMin="-20" yMin="-1" xMax="594" yMax="577">
      <contour>
        <pt x="-20" y="577" on="1"/>
        <pt x="594" y="577" on="1"/>
        <pt x="594" y="539" on="1"/>
        <pt x="483" y="539" on="1"/>
        <pt x="483" y="290" on="1"/>
        <pt x="138" y="290" on="1"/>
        <pt x="140" y="165" on="0"/>
        <pt x="251" y="40" on="0"/>
        <pt x="355" y="40" on="1"/>
        <pt x="401" y="40" on="0"/>
        <pt x="466" y="66" on="0"/>
        <pt x="489" y="84" on="1"/>
        <pt x="512" y="50" on="1"/>
        <pt x="489" y="30" on="0"/>
        <pt x="409" y="-1" on="0"/>
        <pt x="354" y="-1" on="1"/>
        <pt x="286" y="-1" on="0"/>
        <pt x="188" y="42" on="0"/>
        <pt x="123" y="119" on="0"/>
        <pt x="91" y="226" on="0"/>
        <pt x="90" y="290" on="1"/>
        <pt x="64" y="290" on="0"/>
        <pt x="30" y="312" on="0"/>
        <pt x="30" y="337" on="1"/>
        <pt x="30" y="350" on="0"/>
        <pt x="43" y="375" on="0"/>
        <pt x="64" y="394" on="0"/>
        <pt x="91" y="405" on="0"/>
        <pt x="105" y="405" on="1"/>
        <pt x="116" y="405" on="0"/>
        <pt x="131" y="401" on="0"/>
        <pt x="138" y="398" on="1"/>
        <pt x="138" y="330" on="1"/>
        <pt x="436" y="330" on="1"/>
        <pt x="436" y="539" on="1"/>
        <pt x="-20" y="539" on="1"/>
      </contour>
    </TTGlyph>
    <TTGlyph name="DaVirama.gm" xMin="-20" yMin="-243" xMax="594" yMax="577">
      <contour>
        <pt x="-20" y="577" on="1"/>
        <pt x="594" y="577" on="1"/>
        <pt x="594" y="539" on="1"/>
        <pt x="483" y="539" on="1"/>
        <pt x="483" y="290" on="1"/>
        <pt x="138" y="290" on="1"/>
        <pt x="140" y="165" on="0"/>
        <pt x="251" y="40" on="0"/>
        <pt x="355" y="40" on="1"/>
        <pt x="401" y="40" on="0"/>
        <pt x="466" y="66" on="0"/>
        <pt x="489" y="84" on="1"/>
        <pt x="512" y="50" on="1"/>
        <pt x="489" y="30" on="0"/>
        <pt x="409" y="-1" on="0"/>
        <pt x="354" y="-1" on="1"/>
        <pt x="286" y="-1" on="0"/>
        <pt x="188" y="42" on="0"/>
        <pt x="123" y="119" on="0"/>
        <pt x="91" y="226" on="0"/>
        <pt x="90" y="290" on="1"/>
        <pt x="64" y="290" on="0"/>
        <pt x="30" y="312" on="0"/>
        <pt x="30" y="337" on="1"/>
        <pt x="30" y="350" on="0"/>
        <pt x="43" y="375" on="0"/>
        <pt x="64" y="394" on="0"/>
        <pt x="91" y="405" on="0"/>
        <pt x="105" y="405" on="1"/>
        <pt x="116" y="405" on="0"/>
        <pt x="131" y="401" on="0"/>
        <pt x="138" y="398" on="1"/>
        <pt x="138" y="330" on="1"/>
        <pt x="436" y="330" on="1"/>
        <pt x="436" y="539" on="1"/>
        <pt x="-20" y="539" on="1"/>
      </contour>
      <contour>
        <pt x="586" y="-215" on="1"/>
        <pt x="561" y="-243" on="1"/>
        <pt x="379" y="-101" on="1"/>
        <pt x="410" y="-63" on="1"/>
      </contour>
    </TTGlyph>
    <TTGlyph name="Danda.gm" xMin="110" yMin="0" xMax="157" yMax="582">
      <contour>
        <pt x="110" y="582" on="1"/>
        <pt x="157" y="582" on="1"/>
        <pt x="157" y="0" on="1"/>
        <pt x="110" y="0" on="1"/>
      </contour>
    </TTGlyph>
    <TTGlyph name="Dcaron" xMin="80" yMin="0" xMax="556" yMax="844">
      <contour>
        <pt x="265" y="630" on="1"/>
        <pt x="327" y="630" on="0"/>
        <pt x="434" y="592" on="0"/>
        <pt x="512" y="517" on="0"/>
        <pt x="556" y="404" on="0"/>
        <pt x="556" y="329" on="1"/>
        <pt x="556" y="238" on="0"/>
        <pt x="504" y="112" on="0"/>
        <pt x="414" y="34" on="0"/>
        <pt x="296" y="0" on="0"/>
        <pt x="230" y="0" on="1"/>
        <pt x="80" y="0" on="1"/>
        <pt x="80" y="630" on="1"/>
      </contour>
      <contour>
        <pt x="132" y="42" on="1"/>
        <pt x="221" y="42" on="1"/>
        <pt x="273" y="42" on="0"/>
        <pt x="373" y="67" on="0"/>
        <pt x="453" y="132" on="0"/>
        <pt x="502" y="243" on="0"/>
        <pt x="502" y="329" on="1"/>
        <pt x="502" y="390" on="0"/>
        <pt x="465" y="486" on="0"/>
        <pt x="397" y="553" on="0"/>
        <pt x="304" y="588" on="0"/>
        <pt x="247" y="588" on="1"/>
        <pt x="132" y="588" on="1"/>
      </contour>
      <contour>
        <pt x="111" y="844" on="1"/>
        <pt x="167" y="844" on="1"/>
        <pt x="257" y="745" on="1"/>
        <pt x="347" y="844" on="1"/>
        <pt x="407" y="844" on="1"/>
        <pt x="282" y="710" on="1"/>
        <pt x="233" y="710" on="1"/>
      </contour>
    </TTGlyph>
    <TTGlyph name="Dcroat" xMin="30" yMin="0" xMax="586" yMax="630">
      <contour>
        <pt x="295" y="630" on="1"/>
        <pt x="357" y="630" on="0"/>
        <pt x="464" y="592" on="0"/>
        <pt x="542" y="517" on="0"/>
        <pt x="586" y="404" on="0"/>
        <pt x="586" y="329" on="1"/>
        <pt x="586" y="238" on="0"/>
        <pt x="534" y="112" on="0"/>
        <pt x="444" y="34" on="0"/>
        <pt x="326" y="0" on="0"/>
        <pt x="260" y="0" on="1"/>
        <pt x="110" y="0" on="1"/>
        <pt x="110" y="308" on="1"/>
        <pt x="30" y="308" on="1"/>
        <pt x="30" y="350" on="1"/>
        <pt x="110" y="350" on="1"/>
        <pt x="110" y="630" on="1"/>
      </contour>
      <contour>
        <pt x="330" y="350" on="1"/>
        <pt x="330" y="308" on="1"/>
        <pt x="162" y="308" on="1"/>
        <pt x="162" y="42" on="1"/>
        <pt x="251" y="42" on="1"/>
        <pt x="303" y="42" on="0"/>
        <pt x="403" y="67" on="0"/>
        <pt x="483" y="132" on="0"/>
        <pt x="532" y="243" on="0"/>
        <pt x="532" y="329" on="1"/>
        <pt x="532" y="390" on="0"/>
        <pt x="495" y="486" on="0"/>
        <pt x="427" y="553" on="0"/>
        <pt x="334" y="588" on="0"/>
        <pt x="277" y="588" on="1"/>
        <pt x="162" y="588" on="1"/>
        <pt x="162" y="350" on="1"/>
      </contour>
    </TTGlyph>
    <TTGlyph name="Dda.gm" xMin="-20" yMin="-2" xMax="566" yMax="577">
      <contour>
        <pt x="-20" y="577" on="1"/>
        <pt x="566" y="577" on="1"/>
        <pt x="566" y="539" on="1"/>
        <pt x="467" y="539" on="1"/>
        <pt x="465" y="475" on="0"/>
        <pt x="413" y="370" on="0"/>
        <pt x="378" y="341" on="1"/>
        <pt x="422" y="318" on="0"/>
        <pt x="475" y="235" on="0"/>
        <pt x="475" y="181" on="1"/>
        <pt x="475" y="136" on="0"/>
        <pt x="437" y="68" on="0"/>
        <pt x="373" y="22" on="0"/>
        <pt x="288" y="-2" on="0"/>
        <pt x="241" y="-2" on="1"/>
        <pt x="144" y="-2" on="0"/>
        <pt x="35" y="68" on="0"/>
        <pt x="35" y="125" on="1"/>
        <pt x="35" y="163" on="0"/>
        <pt x="91" y="221" on="0"/>
        <pt x="145" y="221" on="1"/>
        <pt x="188" y="221" on="0"/>
        <pt x="256" y="193" on="0"/>
        <pt x="310" y="149" on="0"/>
        <pt x="350" y="98" on="0"/>
        <pt x="365" y="75" on="1"/>
        <pt x="393" y="92" on="0"/>
        <pt x="426" y="148" on="0"/>
        <pt x="426" y="185" on="1"/>
        <pt x="426" y="233" on="0"/>
        <pt x="373" y="305" on="0"/>
        <pt x="331" y="322" on="1"/>
        <pt x="302" y="315" on="0"/>
        <pt x="229" y="308" on="0"/>
        <pt x="179" y="308" on="1"/>
        <pt x="129" y="308" on="0"/>
        <pt x="88" y="327" on="0"/>
        <pt x="88" y="346" on="1"/>
        <pt x="88" y="356" on="0"/>
        <pt x="94" y="364" on="1"/>
        <pt x="342" y="364" on="1"/>
        <pt x="354" y="375" on="0"/>
        <pt x="381" y="411" on="0"/>
        <pt x="403" y="457" on="0"/>
        <pt x="418" y="511" on="0"/>
        <pt x="419" y="539" on="1"/>
        <pt x="-20" y="539" on="1"/>
      </contour>
      <contour>
        <pt x="244" y="39" on="1"/>
        <pt x="264" y="39" on="0"/>
        <pt x="310" y="46" on="0"/>
        <pt x="329" y="53" on="1"/>
        <pt x="315" y="73" on="0"/>
        <pt x="281" y="118" on="0"/>
        <pt x="237" y="156" on="0"/>
        <pt x="181" y="181" on="0"/>
        <pt x="147" y="181" on="1"/>
        <pt x="116" y="181" on="0"/>
        <pt x="84" y="147" on="0"/>
        <pt x="84" y="125" on="1"/>
        <pt x="84" y="88" on="0"/>
        <pt x="169" y="39" on="0"/>
      </contour>
    </TTGlyph>
    <TTGlyph name="DdaVirama.gm" xMin="-20" yMin="-243" xMax="566" yMax="577">
      <contour>
        <pt x="-20" y="577" on="1"/>
        <pt x="566" y="577" on="1"/>
        <pt x="566" y="539" on="1"/>
        <pt x="467" y="539" on="1"/>
        <pt x="465" y="475" on="0"/>
        <pt x="413" y="370" on="0"/>
        <pt x="378" y="341" on="1"/>
        <pt x="422" y="318" on="0"/>
        <pt x="475" y="235" on="0"/>
        <pt x="475" y="181" on="1"/>
        <pt x="475" y="136" on="0"/>
        <pt x="437" y="68" on="0"/>
        <pt x="373" y="22" on="0"/>
        <pt x="288" y="-2" on="0"/>
        <pt x="241" y="-2" on="1"/>
        <pt x="144" y="-2" on="0"/>
        <pt x="35" y="68" on="0"/>
        <pt x="35" y="125" on="1"/>
        <pt x="35" y="163" on="0"/>
        <pt x="91" y="221" on="0"/>
        <pt x="145" y="221" on="1"/>
        <pt x="188" y="221" on="0"/>
        <pt x="256" y="193" on="0"/>
        <pt x="310" y="149" on="0"/>
        <pt x="350" y="98" on="0"/>
        <pt x="365" y="75" on="1"/>
        <pt x="393" y="92" on="0"/>
        <pt x="426" y="148" on="0"/>
        <pt x="426" y="185" on="1"/>
        <pt x="426" y="233" on="0"/>
        <pt x="373" y="305" on="0"/>
        <pt x="331" y="322" on="1"/>
        <pt x="302" y="315" on="0"/>
        <pt x="229" y="308" on="0"/>
        <pt x="179" y="308" on="1"/>
        <pt x="129" y="308" on="0"/>
        <pt x="88" y="327" on="0"/>
        <pt x="88" y="346" on="1"/>
        <pt x="88" y="356" on="0"/>
        <pt x="94" y="364" on="1"/>
        <pt x="342" y="364" on="1"/>
        <pt x="354" y="375" on="0"/>
        <pt x="381" y="411" on="0"/>
        <pt x="403" y="457" on="0"/>
        <pt x="418" y="511" on="0"/>
        <pt x="419" y="539" on="1"/>
        <pt x="-20" y="539" on="1"/>
      </contour>
      <contour>
        <pt x="244" y="39" on="1"/>
        <pt x="264" y="39" on="0"/>
        <pt x="310" y="46" on="0"/>
        <pt x="329" y="53" on="1"/>
        <pt x="315" y="73" on="0"/>
        <pt x="281" y="118" on="0"/>
        <pt x="237" y="156" on="0"/>
        <pt x="181" y="181" on="0"/>
        <pt x="147" y="181" on="1"/>
        <pt x="116" y="181" on="0"/>
        <pt x="84" y="147" on="0"/>
        <pt x="84" y="125" on="1"/>
        <pt x="84" y="88" on="0"/>
        <pt x="169" y="39" on="0"/>
      </contour>
      <contour>
        <pt x="500" y="-215" on="1"/>
        <pt x="475" y="-243" on="1"/>
        <pt x="293" y="-101" on="1"/>
        <pt x="324" y="-63" on="1"/>
      </contour>
    </TTGlyph>
    <TTGlyph name="Ddha.gm" xMin="-20" yMin="-2" xMax="615" yMax="577">
      <contour>
        <pt x="-20" y="577" on="1"/>
        <pt x="615" y="577" on="1"/>
        <pt x="615" y="539" on="1"/>
        <pt x="503" y="539" on="1"/>
        <pt x="503" y="317" on="1"/>
        <pt x="132" y="317" on="1"/>
        <pt x="136" y="249" on="0"/>
        <pt x="183" y="131" on="0"/>
        <pt x="219" y="98" on="1"/>
        <pt x="255" y="148" on="0"/>
        <pt x="353" y="216" on="0"/>
        <pt x="418" y="216" on="1"/>
        <pt x="471" y="216" on="0"/>
        <pt x="536" y="159" on="0"/>
        <pt x="536" y="114" on="1"/>
        <pt x="536" y="59" on="0"/>
        <pt x="447" y="-2" on="0"/>
        <pt x="376" y="-2" on="1"/>
        <pt x="326" y="-2" on="0"/>
        <pt x="228" y="30" on="0"/>
        <pt x="147" y="105" on="0"/>
        <pt x="91" y="227" on="0"/>
        <pt x="84" y="317" on="1"/>
        <pt x="55" y="319" on="0"/>
        <pt x="26" y="346" on="0"/>
        <pt x="26" y="365" on="1"/>
        <pt x="26" y="380" on="0"/>
        <pt x="38" y="405" on="0"/>
        <pt x="58" y="425" on="0"/>
        <pt x="84" y="436" on="0"/>
        <pt x="98" y="436" on="1"/>
        <pt x="109" y="436" on="0"/>
        <pt x="126" y="431" on="0"/>
        <pt x="130" y="429" on="1"/>
        <pt x="130" y="357" on="1"/>
        <pt x="456" y="357" on="1"/>
        <pt x="456" y="539" on="1"/>
        <pt x="-20" y="539" on="1"/>
      </contour>
      <contour>
        <pt x="415" y="176" on="1"/>
        <pt x="363" y="176" on="0"/>
        <pt x="288" y="115" on="0"/>
        <pt x="254" y="69" on="1"/>
        <pt x="278" y="54" on="0"/>
        <pt x="342" y="38" on="0"/>
        <pt x="377" y="38" on="1"/>
        <pt x="428" y="38" on="0"/>
        <pt x="489" y="79" on="0"/>
        <pt x="489" y="113" on="1"/>
        <pt x="489" y="142" on="0"/>
        <pt x="448" y="176" on="0"/>
      </contour>
    </TTGlyph>
    <TTGlyph name="DdhaVirama.gm" xMin="-20" yMin="-243" xMax="615" yMax="577">
      <contour>
        <pt x="-20" y="577" on="1"/>
        <pt x="615" y="577" on="1"/>
        <pt x="615" y="539" on="1"/>
        <pt x="503" y="539" on="1"/>
        <pt x="503" y="317" on="1"/>
        <pt x="132" y="317" on="1"/>
        <pt x="136" y="249" on="0"/>
        <pt x="183" y="131" on="0"/>
        <pt x="219" y="98" on="1"/>
        <pt x="255" y="148" on="0"/>
        <pt x="353" y="216" on="0"/>
        <pt x="418" y="216" on="1"/>
        <pt x="471" y="216" on="0"/>
        <pt x="536" y="159" on="0"/>
        <pt x="536" y="114" on="1"/>
        <pt x="536" y="59" on="0"/>
        <pt x="447" y="-2" on="0"/>
        <pt x="376" y="-2" on="1"/>
        <pt x="326" y="-2" on="0"/>
        <pt x="228" y="30" on="0"/>
        <pt x="147" y="105" on="0"/>
        <pt x="91" y="227" on="0"/>
        <pt x="84" y="317" on="1"/>
        <pt x="55" y="319" on="0"/>
        <pt x="26" y="346" on="0"/>
        <pt x="26" y="365" on="1"/>
        <pt x="26" y="380" on="0"/>
        <pt x="38" y="405" on="0"/>
        <pt x="58" y="425" on="0"/>
        <pt x="84" y="436" on="0"/>
        <pt x="98" y="436" on="1"/>
        <pt x="109" y="436" on="0"/>
        <pt x="126" y="431" on="0"/>
        <pt x="130" y="429" on="1"/>
        <pt x="130" y="357" on="1"/>
        <pt x="456" y="357" on="1"/>
        <pt x="456" y="539" on="1"/>
        <pt x="-20" y="539" on="1"/>
      </contour>
      <contour>
        <pt x="415" y="176" on="1"/>
        <pt x="363" y="176" on="0"/>
        <pt x="288" y="115" on="0"/>
        <pt x="254" y="69" on="1"/>
        <pt x="278" y="54" on="0"/>
        <pt x="342" y="38" on="0"/>
        <pt x="377" y="38" on="1"/>
        <pt x="428" y="38" on="0"/>
        <pt x="489" y="79" on="0"/>
        <pt x="489" y="113" on="1"/>
        <pt x="489" y="142" on="0"/>
        <pt x="448" y="176" on="0"/>
      </contour>
      <contour>
        <pt x="566" y="-215" on="1"/>
        <pt x="541" y="-243" on="1"/>
        <pt x="359" y="-101" on="1"/>
        <pt x="390" y="-63" on="1"/>
      </contour>
    </TTGlyph>
    <TTGlyph name="Dha.gm" xMin="-30" yMin="0" xMax="589" yMax="577">
      <contour>
        <pt x="424" y="158" on="1"/>
        <pt x="397" y="136" on="0"/>
        <pt x="318" y="111" on="0"/>
        <pt x="269" y="111" on="1"/>
        <pt x="202" y="111" on="0"/>
        <pt x="87" y="172" on="0"/>
        <pt x="53" y="232" on="1"/>
        <pt x="82" y="278" on="0"/>
        <pt x="120" y="378" on="0"/>
        <pt x="120" y="433" on="1"/>
        <pt x="120" y="467" on="0"/>
        <pt x="108" y="519" on="0"/>
        <pt x="97" y="539" on="1"/>
        <pt x="-30" y="539" on="1"/>
        <pt x="-30" y="577" on="1"/>
        <pt x="589" y="577" on="1"/>
        <pt x="589" y="539" on="1"/>
        <pt x="471" y="539" on="1"/>
        <pt x="471" y="0" on="1"/>
        <pt x="424" y="0" on="1"/>
      </contour>
      <contour>
        <pt x="271" y="151" on="1"/>
        <pt x="325" y="151" on="0"/>
        <pt x="404" y="187" on="0"/>
        <pt x="424" y="212" on="1"/>
        <pt x="424" y="539" on="1"/>
        <pt x="145" y="539" on="1"/>
        <pt x="156" y="511" on="0"/>
        <pt x="168" y="456" on="0"/>
        <pt x="168" y="433" on="1"/>
        <pt x="168" y="373" on="0"/>
        <pt x="135" y="276" on="0"/>
        <pt x="108" y="233" on="1"/>
        <pt x="117" y="216" on="0"/>
        <pt x="150" y="187" on="0"/>
        <pt x="194" y="164" on="0"/>
        <pt x="245" y="151" on="0"/>
      </contour>
    </TTGlyph>
    <TTGlyph name="DhaVirama.gm" xMin="-30" yMin="-243" xMax="637" yMax="577">
      <contour>
        <pt x="424" y="158" on="1"/>
        <pt x="397" y="136" on="0"/>
        <pt x="318" y="111" on="0"/>
        <pt x="269" y="111" on="1"/>
        <pt x="202" y="111" on="0"/>
        <pt x="87" y="172" on="0"/>
        <pt x="53" y="232" on="1"/>
        <pt x="82" y="278" on="0"/>
        <pt x="120" y="378" on="0"/>
        <pt x="120" y="433" on="1"/>
        <pt x="120" y="467" on="0"/>
        <pt x="108" y="519" on="0"/>
        <pt x="97" y="539" on="1"/>
        <pt x="-30" y="539" on="1"/>
        <pt x="-30" y="577" on="1"/>
        <pt x="589" y="577" on="1"/>
        <pt x="589" y="539" on="1"/>
        <pt x="471" y="539" on="1"/>
        <pt x="471" y="0" on="1"/>
        <pt x="424" y="0" on="1"/>
      </contour>
      <contour>
        <pt x="271" y="151" on="1"/>
        <pt x="325" y="151" on="0"/>
        <pt x="404" y="187" on="0"/>
        <pt x="424" y="212" on="1"/>
        <pt x="424" y="539" on="1"/>
        <pt x="145" y="539" on="1"/>
        <pt x="156" y="511" on="0"/>
        <pt x="168" y="456" on="0"/>
        <pt x="168" y="433" on="1"/>
        <pt x="168" y="373" on="0"/>
        <pt x="135" y="276" on="0"/>
        <pt x="108" y="233" on="1"/>
        <pt x="117" y="216" on="0"/>
        <pt x="150" y="187" on="0"/>
        <pt x="194" y="164" on="0"/>
        <pt x="245" y="151" on="0"/>
      </contour>
      <contour>
        <pt x="637" y="-215" on="1"/>
        <pt x="612" y="-243" on="1"/>
        <pt x="430" y="-101" on="1"/>
        <pt x="461" y="-63" on="1"/>
      </contour>
    </TTGlyph>
    <TTGlyph name="Dottedcircle" xMin="10" yMin="-30" xMax="667" yMax="627">
      <contour>
        <pt x="310" y="-2" on="1"/>
        <pt x="310" y="10" on="0"/>
        <pt x="326" y="27" on="0"/>
        <pt x="338" y="27" on="1"/>
        <pt x="350" y="27" on="0"/>
        <pt x="367" y="10" on="0"/>
        <pt x="367" y="-2" on="1"/>
        <pt x="367" y="-14" on="0"/>
        <pt x="350" y="-30" on="0"/>
        <pt x="338" y="-30" on="1"/>
        <pt x="326" y="-30" on="0"/>
        <pt x="310" y="-14" on="0"/>
      </contour>
      <contour>
        <pt x="310" y="598" on="1"/>
        <pt x="310" y="610" on="0"/>
        <pt x="326" y="627" on="0"/>
        <pt x="338" y="627" on="1"/>
        <pt x="350" y="627" on="0"/>
        <pt x="367" y="610" on="0"/>
        <pt x="367" y="598" on="1"/>
        <pt x="367" y="586" on="0"/>
        <pt x="350" y="570" on="0"/>
        <pt x="338" y="570" on="1"/>
        <pt x="326" y="570" on="0"/>
        <pt x="310" y="586" on="0"/>
      </contour>
      <contour>
        <pt x="10" y="298" on="1"/>
        <pt x="10" y="310" on="0"/>
        <pt x="26" y="327" on="0"/>
        <pt x="38" y="327" on="1"/>
        <pt x="50" y="327" on="0"/>
        <pt x="67" y="310" on="0"/>
        <pt x="67" y="298" on="1"/>
        <pt x="67" y="286" on="0"/>
        <pt x="50" y="270" on="0"/>
        <pt x="38" y="270" on="1"/>
        <pt x="26" y="270" on="0"/>
        <pt x="10" y="286" on="0"/>
      </contour>
      <contour>
        <pt x="610" y="298" on="1"/>
        <pt x="610" y="310" on="0"/>
        <pt x="626" y="327" on="0"/>
        <pt x="638" y="327" on="1"/>
        <pt x="650" y="327" on="0"/>
        <pt x="667" y="310" on="0"/>
        <pt x="667" y="298" on="1"/>
        <pt x="667" y="286" on="0"/>
        <pt x="650" y="270" on="0"/>
        <pt x="638" y="270" on="1"/>
        <pt x="626" y="270" on="0"/>
        <pt x="610" y="286" on="0"/>
      </contour>
      <contour>
        <pt x="110" y="498" on="1"/>
        <pt x="110" y="510" on="0"/>
        <pt x="126" y="527" on="0"/>
        <pt x="138" y="527" on="1"/>
        <pt x="150" y="527" on="0"/>
        <pt x="167" y="510" on="0"/>
        <pt x="167" y="498" on="1"/>
        <pt x="167" y="486" on="0"/>
        <pt x="150" y="470" on="0"/>
        <pt x="138" y="470" on="1"/>
        <pt x="126" y="470" on="0"/>
        <pt x="110" y="486" on="0"/>
      </contour>
      <contour>
        <pt x="110" y="98" on="1"/>
        <pt x="110" y="110" on="0"/>
        <pt x="126" y="127" on="0"/>
        <pt x="138" y="127" on="1"/>
        <pt x="150" y="127" on="0"/>
        <pt x="167" y="110" on="0"/>
        <pt x="167" y="98" on="1"/>
        <pt x="167" y="86" on="0"/>
        <pt x="150" y="70" on="0"/>
        <pt x="138" y="70" on="1"/>
        <pt x="126" y="70" on="0"/>
        <pt x="110" y="86" on="0"/>
      </contour>
      <contour>
        <pt x="510" y="98" on="1"/>
        <pt x="510" y="110" on="0"/>
        <pt x="526" y="127" on="0"/>
        <pt x="538" y="127" on="1"/>
        <pt x="550" y="127" on="0"/>
        <pt x="567" y="110" on="0"/>
        <pt x="567" y="98" on="1"/>
        <pt x="567" y="86" on="0"/>
        <pt x="550" y="70" on="0"/>
        <pt x="538" y="70" on="1"/>
        <pt x="526" y="70" on="0"/>
        <pt x="510" y="86" on="0"/>
      </contour>
      <contour>
        <pt x="510" y="498" on="1"/>
        <pt x="510" y="510" on="0"/>
        <pt x="526" y="527" on="0"/>
        <pt x="538" y="527" on="1"/>
        <pt x="550" y="527" on="0"/>
        <pt x="567" y="510" on="0"/>
        <pt x="567" y="498" on="1"/>
        <pt x="567" y="486" on="0"/>
        <pt x="550" y="470" on="0"/>
        <pt x="538" y="470" on="1"/>
        <pt x="526" y="470" on="0"/>
        <pt x="510" y="486" on="0"/>
      </contour>
    </TTGlyph>
    <TTGlyph name="Doubledanda.gm" xMin="110" yMin="0" xMax="351" yMax="582">
      <contour>
        <pt x="110" y="582" on="1"/>
        <pt x="157" y="582" on="1"/>
        <pt x="157" y="0" on="1"/>
        <pt x="110" y="0" on="1"/>
      </contour>
      <contour>
        <pt x="304" y="582" on="1"/>
        <pt x="351" y="582" on="1"/>
        <pt x="351" y="0" on="1"/>
        <pt x="304" y="0" on="1"/>
      </contour>
    </TTGlyph>
    <TTGlyph name="Dsmall" xMin="68" yMin="0" xMax="438" yMax="470">
      <contour>
        <pt x="191" y="470" on="1"/>
        <pt x="239" y="470" on="0"/>
        <pt x="328" y="446" on="0"/>
        <pt x="397" y="392" on="0"/>
        <pt x="438" y="307" on="0"/>
        <pt x="438" y="246" on="1"/>
        <pt x="438" y="182" on="0"/>
        <pt x="399" y="89" on="0"/>
        <pt x="331" y="29" on="0"/>
        <pt x="238" y="0" on="0"/>
        <pt x="185" y="0" on="1"/>
        <pt x="68" y="0" on="1"/>
        <pt x="68" y="470" on="1"/>
      </contour>
      <contour>
        <pt x="116" y="38" on="1"/>
        <pt x="165" y="38" on="1"/>
        <pt x="199" y="38" on="0"/>
        <pt x="278" y="52" on="0"/>
        <pt x="344" y="95" on="0"/>
        <pt x="388" y="176" on="0"/>
        <pt x="388" y="243" on="1"/>
        <pt x="388" y="432" on="0"/>
        <pt x="165" y="432" on="1"/>
        <pt x="116" y="432" on="1"/>
      </contour>
    </TTGlyph>
    <TTGlyph name="E" xMin="80" yMin="0" xMax="443" yMax="630">
      <contour>
        <pt x="80" y="630" on="1"/>
        <pt x="440" y="630" on="1"/>
        <pt x="440" y="588" on="1"/>
        <pt x="132" y="588" on="1"/>
        <pt x="132" y="345" on="1"/>
        <pt x="414" y="345" on="1"/>
        <pt x="414" y="303" on="1"/>
        <pt x="132" y="303" on="1"/>
        <pt x="132" y="42" on="1"/>
        <pt x="443" y="42" on="1"/>
        <pt x="443" y="0" on="1"/>
        <pt x="80" y="0" on="1"/>
      </contour>
    </TTGlyph>
    <TTGlyph name="Eacute" xMin="80" yMin="0" xMax="443" yMax="834">
      <contour>
        <pt x="80" y="630" on="1"/>
        <pt x="440" y="630" on="1"/>
        <pt x="440" y="588" on="1"/>
        <pt x="132" y="588" on="1"/>
        <pt x="132" y="345" on="1"/>
        <pt x="414" y="345" on="1"/>
        <pt x="414" y="303" on="1"/>
        <pt x="132" y="303" on="1"/>
        <pt x="132" y="42" on="1"/>
        <pt x="443" y="42" on="1"/>
        <pt x="443" y="0" on="1"/>
        <pt x="80" y="0" on="1"/>
      </contour>
      <contour>
        <pt x="241" y="710" on="1"/>
        <pt x="199" y="710" on="1"/>
        <pt x="289" y="834" on="1"/>
        <pt x="352" y="834" on="1"/>
      </contour>
    </TTGlyph>
    <TTGlyph name="Ebreve" xMin="80" yMin="0" xMax="443" yMax="834">
      <contour>
        <pt x="80" y="630" on="1"/>
        <pt x="440" y="630" on="1"/>
        <pt x="440" y="588" on="1"/>
        <pt x="132" y="588" on="1"/>
        <pt x="132" y="345" on="1"/>
        <pt x="414" y="345" on="1"/>
        <pt x="414" y="303" on="1"/>
        <pt x="132" y="303" on="1"/>
        <pt x="132" y="42" on="1"/>
        <pt x="443" y="42" on="1"/>
        <pt x="443" y="0" on="1"/>
        <pt x="80" y="0" on="1"/>
      </contour>
      <contour>
        <pt x="176" y="834" on="1"/>
        <pt x="177" y="796" on="0"/>
        <pt x="217" y="750" on="0"/>
        <pt x="264" y="750" on="1"/>
        <pt x="303" y="750" on="0"/>
        <pt x="348" y="794" on="0"/>
        <pt x="349" y="834" on="1"/>
        <pt x="397" y="834" on="1"/>
        <pt x="397" y="780" on="0"/>
        <pt x="329" y="710" on="0"/>
        <pt x="264" y="710" on="1"/>
        <pt x="228" y="710" on="0"/>
        <pt x="177" y="730" on="0"/>
        <pt x="144" y="765" on="0"/>
        <pt x="128" y="810" on="0"/>
        <pt x="128" y="834" on="1"/>
      </contour>
    </TTGlyph>
    <TTGlyph name="Ecaron" xMin="80" yMin="0" xMax="443" yMax="845">
      <contour>
        <pt x="80" y="630" on="1"/>
        <pt x="440" y="630" on="1"/>
        <pt x="440" y="588" on="1"/>
        <pt x="132" y="588" on="1"/>
        <pt x="132" y="345" on="1"/>
        <pt x="414" y="345" on="1"/>
        <pt x="414" y="303" on="1"/>
        <pt x="132" y="303" on="1"/>
        <pt x="132" y="42" on="1"/>
        <pt x="443" y="42" on="1"/>
        <pt x="443" y="0" on="1"/>
        <pt x="80" y="0" on="1"/>
      </contour>
      <contour>
        <pt x="118" y="845" on="1"/>
        <pt x="174" y="845" on="1"/>
        <pt x="264" y="746" on="1"/>
        <pt x="354" y="845" on="1"/>
        <pt x="414" y="845" on="1"/>
        <pt x="289" y="711" on="1"/>
        <pt x="240" y="711" on="1"/>
      </contour>
    </TTGlyph>
    <TTGlyph name="Ecircumflex" xMin="80" yMin="0" xMax="443" yMax="844">
      <contour>
        <pt x="80" y="630" on="1"/>
        <pt x="440" y="630" on="1"/>
        <pt x="440" y="588" on="1"/>
        <pt x="132" y="588" on="1"/>
        <pt x="132" y="345" on="1"/>
        <pt x="414" y="345" on="1"/>
        <pt x="414" y="303" on="1"/>
        <pt x="132" y="303" on="1"/>
        <pt x="132" y="42" on="1"/>
        <pt x="443" y="42" on="1"/>
        <pt x="443" y="0" on="1"/>
        <pt x="80" y="0" on="1"/>
      </contour>
      <contour>
        <pt x="240" y="844" on="1"/>
        <pt x="289" y="844" on="1"/>
        <pt x="414" y="710" on="1"/>
        <pt x="354" y="710" on="1"/>
        <pt x="264" y="809" on="1"/>
        <pt x="174" y="710" on="1"/>
        <pt x="118" y="710" on="1"/>
      </contour>
    </TTGlyph>
    <TTGlyph name="Edieresis" xMin="80" yMin="0" xMax="443" yMax="810">
      <contour>
        <pt x="80" y="630" on="1"/>
        <pt x="440" y="630" on="1"/>
        <pt x="440" y="588" on="1"/>
        <pt x="132" y="588" on="1"/>
        <pt x="132" y="345" on="1"/>
        <pt x="414" y="345" on="1"/>
        <pt x="414" y="303" on="1"/>
        <pt x="132" y="303" on="1"/>
        <pt x="132" y="42" on="1"/>
        <pt x="443" y="42" on="1"/>
        <pt x="443" y="0" on="1"/>
        <pt x="80" y="0" on="1"/>
      </contour>
      <contour>
        <pt x="139" y="766" on="1"/>
        <pt x="139" y="786" on="0"/>
        <pt x="162" y="810" on="0"/>
        <pt x="179" y="810" on="1"/>
        <pt x="196" y="810" on="0"/>
        <pt x="219" y="786" on="0"/>
        <pt x="219" y="766" on="1"/>
        <pt x="219" y="745" on="0"/>
        <pt x="196" y="722" on="0"/>
        <pt x="179" y="722" on="1"/>
        <pt x="162" y="722" on="0"/>
        <pt x="139" y="745" on="0"/>
      </contour>
      <contour>
        <pt x="309" y="766" on="1"/>
        <pt x="309" y="786" on="0"/>
        <pt x="332" y="810" on="0"/>
        <pt x="349" y="810" on="1"/>
        <pt x="366" y="810" on="0"/>
        <pt x="389" y="786" on="0"/>
        <pt x="389" y="766" on="1"/>
        <pt x="389" y="745" on="0"/>
        <pt x="366" y="722" on="0"/>
        <pt x="349" y="722" on="1"/>
        <pt x="332" y="722" on="0"/>
        <pt x="309" y="745" on="0"/>
      </contour>
    </TTGlyph>
    <TTGlyph name="Edotaccent" xMin="80" yMin="0" xMax="443" yMax="822">
      <contour>
        <pt x="80" y="630" on="1"/>
        <pt x="440" y="630" on="1"/>
        <pt x="440" y="588" on="1"/>
        <pt x="132" y="588" on="1"/>
        <pt x="132" y="345" on="1"/>
        <pt x="414" y="345" on="1"/>
        <pt x="414" y="303" on="1"/>
        <pt x="132" y="303" on="1"/>
        <pt x="132" y="42" on="1"/>
        <pt x="443" y="42" on="1"/>
        <pt x="443" y="0" on="1"/>
        <pt x="80" y="0" on="1"/>
      </contour>
      <contour>
        <pt x="224" y="778" on="1"/>
        <pt x="224" y="798" on="0"/>
        <pt x="247" y="822" on="0"/>
        <pt x="264" y="822" on="1"/>
        <pt x="281" y="822" on="0"/>
        <pt x="304" y="798" on="0"/>
        <pt x="304" y="778" on="1"/>
        <pt x="304" y="757" on="0"/>
        <pt x="281" y="734" on="0"/>
        <pt x="264" y="734" on="1"/>
        <pt x="247" y="734" on="0"/>
        <pt x="224" y="757" on="0"/>
      </contour>
    </TTGlyph>
    <TTGlyph name="Egrave" xMin="80" yMin="0" xMax="443" yMax="834">
      <contour>
        <pt x="80" y="630" on="1"/>
        <pt x="440" y="630" on="1"/>
        <pt x="440" y="588" on="1"/>
        <pt x="132" y="588" on="1"/>
        <pt x="132" y="345" on="1"/>
        <pt x="414" y="345" on="1"/>
        <pt x="414" y="303" on="1"/>
        <pt x="132" y="303" on="1"/>
        <pt x="132" y="42" on="1"/>
        <pt x="443" y="42" on="1"/>
        <pt x="443" y="0" on="1"/>
        <pt x="80" y="0" on="1"/>
      </contour>
      <contour>
        <pt x="191" y="834" on="1"/>
        <pt x="254" y="834" on="1"/>
        <pt x="344" y="710" on="1"/>
        <pt x="302" y="710" on="1"/>
      </contour>
    </TTGlyph>
    <TTGlyph name="Eight.gm" xMin="20" yMin="-3" xMax="503" yMax="513">
      <contour>
        <pt x="503" y="48" on="1"/>
        <pt x="486" y="31" on="0"/>
        <pt x="413" y="-3" on="0"/>
        <pt x="355" y="-3" on="1"/>
        <pt x="301" y="-3" on="0"/>
        <pt x="202" y="38" on="0"/>
        <pt x="126" y="129" on="0"/>
        <pt x="81" y="276" on="0"/>
        <pt x="81" y="381" on="1"/>
        <pt x="81" y="398" on="1"/>
        <pt x="54" y="398" on="0"/>
        <pt x="20" y="419" on="0"/>
        <pt x="20" y="445" on="1"/>
        <pt x="20" y="458" on="0"/>
        <pt x="33" y="483" on="0"/>
        <pt x="54" y="502" on="0"/>
        <pt x="81" y="513" on="0"/>
        <pt x="95" y="513" on="1"/>
        <pt x="106" y="513" on="0"/>
        <pt x="121" y="509" on="0"/>
        <pt x="128" y="506" on="1"/>
        <pt x="128" y="443" on="1"/>
        <pt x="475" y="443" on="1"/>
        <pt x="475" y="403" on="1"/>
        <pt x="128" y="403" on="1"/>
        <pt x="128" y="384" on="1"/>
        <pt x="128" y="289" on="0"/>
        <pt x="165" y="157" on="0"/>
        <pt x="228" y="75" on="0"/>
        <pt x="310" y="38" on="0"/>
        <pt x="355" y="38" on="1"/>
        <pt x="399" y="38" on="0"/>
        <pt x="460" y="66" on="0"/>
        <pt x="478" y="80" on="1"/>
      </contour>
    </TTGlyph>
    <TTGlyph name="EkOnkar.gm" xMin="64" yMin="0" xMax="1291" yMax="866">
      <contour>
        <pt x="924" y="621" on="1"/>
        <pt x="905" y="681" on="0"/>
        <pt x="825" y="743" on="0"/>
        <pt x="769" y="743" on="1"/>
        <pt x="700" y="743" on="0"/>
        <pt x="605" y="652" on="0"/>
        <pt x="584" y="577" on="1"/>
        <pt x="1071" y="577" on="1"/>
        <pt x="1071" y="539" on="1"/>
        <pt x="977" y="539" on="1"/>
        <pt x="975" y="490" on="0"/>
        <pt x="950" y="412" on="0"/>
        <pt x="910" y="354" on="0"/>
        <pt x="859" y="315" on="0"/>
        <pt x="832" y="306" on="1"/>
        <pt x="875" y="289" on="0"/>
        <pt x="931" y="213" on="0"/>
        <pt x="931" y="156" on="1"/>
        <pt x="931" y="119" on="0"/>
        <pt x="904" y="61" on="0"/>
        <pt x="856" y="21" on="0"/>
        <pt x="791" y="0" on="0"/>
        <pt x="753" y="0" on="1"/>
        <pt x="708" y="0" on="0"/>
        <pt x="621" y="34" on="0"/>
        <pt x="552" y="117" on="0"/>
        <pt x="510" y="257" on="0"/>
        <pt x="510" y="364" on="1"/>
        <pt x="510" y="491" on="0"/>
        <pt x="558" y="654" on="0"/>
        <pt x="633" y="749" on="0"/>
        <pt x="725" y="785" on="0"/>
        <pt x="770" y="785" on="1"/>
        <pt x="808" y="785" on="0"/>
        <pt x="867" y="763" on="0"/>
        <pt x="911" y="730" on="0"/>
        <pt x="939" y="691" on="0"/>
        <pt x="947" y="673" on="1"/>
        <pt x="958" y="716" on="0"/>
        <pt x="1024" y="754" on="0"/>
        <pt x="1072" y="759" on="1"/>
        <pt x="1147" y="767" on="1"/>
        <pt x="1176" y="770" on="0"/>
        <pt x="1215" y="784" on="0"/>
        <pt x="1239" y="808" on="0"/>
        <pt x="1251" y="842" on="0"/>
        <pt x="1254" y="866" on="1"/>
        <pt x="1291" y="866" on="1"/>
        <pt x="1291" y="861" on="1"/>
        <pt x="1291" y="794" on="0"/>
        <pt x="1220" y="733" on="0"/>
        <pt x="1154" y="726" on="1"/>
        <pt x="1087" y="719" on="1"/>
        <pt x="1030" y="713" on="0"/>
        <pt x="983" y="673" on="0"/>
        <pt x="975" y="631" on="1"/>
        <pt x="973" y="621" on="1"/>
      </contour>
      <contour>
        <pt x="64" y="427" on="1"/>
        <pt x="64" y="465" on="0"/>
        <pt x="90" y="523" on="0"/>
        <pt x="134" y="563" on="0"/>
        <pt x="191" y="584" on="0"/>
        <pt x="223" y="584" on="1"/>
        <pt x="258" y="584" on="0"/>
        <pt x="314" y="562" on="0"/>
        <pt x="353" y="524" on="0"/>
        <pt x="373" y="471" on="0"/>
        <pt x="373" y="440" on="1"/>
        <pt x="373" y="97" on="1"/>
        <pt x="373" y="67" on="0"/>
        <pt x="402" y="41" on="0"/>
        <pt x="431" y="41" on="1"/>
        <pt x="442" y="41" on="1"/>
        <pt x="440" y="1" on="1"/>
        <pt x="436" y="0" on="0"/>
        <pt x="425" y="0" on="0"/>
        <pt x="423" y="0" on="1"/>
        <pt x="371" y="0" on="0"/>
        <pt x="326" y="54" on="0"/>
        <pt x="326" y="110" on="1"/>
        <pt x="326" y="299" on="1"/>
        <pt x="313" y="288" on="0"/>
        <pt x="262" y="269" on="0"/>
        <pt x="222" y="269" on="1"/>
        <pt x="191" y="269" on="0"/>
        <pt x="134" y="289" on="0"/>
        <pt x="90" y="328" on="0"/>
        <pt x="64" y="388" on="0"/>
      </contour>
      <contour>
        <pt x="752" y="333" on="1"/>
        <pt x="792" y="333" on="0"/>
        <pt x="855" y="364" on="0"/>
        <pt x="900" y="418" on="0"/>
        <pt x="926" y="494" on="0"/>
        <pt x="928" y="539" on="1"/>
        <pt x="576" y="539" on="1"/>
        <pt x="569" y="509" on="0"/>
        <pt x="559" y="414" on="0"/>
        <pt x="559" y="363" on="1"/>
        <pt x="559" y="358" on="0"/>
        <pt x="559" y="341" on="0"/>
        <pt x="560" y="333" on="1"/>
      </contour>
      <contour>
        <pt x="884" y="158" on="1"/>
        <pt x="884" y="218" on="0"/>
        <pt x="807" y="293" on="0"/>
        <pt x="742" y="293" on="1"/>
        <pt x="561" y="293" on="1"/>
        <pt x="567" y="175" on="0"/>
        <pt x="670" y="41" on="0"/>
        <pt x="755" y="41" on="1"/>
        <pt x="811" y="41" on="0"/>
        <pt x="884" y="101" on="0"/>
      </contour>
      <contour>
        <pt x="112" y="428" on="1"/>
        <pt x="112" y="398" on="0"/>
        <pt x="131" y="353" on="0"/>
        <pt x="162" y="323" on="0"/>
        <pt x="203" y="309" on="0"/>
        <pt x="225" y="309" on="1"/>
        <pt x="261" y="309" on="0"/>
        <pt x="314" y="332" on="0"/>
        <pt x="329" y="348" on="1"/>
        <pt x="329" y="439" on="1"/>
        <pt x="329" y="460" on="0"/>
        <pt x="316" y="497" on="0"/>
        <pt x="289" y="526" on="0"/>
        <pt x="250" y="543" on="0"/>
        <pt x="223" y="543" on="1"/>
        <pt x="172" y="543" on="0"/>
        <pt x="112" y="478" on="0"/>
      </contour>
    </TTGlyph>
    <TTGlyph name="Ek_Type" xMin="100" yMin="-312" xMax="1089" yMax="636">
      <contour>
        <pt x="800" y="531" on="1"/>
        <pt x="800" y="403" on="1"/>
        <pt x="814" y="421" on="0"/>
        <pt x="867" y="447" on="0"/>
        <pt x="902" y="447" on="1"/>
        <pt x="977" y="447" on="0"/>
        <pt x="1062" y="351" on="0"/>
        <pt x="1062" y="266" on="1"/>
        <pt x="1062" y="224" on="0"/>
        <pt x="1037" y="156" on="0"/>
        <pt x="991" y="107" on="0"/>
        <pt x="925" y="81" on="0"/>
        <pt x="885" y="81" on="1"/>
        <pt x="876" y="81" on="0"/>
        <pt x="852" y="84" on="0"/>
        <pt x="841" y="87" on="1"/>
        <pt x="854" y="184" on="1"/>
        <pt x="869" y="184" on="1"/>
        <pt x="927" y="184" on="0"/>
        <pt x="927" y="266" on="1"/>
        <pt x="927" y="301" on="0"/>
        <pt x="894" y="340" on="0"/>
        <pt x="865" y="340" on="1"/>
        <pt x="836" y="340" on="0"/>
        <pt x="807" y="299" on="0"/>
        <pt x="803" y="276" on="1"/>
        <pt x="803" y="0" on="1"/>
        <pt x="672" y="0" on="1"/>
        <pt x="672" y="113" on="1"/>
        <pt x="657" y="95" on="0"/>
        <pt x="603" y="74" on="0"/>
        <pt x="579" y="74" on="1"/>
        <pt x="549" y="74" on="0"/>
        <pt x="489" y="94" on="0"/>
        <pt x="441" y="139" on="0"/>
        <pt x="411" y="211" on="0"/>
        <pt x="411" y="263" on="1"/>
        <pt x="411" y="352" on="0"/>
        <pt x="493" y="447" on="0"/>
        <pt x="568" y="447" on="1"/>
        <pt x="600" y="447" on="0"/>
        <pt x="654" y="428" on="0"/>
        <pt x="672" y="411" on="1"/>
        <pt x="672" y="531" on="1"/>
        <pt x="330" y="531" on="1"/>
        <pt x="330" y="50" on="1"/>
        <pt x="549" y="-40" on="0"/>
        <pt x="818" y="-164" on="0"/>
        <pt x="883" y="-197" on="1"/>
        <pt x="822" y="-312" on="1"/>
        <pt x="778" y="-291" on="0"/>
        <pt x="661" y="-235" on="0"/>
        <pt x="507" y="-163" on="0"/>
        <pt x="314" y="-73" on="0"/>
        <pt x="195" y="-18" on="1"/>
        <pt x="195" y="531" on="1"/>
        <pt x="100" y="531" on="1"/>
        <pt x="100" y="636" on="1"/>
        <pt x="1089" y="636" on="1"/>
        <pt x="1089" y="531" on="1"/>
      </contour>
      <contour>
        <pt x="675" y="309" on="1"/>
        <pt x="665" y="320" on="0"/>
        <pt x="633" y="338" on="0"/>
        <pt x="613" y="338" on="1"/>
        <pt x="584" y="338" on="0"/>
        <pt x="548" y="297" on="0"/>
        <pt x="548" y="262" on="1"/>
        <pt x="548" y="225" on="0"/>
        <pt x="582" y="182" on="0"/>
        <pt x="611" y="182" on="1"/>
        <pt x="667" y="182" on="0"/>
        <pt x="675" y="236" on="1"/>
      </contour>
    </TTGlyph>
    <TTGlyph name="Emacron" xMin="80" yMin="0" xMax="443" yMax="772">
      <contour>
        <pt x="80" y="630" on="1"/>
        <pt x="440" y="630" on="1"/>
        <pt x="440" y="588" on="1"/>
        <pt x="132" y="588" on="1"/>
        <pt x="132" y="345" on="1"/>
        <pt x="414" y="345" on="1"/>
        <pt x="414" y="303" on="1"/>
        <pt x="132" y="303" on="1"/>
        <pt x="132" y="42" on="1"/>
        <pt x="443" y="42" on="1"/>
        <pt x="443" y="0" on="1"/>
        <pt x="80" y="0" on="1"/>
      </contour>
      <contour>
        <pt x="387" y="772" on="1"/>
        <pt x="387" y="730" on="1"/>
        <pt x="142" y="730" on="1"/>
        <pt x="142" y="772" on="1"/>
      </contour>
    </TTGlyph>
    <TTGlyph name="Eng" xMin="80" yMin="-215" xMax="543" yMax="630">
      <contour>
        <pt x="80" y="630" on="1"/>
        <pt x="130" y="630" on="1"/>
        <pt x="405" y="206" on="1"/>
        <pt x="428" y="172" on="0"/>
        <pt x="472" y="106" on="0"/>
        <pt x="493" y="72" on="1"/>
        <pt x="495" y="72" on="1"/>
        <pt x="493" y="110" on="0"/>
        <pt x="493" y="188" on="0"/>
        <pt x="493" y="226" on="1"/>
        <pt x="493" y="630" on="1"/>
        <pt x="543" y="630" on="1"/>
        <pt x="543" y="57" on="1"/>
        <pt x="543" y="2" on="0"/>
        <pt x="529" y="-82" on="0"/>
        <pt x="497" y="-146" on="0"/>
        <pt x="444" y="-195" on="0"/>
        <pt x="405" y="-215" on="1"/>
        <pt x="379" y="-174" on="1"/>
        <pt x="434" y="-141" on="0"/>
        <pt x="486" y="-62" on="0"/>
        <pt x="491" y="-7" on="1"/>
        <pt x="227" y="396" on="1"/>
        <pt x="201" y="437" on="0"/>
        <pt x="151" y="520" on="0"/>
        <pt x="129" y="562" on="1"/>
        <pt x="127" y="562" on="1"/>
        <pt x="130" y="469" on="0"/>
        <pt x="130" y="376" on="1"/>
        <pt x="130" y="0" on="1"/>
        <pt x="80" y="0" on="1"/>
      </contour>
    </TTGlyph>
    <TTGlyph name="Eogonek" xMin="80" yMin="-206" xMax="480" yMax="630">
      <contour>
        <pt x="443" y="0" on="1"/>
        <pt x="392" y="-17" on="0"/>
        <pt x="342" y="-74" on="0"/>
        <pt x="342" y="-106" on="1"/>
        <pt x="342" y="-135" on="0"/>
        <pt x="380" y="-166" on="0"/>
        <pt x="415" y="-166" on="1"/>
        <pt x="432" y="-166" on="0"/>
        <pt x="461" y="-159" on="0"/>
        <pt x="471" y="-154" on="1"/>
        <pt x="480" y="-185" on="1"/>
        <pt x="445" y="-206" on="0"/>
        <pt x="400" y="-206" on="1"/>
        <pt x="354" y="-206" on="0"/>
        <pt x="293" y="-156" on="0"/>
        <pt x="293" y="-109" on="1"/>
        <pt x="293" y="-71" on="0"/>
        <pt x="338" y="-15" on="0"/>
        <pt x="373" y="-2" on="1"/>
        <pt x="373" y="0" on="1"/>
        <pt x="80" y="0" on="1"/>
        <pt x="80" y="630" on="1"/>
        <pt x="440" y="630" on="1"/>
        <pt x="440" y="588" on="1"/>
        <pt x="132" y="588" on="1"/>
        <pt x="132" y="345" on="1"/>
        <pt x="414" y="345" on="1"/>
        <pt x="414" y="303" on="1"/>
        <pt x="132" y="303" on="1"/>
        <pt x="132" y="42" on="1"/>
        <pt x="443" y="42" on="1"/>
      </contour>
    </TTGlyph>
    <TTGlyph name="Esmall" xMin="68" yMin="0" xMax="357" yMax="470">
      <contour>
        <pt x="68" y="470" on="1"/>
        <pt x="355" y="470" on="1"/>
        <pt x="355" y="432" on="1"/>
        <pt x="116" y="432" on="1"/>
        <pt x="116" y="262" on="1"/>
        <pt x="338" y="262" on="1"/>
        <pt x="338" y="225" on="1"/>
        <pt x="116" y="225" on="1"/>
        <pt x="116" y="38" on="1"/>
        <pt x="357" y="38" on="1"/>
        <pt x="357" y="0" on="1"/>
        <pt x="68" y="0" on="1"/>
      </contour>
    </TTGlyph>
    <TTGlyph name="Eth" xMin="30" yMin="0" xMax="586" yMax="630">
      <contour>
        <pt x="295" y="630" on="1"/>
        <pt x="357" y="630" on="0"/>
        <pt x="464" y="592" on="0"/>
        <pt x="542" y="517" on="0"/>
        <pt x="586" y="404" on="0"/>
        <pt x="586" y="329" on="1"/>
        <pt x="586" y="238" on="0"/>
        <pt x="534" y="112" on="0"/>
        <pt x="444" y="34" on="0"/>
        <pt x="326" y="0" on="0"/>
        <pt x="260" y="0" on="1"/>
        <pt x="110" y="0" on="1"/>
        <pt x="110" y="308" on="1"/>
        <pt x="30" y="308" on="1"/>
        <pt x="30" y="350" on="1"/>
        <pt x="110" y="350" on="1"/>
        <pt x="110" y="630" on="1"/>
      </contour>
      <contour>
        <pt x="330" y="350" on="1"/>
        <pt x="330" y="308" on="1"/>
        <pt x="162" y="308" on="1"/>
        <pt x="162" y="42" on="1"/>
        <pt x="251" y="42" on="1"/>
        <pt x="303" y="42" on="0"/>
        <pt x="403" y="67" on="0"/>
        <pt x="483" y="132" on="0"/>
        <pt x="532" y="243" on="0"/>
        <pt x="532" y="329" on="1"/>
        <pt x="532" y="390" on="0"/>
        <pt x="495" y="486" on="0"/>
        <pt x="427" y="553" on="0"/>
        <pt x="334" y="588" on="0"/>
        <pt x="277" y="588" on="1"/>
        <pt x="162" y="588" on="1"/>
        <pt x="162" y="350" on="1"/>
      </contour>
    </TTGlyph>
    <TTGlyph name="Euro" xMin="5" yMin="-7" xMax="484" yMax="592">
      <contour>
        <pt x="339" y="34" on="1"/>
        <pt x="385" y="34" on="0"/>
        <pt x="447" y="51" on="0"/>
        <pt x="471" y="63" on="1"/>
        <pt x="481" y="23" on="1"/>
        <pt x="453" y="9" on="0"/>
        <pt x="383" y="-7" on="0"/>
        <pt x="333" y="-7" on="1"/>
        <pt x="284" y="-7" on="0"/>
        <pt x="198" y="23" on="0"/>
        <pt x="129" y="81" on="0"/>
        <pt x="81" y="164" on="0"/>
        <pt x="70" y="217" on="1"/>
        <pt x="5" y="217" on="1"/>
        <pt x="5" y="256" on="1"/>
        <pt x="66" y="256" on="1"/>
        <pt x="64" y="267" on="0"/>
        <pt x="64" y="286" on="0"/>
        <pt x="64" y="295" on="1"/>
        <pt x="64" y="320" on="1"/>
        <pt x="5" y="320" on="1"/>
        <pt x="5" y="358" on="1"/>
        <pt x="69" y="358" on="1"/>
        <pt x="79" y="411" on="0"/>
        <pt x="126" y="497" on="0"/>
        <pt x="194" y="559" on="0"/>
        <pt x="281" y="592" on="0"/>
        <pt x="331" y="592" on="1"/>
        <pt x="385" y="592" on="0"/>
        <pt x="454" y="576" on="0"/>
        <pt x="484" y="559" on="1"/>
        <pt x="473" y="522" on="1"/>
        <pt x="442" y="537" on="0"/>
        <pt x="379" y="552" on="0"/>
        <pt x="341" y="552" on="1"/>
        <pt x="303" y="552" on="0"/>
        <pt x="232" y="527" on="0"/>
        <pt x="174" y="478" on="0"/>
        <pt x="131" y="405" on="0"/>
        <pt x="121" y="358" on="1"/>
        <pt x="415" y="358" on="1"/>
        <pt x="415" y="320" on="1"/>
        <pt x="116" y="320" on="1"/>
        <pt x="116" y="296" on="1"/>
        <pt x="116" y="287" on="0"/>
        <pt x="117" y="264" on="0"/>
        <pt x="118" y="256" on="1"/>
        <pt x="415" y="256" on="1"/>
        <pt x="415" y="217" on="1"/>
        <pt x="123" y="217" on="1"/>
        <pt x="133" y="169" on="0"/>
        <pt x="178" y="100" on="0"/>
        <pt x="236" y="55" on="0"/>
        <pt x="304" y="34" on="0"/>
      </contour>
    </TTGlyph>
    <TTGlyph name="Euro.lat" xMin="5" yMin="-8" xMax="521" yMax="638">
      <contour>
        <pt x="366" y="34" on="1"/>
        <pt x="414" y="34" on="0"/>
        <pt x="480" y="52" on="0"/>
        <pt x="506" y="66" on="1"/>
        <pt x="518" y="24" on="1"/>
        <pt x="488" y="9" on="0"/>
        <pt x="413" y="-8" on="0"/>
        <pt x="359" y="-8" on="1"/>
        <pt x="305" y="-8" on="0"/>
        <pt x="211" y="23" on="0"/>
        <pt x="137" y="84" on="0"/>
        <pt x="86" y="174" on="0"/>
        <pt x="76" y="234" on="1"/>
        <pt x="5" y="234" on="1"/>
        <pt x="5" y="274" on="1"/>
        <pt x="72" y="274" on="1"/>
        <pt x="70" y="288" on="0"/>
        <pt x="70" y="306" on="0"/>
        <pt x="70" y="317" on="1"/>
        <pt x="70" y="345" on="1"/>
        <pt x="5" y="345" on="1"/>
        <pt x="5" y="385" on="1"/>
        <pt x="75" y="385" on="1"/>
        <pt x="84" y="446" on="0"/>
        <pt x="132" y="540" on="0"/>
        <pt x="205" y="604" on="0"/>
        <pt x="301" y="638" on="0"/>
        <pt x="357" y="638" on="1"/>
        <pt x="415" y="638" on="0"/>
        <pt x="489" y="619" on="0"/>
        <pt x="521" y="602" on="1"/>
        <pt x="509" y="563" on="1"/>
        <pt x="476" y="580" on="0"/>
        <pt x="409" y="596" on="0"/>
        <pt x="368" y="596" on="1"/>
        <pt x="325" y="596" on="0"/>
        <pt x="246" y="572" on="0"/>
        <pt x="183" y="520" on="0"/>
        <pt x="138" y="440" on="0"/>
        <pt x="129" y="385" on="1"/>
        <pt x="446" y="385" on="1"/>
        <pt x="446" y="345" on="1"/>
        <pt x="124" y="345" on="1"/>
        <pt x="124" y="318" on="1"/>
        <pt x="124" y="307" on="0"/>
        <pt x="125" y="282" on="0"/>
        <pt x="126" y="274" on="1"/>
        <pt x="446" y="274" on="1"/>
        <pt x="446" y="234" on="1"/>
        <pt x="131" y="234" on="1"/>
        <pt x="141" y="179" on="0"/>
        <pt x="188" y="103" on="0"/>
        <pt x="252" y="55" on="0"/>
        <pt x="327" y="34" on="0"/>
      </contour>
    </TTGlyph>
    <TTGlyph name="F" xMin="80" yMin="0" xMax="430" yMax="630">
      <contour>
        <pt x="430" y="630" on="1"/>
        <pt x="430" y="588" on="1"/>
        <pt x="132" y="588" on="1"/>
        <pt x="132" y="336" on="1"/>
        <pt x="408" y="336" on="1"/>
        <pt x="408" y="295" on="1"/>
        <pt x="132" y="295" on="1"/>
        <pt x="132" y="0" on="1"/>
        <pt x="80" y="0" on="1"/>
        <pt x="80" y="630" on="1"/>
      </contour>
    </TTGlyph>
    <TTGlyph name="Fa.gm" xMin="-20" yMin="-53" xMax="574" yMax="577">
      <contour>
        <pt x="-20" y="577" on="1"/>
        <pt x="574" y="577" on="1"/>
        <pt x="574" y="539" on="1"/>
        <pt x="459" y="539" on="1"/>
        <pt x="459" y="358" on="1"/>
        <pt x="222" y="358" on="1"/>
        <pt x="165" y="358" on="0"/>
        <pt x="104" y="299" on="0"/>
        <pt x="104" y="242" on="1"/>
        <pt x="104" y="194" on="0"/>
        <pt x="146" y="118" on="0"/>
        <pt x="174" y="96" on="1"/>
        <pt x="215" y="159" on="0"/>
        <pt x="314" y="227" on="0"/>
        <pt x="372" y="227" on="1"/>
        <pt x="428" y="227" on="0"/>
        <pt x="492" y="164" on="0"/>
        <pt x="492" y="120" on="1"/>
        <pt x="492" y="95" on="0"/>
        <pt x="473" y="51" on="0"/>
        <pt x="433" y="18" on="0"/>
        <pt x="373" y="-2" on="0"/>
        <pt x="331" y="-2" on="1"/>
        <pt x="277" y="-2" on="0"/>
        <pt x="178" y="32" on="0"/>
        <pt x="101" y="96" on="0"/>
        <pt x="55" y="187" on="0"/>
        <pt x="55" y="244" on="1"/>
        <pt x="55" y="318" on="0"/>
        <pt x="141" y="398" on="0"/>
        <pt x="212" y="398" on="1"/>
        <pt x="412" y="398" on="1"/>
        <pt x="412" y="539" on="1"/>
        <pt x="-20" y="539" on="1"/>
      </contour>
      <contour>
        <pt x="369" y="185" on="1"/>
        <pt x="328" y="185" on="0"/>
        <pt x="248" y="127" on="0"/>
        <pt x="211" y="69" on="1"/>
        <pt x="229" y="58" on="0"/>
        <pt x="296" y="39" on="0"/>
        <pt x="333" y="39" on="1"/>
        <pt x="387" y="39" on="0"/>
        <pt x="444" y="82" on="0"/>
        <pt x="444" y="120" on="1"/>
        <pt x="444" y="149" on="0"/>
        <pt x="401" y="185" on="0"/>
      </contour>
      <contour>
        <pt x="5" y="-13" on="1"/>
        <pt x="5" y="4" on="0"/>
        <pt x="29" y="29" on="0"/>
        <pt x="47" y="29" on="1"/>
        <pt x="65" y="29" on="0"/>
        <pt x="89" y="4" on="0"/>
        <pt x="89" y="-13" on="1"/>
        <pt x="89" y="-30" on="0"/>
        <pt x="65" y="-53" on="0"/>
        <pt x="47" y="-53" on="1"/>
        <pt x="29" y="-53" on="0"/>
        <pt x="5" y="-30" on="0"/>
      </contour>
    </TTGlyph>
    <TTGlyph name="FaVirama.gm" xMin="-20" yMin="-243" xMax="583" yMax="577">
      <contour>
        <pt x="-20" y="577" on="1"/>
        <pt x="574" y="577" on="1"/>
        <pt x="574" y="539" on="1"/>
        <pt x="459" y="539" on="1"/>
        <pt x="459" y="358" on="1"/>
        <pt x="222" y="358" on="1"/>
        <pt x="165" y="358" on="0"/>
        <pt x="104" y="299" on="0"/>
        <pt x="104" y="242" on="1"/>
        <pt x="104" y="194" on="0"/>
        <pt x="146" y="118" on="0"/>
        <pt x="174" y="96" on="1"/>
        <pt x="215" y="159" on="0"/>
        <pt x="314" y="227" on="0"/>
        <pt x="372" y="227" on="1"/>
        <pt x="428" y="227" on="0"/>
        <pt x="492" y="164" on="0"/>
        <pt x="492" y="120" on="1"/>
        <pt x="492" y="95" on="0"/>
        <pt x="473" y="51" on="0"/>
        <pt x="433" y="18" on="0"/>
        <pt x="373" y="-2" on="0"/>
        <pt x="331" y="-2" on="1"/>
        <pt x="277" y="-2" on="0"/>
        <pt x="178" y="32" on="0"/>
        <pt x="101" y="96" on="0"/>
        <pt x="55" y="187" on="0"/>
        <pt x="55" y="244" on="1"/>
        <pt x="55" y="318" on="0"/>
        <pt x="141" y="398" on="0"/>
        <pt x="212" y="398" on="1"/>
        <pt x="412" y="398" on="1"/>
        <pt x="412" y="539" on="1"/>
        <pt x="-20" y="539" on="1"/>
      </contour>
      <contour>
        <pt x="369" y="185" on="1"/>
        <pt x="328" y="185" on="0"/>
        <pt x="248" y="127" on="0"/>
        <pt x="211" y="69" on="1"/>
        <pt x="229" y="58" on="0"/>
        <pt x="296" y="39" on="0"/>
        <pt x="333" y="39" on="1"/>
        <pt x="387" y="39" on="0"/>
        <pt x="444" y="82" on="0"/>
        <pt x="444" y="120" on="1"/>
        <pt x="444" y="149" on="0"/>
        <pt x="401" y="185" on="0"/>
      </contour>
      <contour>
        <pt x="12" y="-13" on="1"/>
        <pt x="12" y="4" on="0"/>
        <pt x="36" y="29" on="0"/>
        <pt x="54" y="29" on="1"/>
        <pt x="72" y="29" on="0"/>
        <pt x="96" y="4" on="0"/>
        <pt x="96" y="-13" on="1"/>
        <pt x="96" y="-30" on="0"/>
        <pt x="72" y="-53" on="0"/>
        <pt x="54" y="-53" on="1"/>
        <pt x="36" y="-53" on="0"/>
        <pt x="12" y="-30" on="0"/>
      </contour>
      <contour>
        <pt x="583" y="-215" on="1"/>
        <pt x="558" y="-243" on="1"/>
        <pt x="376" y="-101" on="1"/>
        <pt x="407" y="-63" on="1"/>
      </contour>
    </TTGlyph>
    <TTGlyph name="Five.gm" xMin="45" yMin="0" xMax="446" yMax="581">
      <contour>
        <pt x="399" y="172" on="1"/>
        <pt x="375" y="154" on="0"/>
        <pt x="305" y="131" on="0"/>
        <pt x="256" y="131" on="1"/>
        <pt x="184" y="131" on="0"/>
        <pt x="73" y="198" on="0"/>
        <pt x="45" y="252" on="1"/>
        <pt x="76" y="299" on="0"/>
        <pt x="108" y="380" on="0"/>
        <pt x="108" y="432" on="1"/>
        <pt x="108" y="472" on="0"/>
        <pt x="89" y="542" on="0"/>
        <pt x="79" y="562" on="1"/>
        <pt x="121" y="581" on="1"/>
        <pt x="138" y="546" on="0"/>
        <pt x="157" y="464" on="0"/>
        <pt x="157" y="429" on="1"/>
        <pt x="157" y="372" on="0"/>
        <pt x="123" y="287" on="0"/>
        <pt x="100" y="253" on="1"/>
        <pt x="110" y="234" on="0"/>
        <pt x="145" y="204" on="0"/>
        <pt x="188" y="183" on="0"/>
        <pt x="236" y="171" on="0"/>
        <pt x="259" y="171" on="1"/>
        <pt x="306" y="171" on="0"/>
        <pt x="376" y="199" on="0"/>
        <pt x="399" y="223" on="1"/>
        <pt x="399" y="577" on="1"/>
        <pt x="446" y="577" on="1"/>
        <pt x="446" y="0" on="1"/>
        <pt x="399" y="0" on="1"/>
      </contour>
    </TTGlyph>
    <TTGlyph name="Four.gm" xMin="65" yMin="-2" xMax="480" yMax="579">
      <contour>
        <pt x="272" y="316" on="1"/>
        <pt x="304" y="321" on="0"/>
        <pt x="362" y="342" on="0"/>
        <pt x="407" y="373" on="0"/>
        <pt x="433" y="414" on="0"/>
        <pt x="433" y="440" on="1"/>
        <pt x="433" y="462" on="0"/>
        <pt x="418" y="494" on="0"/>
        <pt x="395" y="517" on="0"/>
        <pt x="365" y="533" on="0"/>
        <pt x="350" y="539" on="1"/>
        <pt x="366" y="579" on="1"/>
        <pt x="387" y="573" on="0"/>
        <pt x="428" y="551" on="0"/>
        <pt x="460" y="517" on="0"/>
        <pt x="480" y="471" on="0"/>
        <pt x="480" y="440" on="1"/>
        <pt x="480" y="410" on="0"/>
        <pt x="454" y="362" on="0"/>
        <pt x="414" y="328" on="0"/>
        <pt x="366" y="304" on="0"/>
        <pt x="344" y="298" on="1"/>
        <pt x="370" y="289" on="0"/>
        <pt x="416" y="263" on="0"/>
        <pt x="450" y="226" on="0"/>
        <pt x="470" y="178" on="0"/>
        <pt x="470" y="148" on="1"/>
        <pt x="470" y="115" on="0"/>
        <pt x="442" y="60" on="0"/>
        <pt x="391" y="20" on="0"/>
        <pt x="317" y="-2" on="0"/>
        <pt x="271" y="-2" on="1"/>
        <pt x="229" y="-2" on="0"/>
        <pt x="157" y="19" on="0"/>
        <pt x="104" y="58" on="0"/>
        <pt x="75" y="114" on="0"/>
        <pt x="75" y="150" on="1"/>
        <pt x="75" y="206" on="0"/>
        <pt x="139" y="279" on="0"/>
        <pt x="196" y="299" on="1"/>
        <pt x="168" y="306" on="0"/>
        <pt x="120" y="333" on="0"/>
        <pt x="85" y="370" on="0"/>
        <pt x="65" y="416" on="0"/>
        <pt x="65" y="443" on="1"/>
        <pt x="65" y="475" on="0"/>
        <pt x="87" y="523" on="0"/>
        <pt x="120" y="556" on="0"/>
        <pt x="160" y="575" on="0"/>
        <pt x="179" y="579" on="1"/>
        <pt x="193" y="539" on="1"/>
        <pt x="160" y="526" on="0"/>
        <pt x="114" y="480" on="0"/>
        <pt x="114" y="438" on="1"/>
        <pt x="114" y="389" on="0"/>
        <pt x="201" y="327" on="0"/>
      </contour>
      <contour>
        <pt x="273" y="283" on="1"/>
        <pt x="207" y="271" on="0"/>
        <pt x="123" y="207" on="0"/>
        <pt x="123" y="153" on="1"/>
        <pt x="123" y="126" on="0"/>
        <pt x="147" y="83" on="0"/>
        <pt x="188" y="54" on="0"/>
        <pt x="243" y="39" on="0"/>
        <pt x="275" y="39" on="1"/>
        <pt x="348" y="39" on="0"/>
        <pt x="422" y="104" on="0"/>
        <pt x="422" y="152" on="1"/>
        <pt x="422" y="180" on="0"/>
        <pt x="398" y="224" on="0"/>
        <pt x="358" y="256" on="0"/>
        <pt x="304" y="277" on="0"/>
      </contour>
    </TTGlyph>
    <TTGlyph name="Fsmall" xMin="68" yMin="0" xMax="336" yMax="470">
      <contour>
        <pt x="336" y="470" on="1"/>
        <pt x="336" y="432" on="1"/>
        <pt x="116" y="432" on="1"/>
        <pt x="116" y="255" on="1"/>
        <pt x="318" y="255" on="1"/>
        <pt x="318" y="217" on="1"/>
        <pt x="116" y="217" on="1"/>
        <pt x="116" y="0" on="1"/>
        <pt x="68" y="0" on="1"/>
        <pt x="68" y="470" on="1"/>
      </contour>
    </TTGlyph>
    <TTGlyph name="G" xMin="45" yMin="-8" xMax="522" yMax="638">
      <contour>
        <pt x="348" y="638" on="1"/>
        <pt x="400" y="638" on="0"/>
        <pt x="481" y="622" on="0"/>
        <pt x="517" y="602" on="1"/>
        <pt x="504" y="560" on="1"/>
        <pt x="469" y="577" on="0"/>
        <pt x="397" y="596" on="0"/>
        <pt x="359" y="596" on="1"/>
        <pt x="308" y="596" on="0"/>
        <pt x="213" y="566" on="0"/>
        <pt x="140" y="499" on="0"/>
        <pt x="97" y="392" on="0"/>
        <pt x="97" y="314" on="1"/>
        <pt x="97" y="247" on="0"/>
        <pt x="138" y="143" on="0"/>
        <pt x="208" y="71" on="0"/>
        <pt x="304" y="34" on="0"/>
        <pt x="359" y="34" on="1"/>
        <pt x="398" y="34" on="0"/>
        <pt x="457" y="45" on="0"/>
        <pt x="470" y="52" on="1"/>
        <pt x="470" y="276" on="1"/>
        <pt x="335" y="276" on="1"/>
        <pt x="335" y="317" on="1"/>
        <pt x="522" y="317" on="1"/>
        <pt x="522" y="23" on="1"/>
        <pt x="489" y="9" on="0"/>
        <pt x="411" y="-8" on="0"/>
        <pt x="354" y="-8" on="1"/>
        <pt x="291" y="-8" on="0"/>
        <pt x="179" y="34" on="0"/>
        <pt x="94" y="115" on="0"/>
        <pt x="45" y="235" on="0"/>
        <pt x="45" y="314" on="1"/>
        <pt x="45" y="393" on="0"/>
        <pt x="91" y="515" on="0"/>
        <pt x="172" y="596" on="0"/>
        <pt x="283" y="638" on="0"/>
      </contour>
    </TTGlyph>
    <TTGlyph name="Ga.gm" xMin="-20" yMin="0" xMax="728" yMax="577">
      <contour>
        <pt x="-20" y="577" on="1"/>
        <pt x="728" y="577" on="1"/>
        <pt x="728" y="539" on="1"/>
        <pt x="610" y="539" on="1"/>
        <pt x="610" y="0" on="1"/>
        <pt x="563" y="0" on="1"/>
        <pt x="563" y="539" on="1"/>
        <pt x="385" y="539" on="1"/>
        <pt x="385" y="113" on="1"/>
        <pt x="385" y="58" on="0"/>
        <pt x="317" y="0" on="0"/>
        <pt x="257" y="0" on="1"/>
        <pt x="215" y="0" on="0"/>
        <pt x="138" y="34" on="0"/>
        <pt x="79" y="94" on="0"/>
        <pt x="43" y="177" on="0"/>
        <pt x="43" y="227" on="1"/>
        <pt x="43" y="290" on="0"/>
        <pt x="116" y="364" on="0"/>
        <pt x="182" y="364" on="1"/>
        <pt x="338" y="364" on="1"/>
        <pt x="338" y="539" on="1"/>
        <pt x="-20" y="539" on="1"/>
      </contour>
      <contour>
        <pt x="257" y="41" on="1"/>
        <pt x="294" y="41" on="0"/>
        <pt x="338" y="75" on="0"/>
        <pt x="338" y="115" on="1"/>
        <pt x="338" y="324" on="1"/>
        <pt x="193" y="324" on="1"/>
        <pt x="144" y="324" on="0"/>
        <pt x="92" y="274" on="0"/>
        <pt x="92" y="225" on="1"/>
        <pt x="92" y="184" on="0"/>
        <pt x="121" y="116" on="0"/>
        <pt x="168" y="68" on="0"/>
        <pt x="227" y="41" on="0"/>
      </contour>
    </TTGlyph>
    <TTGlyph name="GaVirama.gm" xMin="-20" yMin="-243" xMax="777" yMax="577">
      <contour>
        <pt x="-20" y="577" on="1"/>
        <pt x="728" y="577" on="1"/>
        <pt x="728" y="539" on="1"/>
        <pt x="610" y="539" on="1"/>
        <pt x="610" y="0" on="1"/>
        <pt x="563" y="0" on="1"/>
        <pt x="563" y="539" on="1"/>
        <pt x="385" y="539" on="1"/>
        <pt x="385" y="113" on="1"/>
        <pt x="385" y="58" on="0"/>
        <pt x="317" y="0" on="0"/>
        <pt x="257" y="0" on="1"/>
        <pt x="215" y="0" on="0"/>
        <pt x="138" y="34" on="0"/>
        <pt x="79" y="94" on="0"/>
        <pt x="43" y="177" on="0"/>
        <pt x="43" y="227" on="1"/>
        <pt x="43" y="290" on="0"/>
        <pt x="116" y="364" on="0"/>
        <pt x="182" y="364" on="1"/>
        <pt x="338" y="364" on="1"/>
        <pt x="338" y="539" on="1"/>
        <pt x="-20" y="539" on="1"/>
      </contour>
      <contour>
        <pt x="257" y="41" on="1"/>
        <pt x="294" y="41" on="0"/>
        <pt x="338" y="75" on="0"/>
        <pt x="338" y="115" on="1"/>
        <pt x="338" y="324" on="1"/>
        <pt x="193" y="324" on="1"/>
        <pt x="144" y="324" on="0"/>
        <pt x="92" y="274" on="0"/>
        <pt x="92" y="225" on="1"/>
        <pt x="92" y="184" on="0"/>
        <pt x="121" y="116" on="0"/>
        <pt x="168" y="68" on="0"/>
        <pt x="227" y="41" on="0"/>
      </contour>
      <contour>
        <pt x="777" y="-215" on="1"/>
        <pt x="752" y="-243" on="1"/>
        <pt x="570" y="-101" on="1"/>
        <pt x="601" y="-63" on="1"/>
      </contour>
    </TTGlyph>
    <TTGlyph name="Gbreve" xMin="45" yMin="-8" xMax="522" yMax="846">
      <contour>
        <pt x="348" y="638" on="1"/>
        <pt x="400" y="638" on="0"/>
        <pt x="481" y="622" on="0"/>
        <pt x="517" y="602" on="1"/>
        <pt x="504" y="560" on="1"/>
        <pt x="469" y="577" on="0"/>
        <pt x="397" y="596" on="0"/>
        <pt x="359" y="596" on="1"/>
        <pt x="308" y="596" on="0"/>
        <pt x="213" y="566" on="0"/>
        <pt x="140" y="499" on="0"/>
        <pt x="97" y="392" on="0"/>
        <pt x="97" y="314" on="1"/>
        <pt x="97" y="247" on="0"/>
        <pt x="138" y="143" on="0"/>
        <pt x="208" y="71" on="0"/>
        <pt x="304" y="34" on="0"/>
        <pt x="359" y="34" on="1"/>
        <pt x="398" y="34" on="0"/>
        <pt x="457" y="45" on="0"/>
        <pt x="470" y="52" on="1"/>
        <pt x="470" y="276" on="1"/>
        <pt x="335" y="276" on="1"/>
        <pt x="335" y="317" on="1"/>
        <pt x="522" y="317" on="1"/>
        <pt x="522" y="23" on="1"/>
        <pt x="489" y="9" on="0"/>
        <pt x="411" y="-8" on="0"/>
        <pt x="354" y="-8" on="1"/>
        <pt x="291" y="-8" on="0"/>
        <pt x="179" y="34" on="0"/>
        <pt x="94" y="115" on="0"/>
        <pt x="45" y="235" on="0"/>
        <pt x="45" y="314" on="1"/>
        <pt x="45" y="393" on="0"/>
        <pt x="91" y="515" on="0"/>
        <pt x="172" y="596" on="0"/>
        <pt x="283" y="638" on="0"/>
      </contour>
      <contour>
        <pt x="261" y="846" on="1"/>
        <pt x="262" y="808" on="0"/>
        <pt x="302" y="762" on="0"/>
        <pt x="349" y="762" on="1"/>
        <pt x="388" y="762" on="0"/>
        <pt x="433" y="806" on="0"/>
        <pt x="434" y="846" on="1"/>
        <pt x="482" y="846" on="1"/>
        <pt x="482" y="792" on="0"/>
        <pt x="414" y="722" on="0"/>
        <pt x="349" y="722" on="1"/>
        <pt x="313" y="722" on="0"/>
        <pt x="262" y="742" on="0"/>
        <pt x="229" y="777" on="0"/>
        <pt x="213" y="822" on="0"/>
        <pt x="213" y="846" on="1"/>
      </contour>
    </TTGlyph>
    <TTGlyph name="Gcircumflex" xMin="45" yMin="-8" xMax="522" yMax="844">
      <contour>
        <pt x="348" y="638" on="1"/>
        <pt x="400" y="638" on="0"/>
        <pt x="481" y="622" on="0"/>
        <pt x="517" y="602" on="1"/>
        <pt x="504" y="560" on="1"/>
        <pt x="469" y="577" on="0"/>
        <pt x="397" y="596" on="0"/>
        <pt x="359" y="596" on="1"/>
        <pt x="308" y="596" on="0"/>
        <pt x="213" y="566" on="0"/>
        <pt x="140" y="499" on="0"/>
        <pt x="97" y="392" on="0"/>
        <pt x="97" y="314" on="1"/>
        <pt x="97" y="247" on="0"/>
        <pt x="138" y="143" on="0"/>
        <pt x="208" y="71" on="0"/>
        <pt x="304" y="34" on="0"/>
        <pt x="359" y="34" on="1"/>
        <pt x="398" y="34" on="0"/>
        <pt x="457" y="45" on="0"/>
        <pt x="470" y="52" on="1"/>
        <pt x="470" y="276" on="1"/>
        <pt x="335" y="276" on="1"/>
        <pt x="335" y="317" on="1"/>
        <pt x="522" y="317" on="1"/>
        <pt x="522" y="23" on="1"/>
        <pt x="489" y="9" on="0"/>
        <pt x="411" y="-8" on="0"/>
        <pt x="354" y="-8" on="1"/>
        <pt x="291" y="-8" on="0"/>
        <pt x="179" y="34" on="0"/>
        <pt x="94" y="115" on="0"/>
        <pt x="45" y="235" on="0"/>
        <pt x="45" y="314" on="1"/>
        <pt x="45" y="393" on="0"/>
        <pt x="91" y="515" on="0"/>
        <pt x="172" y="596" on="0"/>
        <pt x="283" y="638" on="0"/>
      </contour>
      <contour>
        <pt x="324" y="844" on="1"/>
        <pt x="373" y="844" on="1"/>
        <pt x="498" y="710" on="1"/>
        <pt x="438" y="710" on="1"/>
        <pt x="348" y="809" on="1"/>
        <pt x="258" y="710" on="1"/>
        <pt x="202" y="710" on="1"/>
      </contour>
    </TTGlyph>
    <TTGlyph name="Gcommaaccent" xMin="45" yMin="-303" xMax="522" yMax="638">
      <contour>
        <pt x="348" y="638" on="1"/>
        <pt x="400" y="638" on="0"/>
        <pt x="481" y="622" on="0"/>
        <pt x="517" y="602" on="1"/>
        <pt x="504" y="560" on="1"/>
        <pt x="469" y="577" on="0"/>
        <pt x="397" y="596" on="0"/>
        <pt x="359" y="596" on="1"/>
        <pt x="308" y="596" on="0"/>
        <pt x="213" y="566" on="0"/>
        <pt x="140" y="499" on="0"/>
        <pt x="97" y="392" on="0"/>
        <pt x="97" y="314" on="1"/>
        <pt x="97" y="247" on="0"/>
        <pt x="138" y="143" on="0"/>
        <pt x="208" y="71" on="0"/>
        <pt x="304" y="34" on="0"/>
        <pt x="359" y="34" on="1"/>
        <pt x="398" y="34" on="0"/>
        <pt x="457" y="45" on="0"/>
        <pt x="470" y="52" on="1"/>
        <pt x="470" y="276" on="1"/>
        <pt x="335" y="276" on="1"/>
        <pt x="335" y="317" on="1"/>
        <pt x="522" y="317" on="1"/>
        <pt x="522" y="23" on="1"/>
        <pt x="489" y="9" on="0"/>
        <pt x="411" y="-8" on="0"/>
        <pt x="354" y="-8" on="1"/>
        <pt x="291" y="-8" on="0"/>
        <pt x="179" y="34" on="0"/>
        <pt x="94" y="115" on="0"/>
        <pt x="45" y="235" on="0"/>
        <pt x="45" y="314" on="1"/>
        <pt x="45" y="393" on="0"/>
        <pt x="91" y="515" on="0"/>
        <pt x="172" y="596" on="0"/>
        <pt x="283" y="638" on="0"/>
      </contour>
      <contour>
        <pt x="348" y="-186" on="1"/>
        <pt x="331" y="-183" on="0"/>
        <pt x="308" y="-159" on="0"/>
        <pt x="308" y="-138" on="1"/>
        <pt x="308" y="-120" on="0"/>
        <pt x="331" y="-96" on="0"/>
        <pt x="349" y="-96" on="1"/>
        <pt x="365" y="-96" on="0"/>
        <pt x="397" y="-123" on="0"/>
        <pt x="397" y="-162" on="1"/>
        <pt x="397" y="-185" on="0"/>
        <pt x="381" y="-227" on="0"/>
        <pt x="354" y="-264" on="0"/>
        <pt x="319" y="-293" on="0"/>
        <pt x="300" y="-303" on="1"/>
        <pt x="280" y="-275" on="1"/>
        <pt x="310" y="-260" on="0"/>
        <pt x="348" y="-212" on="0"/>
        <pt x="353" y="-187" on="1"/>
      </contour>
    </TTGlyph>
    <TTGlyph name="Gdotaccent" xMin="45" yMin="-8" xMax="522" yMax="822">
      <contour>
        <pt x="348" y="638" on="1"/>
        <pt x="400" y="638" on="0"/>
        <pt x="481" y="622" on="0"/>
        <pt x="517" y="602" on="1"/>
        <pt x="504" y="560" on="1"/>
        <pt x="469" y="577" on="0"/>
        <pt x="397" y="596" on="0"/>
        <pt x="359" y="596" on="1"/>
        <pt x="308" y="596" on="0"/>
        <pt x="213" y="566" on="0"/>
        <pt x="140" y="499" on="0"/>
        <pt x="97" y="392" on="0"/>
        <pt x="97" y="314" on="1"/>
        <pt x="97" y="247" on="0"/>
        <pt x="138" y="143" on="0"/>
        <pt x="208" y="71" on="0"/>
        <pt x="304" y="34" on="0"/>
        <pt x="359" y="34" on="1"/>
        <pt x="398" y="34" on="0"/>
        <pt x="457" y="45" on="0"/>
        <pt x="470" y="52" on="1"/>
        <pt x="470" y="276" on="1"/>
        <pt x="335" y="276" on="1"/>
        <pt x="335" y="317" on="1"/>
        <pt x="522" y="317" on="1"/>
        <pt x="522" y="23" on="1"/>
        <pt x="489" y="9" on="0"/>
        <pt x="411" y="-8" on="0"/>
        <pt x="354" y="-8" on="1"/>
        <pt x="291" y="-8" on="0"/>
        <pt x="179" y="34" on="0"/>
        <pt x="94" y="115" on="0"/>
        <pt x="45" y="235" on="0"/>
        <pt x="45" y="314" on="1"/>
        <pt x="45" y="393" on="0"/>
        <pt x="91" y="515" on="0"/>
        <pt x="172" y="596" on="0"/>
        <pt x="283" y="638" on="0"/>
      </contour>
      <contour>
        <pt x="310" y="778" on="1"/>
        <pt x="310" y="798" on="0"/>
        <pt x="333" y="822" on="0"/>
        <pt x="350" y="822" on="1"/>
        <pt x="367" y="822" on="0"/>
        <pt x="390" y="798" on="0"/>
        <pt x="390" y="778" on="1"/>
        <pt x="390" y="757" on="0"/>
        <pt x="367" y="734" on="0"/>
        <pt x="350" y="734" on="1"/>
        <pt x="333" y="734" on="0"/>
        <pt x="310" y="757" on="0"/>
      </contour>
    </TTGlyph>
    <TTGlyph name="Gha.gm" xMin="-30" yMin="0" xMax="728" yMax="580">
      <contour>
        <pt x="126" y="577" on="1"/>
        <pt x="140" y="553" on="0"/>
        <pt x="165" y="476" on="0"/>
        <pt x="165" y="433" on="1"/>
        <pt x="165" y="369" on="0"/>
        <pt x="135" y="278" on="0"/>
        <pt x="112" y="233" on="1"/>
        <pt x="123" y="207" on="0"/>
        <pt x="184" y="165" on="0"/>
        <pt x="227" y="165" on="1"/>
        <pt x="246" y="165" on="0"/>
        <pt x="281" y="175" on="0"/>
        <pt x="309" y="193" on="0"/>
        <pt x="327" y="219" on="0"/>
        <pt x="329" y="234" on="1"/>
        <pt x="321" y="572" on="1"/>
        <pt x="327" y="577" on="0"/>
        <pt x="344" y="580" on="0"/>
        <pt x="350" y="580" on="1"/>
        <pt x="361" y="580" on="0"/>
        <pt x="377" y="567" on="0"/>
        <pt x="377" y="552" on="1"/>
        <pt x="377" y="547" on="0"/>
        <pt x="377" y="514" on="0"/>
        <pt x="376" y="467" on="0"/>
        <pt x="375" y="410" on="0"/>
        <pt x="375" y="382" on="1"/>
        <pt x="374" y="315" on="0"/>
        <pt x="373" y="233" on="1"/>
        <pt x="378" y="205" on="0"/>
        <pt x="438" y="165" on="0"/>
        <pt x="476" y="165" on="1"/>
        <pt x="505" y="165" on="0"/>
        <pt x="552" y="188" on="0"/>
        <pt x="563" y="208" on="1"/>
        <pt x="563" y="577" on="1"/>
        <pt x="728" y="577" on="1"/>
        <pt x="728" y="539" on="1"/>
        <pt x="610" y="539" on="1"/>
        <pt x="610" y="0" on="1"/>
        <pt x="563" y="0" on="1"/>
        <pt x="563" y="155" on="1"/>
        <pt x="529" y="124" on="0"/>
        <pt x="473" y="124" on="1"/>
        <pt x="434" y="124" on="0"/>
        <pt x="369" y="160" on="0"/>
        <pt x="352" y="188" on="1"/>
        <pt x="336" y="160" on="0"/>
        <pt x="270" y="124" on="0"/>
        <pt x="226" y="124" on="1"/>
        <pt x="166" y="124" on="0"/>
        <pt x="79" y="183" on="0"/>
        <pt x="59" y="233" on="1"/>
        <pt x="90" y="287" on="0"/>
        <pt x="117" y="384" on="0"/>
        <pt x="117" y="436" on="1"/>
        <pt x="117" y="468" on="0"/>
        <pt x="103" y="521" on="0"/>
        <pt x="95" y="539" on="1"/>
        <pt x="-30" y="539" on="1"/>
        <pt x="-30" y="577" on="1"/>
        <pt x="126" y="577" on="1"/>
      </contour>
    </TTGlyph>
    <TTGlyph name="GhaVirama.gm" xMin="-30" yMin="-243" xMax="748" yMax="580">
      <contour>
        <pt x="126" y="577" on="1"/>
        <pt x="140" y="553" on="0"/>
        <pt x="165" y="476" on="0"/>
        <pt x="165" y="433" on="1"/>
        <pt x="165" y="369" on="0"/>
        <pt x="135" y="278" on="0"/>
        <pt x="112" y="233" on="1"/>
        <pt x="123" y="207" on="0"/>
        <pt x="184" y="165" on="0"/>
        <pt x="227" y="165" on="1"/>
        <pt x="246" y="165" on="0"/>
        <pt x="281" y="175" on="0"/>
        <pt x="309" y="193" on="0"/>
        <pt x="327" y="219" on="0"/>
        <pt x="329" y="234" on="1"/>
        <pt x="321" y="572" on="1"/>
        <pt x="327" y="577" on="0"/>
        <pt x="344" y="580" on="0"/>
        <pt x="350" y="580" on="1"/>
        <pt x="361" y="580" on="0"/>
        <pt x="377" y="567" on="0"/>
        <pt x="377" y="552" on="1"/>
        <pt x="377" y="547" on="0"/>
        <pt x="377" y="514" on="0"/>
        <pt x="376" y="467" on="0"/>
        <pt x="375" y="410" on="0"/>
        <pt x="375" y="382" on="1"/>
        <pt x="374" y="315" on="0"/>
        <pt x="373" y="233" on="1"/>
        <pt x="378" y="205" on="0"/>
        <pt x="438" y="165" on="0"/>
        <pt x="476" y="165" on="1"/>
        <pt x="505" y="165" on="0"/>
        <pt x="552" y="188" on="0"/>
        <pt x="563" y="208" on="1"/>
        <pt x="563" y="577" on="1"/>
        <pt x="728" y="577" on="1"/>
        <pt x="728" y="539" on="1"/>
        <pt x="610" y="539" on="1"/>
        <pt x="610" y="0" on="1"/>
        <pt x="563" y="0" on="1"/>
        <pt x="563" y="155" on="1"/>
        <pt x="529" y="124" on="0"/>
        <pt x="473" y="124" on="1"/>
        <pt x="434" y="124" on="0"/>
        <pt x="369" y="160" on="0"/>
        <pt x="352" y="188" on="1"/>
        <pt x="336" y="160" on="0"/>
        <pt x="270" y="124" on="0"/>
        <pt x="226" y="124" on="1"/>
        <pt x="166" y="124" on="0"/>
        <pt x="79" y="183" on="0"/>
        <pt x="59" y="233" on="1"/>
        <pt x="90" y="287" on="0"/>
        <pt x="117" y="384" on="0"/>
        <pt x="117" y="436" on="1"/>
        <pt x="117" y="468" on="0"/>
        <pt x="103" y="521" on="0"/>
        <pt x="95" y="539" on="1"/>
        <pt x="-30" y="539" on="1"/>
        <pt x="-30" y="577" on="1"/>
      </contour>
      <contour>
        <pt x="748" y="-215" on="1"/>
        <pt x="723" y="-243" on="1"/>
        <pt x="541" y="-101" on="1"/>
        <pt x="572" y="-63" on="1"/>
      </contour>
    </TTGlyph>
    <TTGlyph name="Ghha.gm" xMin="-30" yMin="-53" xMax="718" yMax="577">
      <contour>
        <pt x="-30" y="577" on="1"/>
        <pt x="718" y="577" on="1"/>
        <pt x="718" y="539" on="1"/>
        <pt x="600" y="539" on="1"/>
        <pt x="600" y="0" on="1"/>
        <pt x="553" y="0" on="1"/>
        <pt x="553" y="539" on="1"/>
        <pt x="375" y="539" on="1"/>
        <pt x="375" y="113" on="1"/>
        <pt x="375" y="58" on="0"/>
        <pt x="307" y="0" on="0"/>
        <pt x="247" y="0" on="1"/>
        <pt x="205" y="0" on="0"/>
        <pt x="128" y="34" on="0"/>
        <pt x="69" y="94" on="0"/>
        <pt x="33" y="177" on="0"/>
        <pt x="33" y="227" on="1"/>
        <pt x="33" y="290" on="0"/>
        <pt x="106" y="364" on="0"/>
        <pt x="172" y="364" on="1"/>
        <pt x="328" y="364" on="1"/>
        <pt x="328" y="539" on="1"/>
        <pt x="-30" y="539" on="1"/>
      </contour>
      <contour>
        <pt x="247" y="41" on="1"/>
        <pt x="284" y="41" on="0"/>
        <pt x="328" y="75" on="0"/>
        <pt x="328" y="115" on="1"/>
        <pt x="328" y="324" on="1"/>
        <pt x="183" y="324" on="1"/>
        <pt x="134" y="324" on="0"/>
        <pt x="82" y="274" on="0"/>
        <pt x="82" y="225" on="1"/>
        <pt x="82" y="184" on="0"/>
        <pt x="111" y="116" on="0"/>
        <pt x="158" y="68" on="0"/>
        <pt x="217" y="41" on="0"/>
      </contour>
      <contour>
        <pt x="-5" y="-13" on="1"/>
        <pt x="-5" y="4" on="0"/>
        <pt x="19" y="29" on="0"/>
        <pt x="37" y="29" on="1"/>
        <pt x="55" y="29" on="0"/>
        <pt x="79" y="4" on="0"/>
        <pt x="79" y="-13" on="1"/>
        <pt x="79" y="-30" on="0"/>
        <pt x="55" y="-53" on="0"/>
        <pt x="37" y="-53" on="1"/>
        <pt x="19" y="-53" on="0"/>
        <pt x="-5" y="-30" on="0"/>
      </contour>
    </TTGlyph>
    <TTGlyph name="GhhaVirama.gm" xMin="-30" yMin="-243" xMax="800" yMax="577">
      <contour>
        <pt x="-30" y="577" on="1"/>
        <pt x="718" y="577" on="1"/>
        <pt x="718" y="539" on="1"/>
        <pt x="600" y="539" on="1"/>
        <pt x="600" y="0" on="1"/>
        <pt x="553" y="0" on="1"/>
        <pt x="553" y="539" on="1"/>
        <pt x="375" y="539" on="1"/>
        <pt x="375" y="113" on="1"/>
        <pt x="375" y="58" on="0"/>
        <pt x="307" y="0" on="0"/>
        <pt x="247" y="0" on="1"/>
        <pt x="205" y="0" on="0"/>
        <pt x="128" y="34" on="0"/>
        <pt x="69" y="94" on="0"/>
        <pt x="33" y="177" on="0"/>
        <pt x="33" y="227" on="1"/>
        <pt x="33" y="290" on="0"/>
        <pt x="106" y="364" on="0"/>
        <pt x="172" y="364" on="1"/>
        <pt x="328" y="364" on="1"/>
        <pt x="328" y="539" on="1"/>
        <pt x="-30" y="539" on="1"/>
      </contour>
      <contour>
        <pt x="247" y="41" on="1"/>
        <pt x="284" y="41" on="0"/>
        <pt x="328" y="75" on="0"/>
        <pt x="328" y="115" on="1"/>
        <pt x="328" y="324" on="1"/>
        <pt x="183" y="324" on="1"/>
        <pt x="134" y="324" on="0"/>
        <pt x="82" y="274" on="0"/>
        <pt x="82" y="225" on="1"/>
        <pt x="82" y="184" on="0"/>
        <pt x="111" y="116" on="0"/>
        <pt x="158" y="68" on="0"/>
        <pt x="217" y="41" on="0"/>
      </contour>
      <contour>
        <pt x="800" y="-215" on="1"/>
        <pt x="775" y="-243" on="1"/>
        <pt x="593" y="-101" on="1"/>
        <pt x="624" y="-63" on="1"/>
      </contour>
      <contour>
        <pt x="-5" y="-13" on="1"/>
        <pt x="-5" y="4" on="0"/>
        <pt x="19" y="29" on="0"/>
        <pt x="37" y="29" on="1"/>
        <pt x="55" y="29" on="0"/>
        <pt x="79" y="4" on="0"/>
        <pt x="79" y="-13" on="1"/>
        <pt x="79" y="-30" on="0"/>
        <pt x="55" y="-53" on="0"/>
        <pt x="37" y="-53" on="1"/>
        <pt x="19" y="-53" on="0"/>
        <pt x="-5" y="-30" on="0"/>
      </contour>
    </TTGlyph>
    <TTGlyph name="Gsmall" xMin="39" yMin="-8" xMax="424" yMax="476">
      <contour>
        <pt x="287" y="30" on="1"/>
        <pt x="311" y="30" on="0"/>
        <pt x="364" y="38" on="0"/>
        <pt x="381" y="46" on="1"/>
        <pt x="381" y="205" on="1"/>
        <pt x="265" y="205" on="1"/>
        <pt x="265" y="240" on="1"/>
        <pt x="424" y="240" on="1"/>
        <pt x="424" y="20" on="1"/>
        <pt x="395" y="6" on="0"/>
        <pt x="323" y="-8" on="0"/>
        <pt x="284" y="-8" on="1"/>
        <pt x="233" y="-8" on="0"/>
        <pt x="144" y="22" on="0"/>
        <pt x="78" y="82" on="0"/>
        <pt x="39" y="173" on="0"/>
        <pt x="39" y="234" on="1"/>
        <pt x="39" y="290" on="0"/>
        <pt x="75" y="380" on="0"/>
        <pt x="139" y="443" on="0"/>
        <pt x="228" y="476" on="0"/>
        <pt x="282" y="476" on="1"/>
        <pt x="313" y="476" on="0"/>
        <pt x="378" y="468" on="0"/>
        <pt x="407" y="455" on="1"/>
        <pt x="396" y="418" on="1"/>
        <pt x="370" y="428" on="0"/>
        <pt x="320" y="437" on="0"/>
        <pt x="287" y="437" on="1"/>
        <pt x="196" y="437" on="0"/>
        <pt x="89" y="333" on="0"/>
        <pt x="89" y="237" on="1"/>
        <pt x="89" y="177" on="0"/>
        <pt x="123" y="98" on="0"/>
        <pt x="178" y="50" on="0"/>
        <pt x="249" y="30" on="0"/>
      </contour>
    </TTGlyph>
    <TTGlyph name="H" xMin="80" yMin="0" xMax="523" yMax="630">
      <contour>
        <pt x="80" y="0" on="1"/>
        <pt x="80" y="630" on="1"/>
        <pt x="132" y="630" on="1"/>
        <pt x="132" y="347" on="1"/>
        <pt x="471" y="347" on="1"/>
        <pt x="471" y="630" on="1"/>
        <pt x="523" y="630" on="1"/>
        <pt x="523" y="0" on="1"/>
        <pt x="471" y="0" on="1"/>
        <pt x="471" y="305" on="1"/>
        <pt x="132" y="305" on="1"/>
        <pt x="132" y="0" on="1"/>
      </contour>
    </TTGlyph>
    <TTGlyph name="Ha.gm" xMin="-20" yMin="-2" xMax="555" yMax="577">
      <contour>
        <pt x="-20" y="577" on="1"/>
        <pt x="555" y="577" on="1"/>
        <pt x="555" y="539" on="1"/>
        <pt x="442" y="539" on="1"/>
        <pt x="442" y="142" on="1"/>
        <pt x="442" y="67" on="0"/>
        <pt x="355" y="-2" on="0"/>
        <pt x="285" y="-2" on="1"/>
        <pt x="235" y="-2" on="0"/>
        <pt x="147" y="36" on="0"/>
        <pt x="82" y="99" on="0"/>
        <pt x="45" y="183" on="0"/>
        <pt x="45" y="230" on="1"/>
        <pt x="45" y="263" on="0"/>
        <pt x="66" y="312" on="0"/>
        <pt x="104" y="344" on="0"/>
        <pt x="154" y="360" on="0"/>
        <pt x="183" y="360" on="1"/>
        <pt x="253" y="360" on="1"/>
        <pt x="253" y="320" on="1"/>
        <pt x="190" y="320" on="1"/>
        <pt x="145" y="320" on="0"/>
        <pt x="94" y="275" on="0"/>
        <pt x="94" y="230" on="1"/>
        <pt x="94" y="191" on="0"/>
        <pt x="126" y="121" on="0"/>
        <pt x="180" y="69" on="0"/>
        <pt x="250" y="39" on="0"/>
        <pt x="288" y="39" on="1"/>
        <pt x="336" y="39" on="0"/>
        <pt x="395" y="89" on="0"/>
        <pt x="395" y="142" on="1"/>
        <pt x="395" y="539" on="1"/>
        <pt x="-20" y="539" on="1"/>
      </contour>
    </TTGlyph>
    <TTGlyph name="HaVirama.gm" xMin="-20" yMin="-243" xMax="558" yMax="577">
      <contour>
        <pt x="-20" y="577" on="1"/>
        <pt x="555" y="577" on="1"/>
        <pt x="555" y="539" on="1"/>
        <pt x="442" y="539" on="1"/>
        <pt x="442" y="142" on="1"/>
        <pt x="442" y="67" on="0"/>
        <pt x="355" y="-2" on="0"/>
        <pt x="285" y="-2" on="1"/>
        <pt x="235" y="-2" on="0"/>
        <pt x="147" y="36" on="0"/>
        <pt x="82" y="99" on="0"/>
        <pt x="45" y="183" on="0"/>
        <pt x="45" y="230" on="1"/>
        <pt x="45" y="263" on="0"/>
        <pt x="66" y="312" on="0"/>
        <pt x="104" y="344" on="0"/>
        <pt x="154" y="360" on="0"/>
        <pt x="183" y="360" on="1"/>
        <pt x="253" y="360" on="1"/>
        <pt x="253" y="320" on="1"/>
        <pt x="190" y="320" on="1"/>
        <pt x="145" y="320" on="0"/>
        <pt x="94" y="275" on="0"/>
        <pt x="94" y="230" on="1"/>
        <pt x="94" y="191" on="0"/>
        <pt x="126" y="121" on="0"/>
        <pt x="180" y="69" on="0"/>
        <pt x="250" y="39" on="0"/>
        <pt x="288" y="39" on="1"/>
        <pt x="336" y="39" on="0"/>
        <pt x="395" y="89" on="0"/>
        <pt x="395" y="142" on="1"/>
        <pt x="395" y="539" on="1"/>
        <pt x="-20" y="539" on="1"/>
      </contour>
      <contour>
        <pt x="558" y="-215" on="1"/>
        <pt x="533" y="-243" on="1"/>
        <pt x="351" y="-101" on="1"/>
        <pt x="382" y="-63" on="1"/>
      </contour>
    </TTGlyph>
    <TTGlyph name="Hbar" xMin="20" yMin="0" xMax="623" yMax="630">
      <contour>
        <pt x="623" y="530" on="1"/>
        <pt x="623" y="488" on="1"/>
        <pt x="543" y="488" on="1"/>
        <pt x="543" y="0" on="1"/>
        <pt x="491" y="0" on="1"/>
        <pt x="491" y="305" on="1"/>
        <pt x="152" y="305" on="1"/>
        <pt x="152" y="0" on="1"/>
        <pt x="100" y="0" on="1"/>
        <pt x="100" y="488" on="1"/>
        <pt x="20" y="488" on="1"/>
        <pt x="20" y="530" on="1"/>
        <pt x="100" y="530" on="1"/>
        <pt x="100" y="630" on="1"/>
        <pt x="152" y="630" on="1"/>
        <pt x="152" y="530" on="1"/>
        <pt x="491" y="530" on="1"/>
        <pt x="491" y="630" on="1"/>
        <pt x="543" y="630" on="1"/>
        <pt x="543" y="530" on="1"/>
      </contour>
      <contour>
        <pt x="491" y="347" on="1"/>
        <pt x="491" y="488" on="1"/>
        <pt x="152" y="488" on="1"/>
        <pt x="152" y="347" on="1"/>
      </contour>
    </TTGlyph>
    <TTGlyph name="Hcircumflex" xMin="80" yMin="0" xMax="523" yMax="844">
      <contour>
        <pt x="80" y="0" on="1"/>
        <pt x="80" y="630" on="1"/>
        <pt x="132" y="630" on="1"/>
        <pt x="132" y="347" on="1"/>
        <pt x="471" y="347" on="1"/>
        <pt x="471" y="630" on="1"/>
        <pt x="523" y="630" on="1"/>
        <pt x="523" y="0" on="1"/>
        <pt x="471" y="0" on="1"/>
        <pt x="471" y="305" on="1"/>
        <pt x="132" y="305" on="1"/>
        <pt x="132" y="0" on="1"/>
      </contour>
      <contour>
        <pt x="277" y="844" on="1"/>
        <pt x="326" y="844" on="1"/>
        <pt x="451" y="710" on="1"/>
        <pt x="391" y="710" on="1"/>
        <pt x="301" y="809" on="1"/>
        <pt x="211" y="710" on="1"/>
        <pt x="155" y="710" on="1"/>
      </contour>
    </TTGlyph>
    <TTGlyph name="Hsmall" xMin="68" yMin="0" xMax="404" yMax="470">
      <contour>
        <pt x="68" y="0" on="1"/>
        <pt x="68" y="470" on="1"/>
        <pt x="116" y="470" on="1"/>
        <pt x="116" y="266" on="1"/>
        <pt x="356" y="266" on="1"/>
        <pt x="356" y="470" on="1"/>
        <pt x="404" y="470" on="1"/>
        <pt x="404" y="0" on="1"/>
        <pt x="356" y="0" on="1"/>
        <pt x="356" y="228" on="1"/>
        <pt x="116" y="228" on="1"/>
        <pt x="116" y="0" on="1"/>
      </contour>
    </TTGlyph>
    <TTGlyph name="I" xMin="80" yMin="0" xMax="132" yMax="630">
      <contour>
        <pt x="132" y="630" on="1"/>
        <pt x="132" y="0" on="1"/>
        <pt x="80" y="0" on="1"/>
        <pt x="80" y="630" on="1"/>
      </contour>
    </TTGlyph>
    <TTGlyph name="IJ" xMin="80" yMin="-135" xMax="376" yMax="630">
      <contour>
        <pt x="132" y="630" on="1"/>
        <pt x="132" y="0" on="1"/>
        <pt x="80" y="0" on="1"/>
        <pt x="80" y="630" on="1"/>
      </contour>
      <contour>
        <pt x="376" y="630" on="1"/>
        <pt x="376" y="104" on="1"/>
        <pt x="376" y="42" on="0"/>
        <pt x="362" y="-32" on="0"/>
        <pt x="343" y="-61" on="1"/>
        <pt x="329" y="-82" on="0"/>
        <pt x="292" y="-110" on="0"/>
        <pt x="250" y="-127" on="0"/>
        <pt x="205" y="-135" on="0"/>
        <pt x="184" y="-135" on="1"/>
        <pt x="184" y="-98" on="1"/>
        <pt x="243" y="-97" on="0"/>
        <pt x="280" y="-66" on="1"/>
        <pt x="306" y="-43" on="0"/>
        <pt x="324" y="26" on="0"/>
        <pt x="324" y="69" on="1"/>
        <pt x="324" y="630" on="1"/>
      </contour>
    </TTGlyph>
    <TTGlyph name="Iacute" xMin="80" yMin="0" xMax="233" yMax="834">
      <contour>
        <pt x="132" y="630" on="1"/>
        <pt x="132" y="0" on="1"/>
        <pt x="80" y="0" on="1"/>
        <pt x="80" y="630" on="1"/>
      </contour>
      <contour>
        <pt x="122" y="710" on="1"/>
        <pt x="80" y="710" on="1"/>
        <pt x="170" y="834" on="1"/>
        <pt x="233" y="834" on="1"/>
      </contour>
    </TTGlyph>
    <TTGlyph name="Ibreve" xMin="-30" yMin="0" xMax="239" yMax="834">
      <contour>
        <pt x="132" y="630" on="1"/>
        <pt x="132" y="0" on="1"/>
        <pt x="80" y="0" on="1"/>
        <pt x="80" y="630" on="1"/>
      </contour>
      <contour>
        <pt x="18" y="834" on="1"/>
        <pt x="19" y="796" on="0"/>
        <pt x="59" y="750" on="0"/>
        <pt x="106" y="750" on="1"/>
        <pt x="145" y="750" on="0"/>
        <pt x="190" y="794" on="0"/>
        <pt x="191" y="834" on="1"/>
        <pt x="239" y="834" on="1"/>
        <pt x="239" y="780" on="0"/>
        <pt x="171" y="710" on="0"/>
        <pt x="106" y="710" on="1"/>
        <pt x="70" y="710" on="0"/>
        <pt x="19" y="730" on="0"/>
        <pt x="-14" y="765" on="0"/>
        <pt x="-30" y="810" on="0"/>
        <pt x="-30" y="834" on="1"/>
      </contour>
    </TTGlyph>
    <TTGlyph name="Icircumflex" xMin="-38" yMin="0" xMax="258" yMax="844">
      <contour>
        <pt x="132" y="630" on="1"/>
        <pt x="132" y="0" on="1"/>
        <pt x="80" y="0" on="1"/>
        <pt x="80" y="630" on="1"/>
      </contour>
      <contour>
        <pt x="84" y="844" on="1"/>
        <pt x="133" y="844" on="1"/>
        <pt x="258" y="710" on="1"/>
        <pt x="198" y="710" on="1"/>
        <pt x="108" y="809" on="1"/>
        <pt x="18" y="710" on="1"/>
        <pt x="-38" y="710" on="1"/>
      </contour>
    </TTGlyph>
    <TTGlyph name="Idieresis" xMin="-19" yMin="0" xMax="231" yMax="810">
      <contour>
        <pt x="132" y="630" on="1"/>
        <pt x="132" y="0" on="1"/>
        <pt x="80" y="0" on="1"/>
        <pt x="80" y="630" on="1"/>
      </contour>
      <contour>
        <pt x="-19" y="766" on="1"/>
        <pt x="-19" y="786" on="0"/>
        <pt x="4" y="810" on="0"/>
        <pt x="21" y="810" on="1"/>
        <pt x="38" y="810" on="0"/>
        <pt x="61" y="786" on="0"/>
        <pt x="61" y="766" on="1"/>
        <pt x="61" y="745" on="0"/>
        <pt x="38" y="722" on="0"/>
        <pt x="21" y="722" on="1"/>
        <pt x="4" y="722" on="0"/>
        <pt x="-19" y="745" on="0"/>
      </contour>
      <contour>
        <pt x="151" y="766" on="1"/>
        <pt x="151" y="786" on="0"/>
        <pt x="174" y="810" on="0"/>
        <pt x="191" y="810" on="1"/>
        <pt x="208" y="810" on="0"/>
        <pt x="231" y="786" on="0"/>
        <pt x="231" y="766" on="1"/>
        <pt x="231" y="745" on="0"/>
        <pt x="208" y="722" on="0"/>
        <pt x="191" y="722" on="1"/>
        <pt x="174" y="722" on="0"/>
        <pt x="151" y="745" on="0"/>
      </contour>
    </TTGlyph>
    <TTGlyph name="Idotaccent" xMin="66" yMin="0" xMax="146" yMax="822">
      <contour>
        <pt x="132" y="630" on="1"/>
        <pt x="132" y="0" on="1"/>
        <pt x="80" y="0" on="1"/>
        <pt x="80" y="630" on="1"/>
      </contour>
      <contour>
        <pt x="66" y="778" on="1"/>
        <pt x="66" y="798" on="0"/>
        <pt x="89" y="822" on="0"/>
        <pt x="106" y="822" on="1"/>
        <pt x="123" y="822" on="0"/>
        <pt x="146" y="798" on="0"/>
        <pt x="146" y="778" on="1"/>
        <pt x="146" y="757" on="0"/>
        <pt x="123" y="734" on="0"/>
        <pt x="106" y="734" on="1"/>
        <pt x="89" y="734" on="0"/>
        <pt x="66" y="757" on="0"/>
      </contour>
    </TTGlyph>
    <TTGlyph name="Igrave" xMin="-20" yMin="0" xMax="133" yMax="834">
      <contour>
        <pt x="132" y="630" on="1"/>
        <pt x="132" y="0" on="1"/>
        <pt x="80" y="0" on="1"/>
        <pt x="80" y="630" on="1"/>
      </contour>
      <contour>
        <pt x="-20" y="834" on="1"/>
        <pt x="43" y="834" on="1"/>
        <pt x="133" y="710" on="1"/>
        <pt x="91" y="710" on="1"/>
      </contour>
    </TTGlyph>
    <TTGlyph name="Imacron" xMin="-16" yMin="0" xMax="229" yMax="772">
      <contour>
        <pt x="132" y="630" on="1"/>
        <pt x="132" y="0" on="1"/>
        <pt x="80" y="0" on="1"/>
        <pt x="80" y="630" on="1"/>
      </contour>
      <contour>
        <pt x="229" y="772" on="1"/>
        <pt x="229" y="730" on="1"/>
        <pt x="-16" y="730" on="1"/>
        <pt x="-16" y="772" on="1"/>
      </contour>
    </TTGlyph>
    <TTGlyph name="Iogonek" xMin="2" yMin="-205" xMax="189" yMax="630">
      <contour>
        <pt x="132" y="0" on="1"/>
        <pt x="91" y="-24" on="0"/>
        <pt x="51" y="-71" on="0"/>
        <pt x="51" y="-105" on="1"/>
        <pt x="51" y="-134" on="0"/>
        <pt x="93" y="-166" on="0"/>
        <pt x="126" y="-166" on="1"/>
        <pt x="144" y="-166" on="0"/>
        <pt x="171" y="-160" on="0"/>
        <pt x="181" y="-155" on="1"/>
        <pt x="189" y="-185" on="1"/>
        <pt x="175" y="-194" on="0"/>
        <pt x="136" y="-205" on="0"/>
        <pt x="113" y="-205" on="1"/>
        <pt x="67" y="-205" on="0"/>
        <pt x="2" y="-156" on="0"/>
        <pt x="2" y="-109" on="1"/>
        <pt x="2" y="-71" on="0"/>
        <pt x="48" y="-16" on="0"/>
        <pt x="80" y="0" on="1"/>
        <pt x="80" y="630" on="1"/>
        <pt x="132" y="630" on="1"/>
      </contour>
    </TTGlyph>
    <TTGlyph name="Iri.gm" xMin="-30" yMin="0" xMax="574" yMax="577">
      <contour>
        <pt x="-30" y="577" on="1"/>
        <pt x="574" y="577" on="1"/>
        <pt x="574" y="539" on="1"/>
        <pt x="462" y="539" on="1"/>
        <pt x="462" y="302" on="1"/>
        <pt x="313" y="302" on="1"/>
        <pt x="282" y="302" on="0"/>
        <pt x="219" y="286" on="0"/>
        <pt x="162" y="256" on="0"/>
        <pt x="114" y="212" on="0"/>
        <pt x="98" y="183" on="1"/>
        <pt x="112" y="154" on="0"/>
        <pt x="154" y="103" on="0"/>
        <pt x="210" y="64" on="0"/>
        <pt x="281" y="41" on="0"/>
        <pt x="325" y="41" on="1"/>
        <pt x="379" y="41" on="0"/>
        <pt x="449" y="74" on="0"/>
        <pt x="468" y="90" on="1"/>
        <pt x="493" y="59" on="1"/>
        <pt x="470" y="35" on="0"/>
        <pt x="384" y="0" on="0"/>
        <pt x="324" y="0" on="1"/>
        <pt x="224" y="0" on="0"/>
        <pt x="85" y="92" on="0"/>
        <pt x="46" y="182" on="1"/>
        <pt x="62" y="213" on="0"/>
        <pt x="102" y="261" on="0"/>
        <pt x="145" y="294" on="0"/>
        <pt x="189" y="316" on="0"/>
        <pt x="209" y="322" on="1"/>
        <pt x="153" y="346" on="0"/>
        <pt x="83" y="458" on="0"/>
        <pt x="75" y="539" on="1"/>
        <pt x="-30" y="539" on="1"/>
      </contour>
      <contour>
        <pt x="415" y="342" on="1"/>
        <pt x="415" y="539" on="1"/>
        <pt x="124" y="539" on="1"/>
        <pt x="125" y="506" on="0"/>
        <pt x="147" y="439" on="0"/>
        <pt x="188" y="384" on="0"/>
        <pt x="247" y="346" on="0"/>
        <pt x="285" y="342" on="1"/>
      </contour>
    </TTGlyph>
    <TTGlyph name="Ismall" xMin="68" yMin="0" xMax="116" yMax="470">
      <contour>
        <pt x="116" y="470" on="1"/>
        <pt x="116" y="0" on="1"/>
        <pt x="68" y="0" on="1"/>
        <pt x="68" y="470" on="1"/>
      </contour>
    </TTGlyph>
    <TTGlyph name="Itilde" xMin="-46" yMin="0" xMax="257" yMax="818">
      <contour>
        <pt x="132" y="630" on="1"/>
        <pt x="132" y="0" on="1"/>
        <pt x="80" y="0" on="1"/>
        <pt x="80" y="630" on="1"/>
      </contour>
      <contour>
        <pt x="-46" y="715" on="1"/>
        <pt x="-46" y="757" on="0"/>
        <pt x="-5" y="815" on="0"/>
        <pt x="41" y="815" on="1"/>
        <pt x="63" y="815" on="0"/>
        <pt x="95" y="798" on="0"/>
        <pt x="123" y="778" on="0"/>
        <pt x="151" y="761" on="0"/>
        <pt x="168" y="761" on="1"/>
        <pt x="194" y="761" on="0"/>
        <pt x="215" y="793" on="0"/>
        <pt x="217" y="818" on="1"/>
        <pt x="257" y="818" on="1"/>
        <pt x="257" y="799" on="0"/>
        <pt x="246" y="764" on="0"/>
        <pt x="225" y="737" on="0"/>
        <pt x="194" y="721" on="0"/>
        <pt x="173" y="721" on="1"/>
        <pt x="150" y="721" on="0"/>
        <pt x="114" y="738" on="0"/>
        <pt x="84" y="758" on="0"/>
        <pt x="57" y="775" on="0"/>
        <pt x="44" y="775" on="1"/>
        <pt x="18" y="775" on="0"/>
        <pt x="-4" y="739" on="0"/>
        <pt x="-6" y="715" on="1"/>
      </contour>
    </TTGlyph>
    <TTGlyph name="J" xMin="-15" yMin="-135" xMax="177" yMax="630">
      <contour>
        <pt x="177" y="630" on="1"/>
        <pt x="177" y="104" on="1"/>
        <pt x="177" y="42" on="0"/>
        <pt x="163" y="-32" on="0"/>
        <pt x="144" y="-61" on="1"/>
        <pt x="130" y="-82" on="0"/>
        <pt x="93" y="-110" on="0"/>
        <pt x="51" y="-127" on="0"/>
        <pt x="6" y="-135" on="0"/>
        <pt x="-15" y="-135" on="1"/>
        <pt x="-15" y="-98" on="1"/>
        <pt x="44" y="-97" on="0"/>
        <pt x="81" y="-66" on="1"/>
        <pt x="107" y="-43" on="0"/>
        <pt x="125" y="26" on="0"/>
        <pt x="125" y="69" on="1"/>
        <pt x="125" y="630" on="1"/>
      </contour>
    </TTGlyph>
    <TTGlyph name="Ja.gm" xMin="-20" yMin="0" xMax="605" yMax="577">
      <contour>
        <pt x="-20" y="577" on="1"/>
        <pt x="605" y="577" on="1"/>
        <pt x="605" y="539" on="1"/>
        <pt x="487" y="539" on="1"/>
        <pt x="487" y="0" on="1"/>
        <pt x="440" y="0" on="1"/>
        <pt x="440" y="288" on="1"/>
        <pt x="158" y="288" on="1"/>
        <pt x="158" y="0" on="1"/>
        <pt x="111" y="0" on="1"/>
        <pt x="111" y="286" on="1"/>
        <pt x="85" y="286" on="0"/>
        <pt x="50" y="307" on="0"/>
        <pt x="50" y="333" on="1"/>
        <pt x="50" y="346" on="0"/>
        <pt x="63" y="371" on="0"/>
        <pt x="84" y="390" on="0"/>
        <pt x="111" y="401" on="0"/>
        <pt x="125" y="401" on="1"/>
        <pt x="136" y="401" on="0"/>
        <pt x="151" y="397" on="0"/>
        <pt x="158" y="394" on="1"/>
        <pt x="158" y="328" on="1"/>
        <pt x="440" y="328" on="1"/>
        <pt x="440" y="539" on="1"/>
        <pt x="-20" y="539" on="1"/>
      </contour>
    </TTGlyph>
    <TTGlyph name="JaVirama.gm" xMin="-20" yMin="-243" xMax="646" yMax="577">
      <contour>
        <pt x="-20" y="577" on="1"/>
        <pt x="605" y="577" on="1"/>
        <pt x="605" y="539" on="1"/>
        <pt x="487" y="539" on="1"/>
        <pt x="487" y="0" on="1"/>
        <pt x="440" y="0" on="1"/>
        <pt x="440" y="288" on="1"/>
        <pt x="158" y="288" on="1"/>
        <pt x="158" y="0" on="1"/>
        <pt x="111" y="0" on="1"/>
        <pt x="111" y="286" on="1"/>
        <pt x="85" y="286" on="0"/>
        <pt x="50" y="307" on="0"/>
        <pt x="50" y="333" on="1"/>
        <pt x="50" y="346" on="0"/>
        <pt x="63" y="371" on="0"/>
        <pt x="84" y="390" on="0"/>
        <pt x="111" y="401" on="0"/>
        <pt x="125" y="401" on="1"/>
        <pt x="136" y="401" on="0"/>
        <pt x="151" y="397" on="0"/>
        <pt x="158" y="394" on="1"/>
        <pt x="158" y="328" on="1"/>
        <pt x="440" y="328" on="1"/>
        <pt x="440" y="539" on="1"/>
        <pt x="-20" y="539" on="1"/>
      </contour>
      <contour>
        <pt x="646" y="-215" on="1"/>
        <pt x="621" y="-243" on="1"/>
        <pt x="439" y="-101" on="1"/>
        <pt x="470" y="-63" on="1"/>
      </contour>
    </TTGlyph>
    <TTGlyph name="Jcircumflex" xMin="-15" yMin="-135" xMax="304" yMax="844">
      <contour>
        <pt x="177" y="630" on="1"/>
        <pt x="177" y="104" on="1"/>
        <pt x="177" y="42" on="0"/>
        <pt x="163" y="-32" on="0"/>
        <pt x="144" y="-61" on="1"/>
        <pt x="130" y="-82" on="0"/>
        <pt x="93" y="-110" on="0"/>
        <pt x="51" y="-127" on="0"/>
        <pt x="6" y="-135" on="0"/>
        <pt x="-15" y="-135" on="1"/>
        <pt x="-15" y="-98" on="1"/>
        <pt x="44" y="-97" on="0"/>
        <pt x="81" y="-66" on="1"/>
        <pt x="107" y="-43" on="0"/>
        <pt x="125" y="26" on="0"/>
        <pt x="125" y="69" on="1"/>
        <pt x="125" y="630" on="1"/>
      </contour>
      <contour>
        <pt x="130" y="844" on="1"/>
        <pt x="179" y="844" on="1"/>
        <pt x="304" y="710" on="1"/>
        <pt x="244" y="710" on="1"/>
        <pt x="154" y="809" on="1"/>
        <pt x="64" y="710" on="1"/>
        <pt x="8" y="710" on="1"/>
      </contour>
    </TTGlyph>
    <TTGlyph name="Jha.gm" xMin="-40" yMin="-75" xMax="570" yMax="577">
      <contour>
        <pt x="421" y="206" on="1"/>
        <pt x="421" y="262" on="0"/>
        <pt x="323" y="334" on="0"/>
        <pt x="229" y="334" on="1"/>
        <pt x="184" y="334" on="0"/>
        <pt x="99" y="318" on="0"/>
        <pt x="74" y="311" on="1"/>
        <pt x="64" y="351" on="1"/>
        <pt x="74" y="353" on="0"/>
        <pt x="101" y="359" on="0"/>
        <pt x="129" y="364" on="0"/>
        <pt x="156" y="368" on="0"/>
        <pt x="167" y="369" on="1"/>
        <pt x="151" y="379" on="0"/>
        <pt x="118" y="410" on="0"/>
        <pt x="88" y="452" on="0"/>
        <pt x="65" y="506" on="0"/>
        <pt x="59" y="539" on="1"/>
        <pt x="-40" y="539" on="1"/>
        <pt x="-40" y="577" on="1"/>
        <pt x="570" y="577" on="1"/>
        <pt x="570" y="539" on="1"/>
        <pt x="481" y="539" on="1"/>
        <pt x="475" y="500" on="0"/>
        <pt x="446" y="439" on="0"/>
        <pt x="409" y="393" on="0"/>
        <pt x="368" y="363" on="0"/>
        <pt x="350" y="355" on="1"/>
        <pt x="374" y="348" on="0"/>
        <pt x="417" y="321" on="0"/>
        <pt x="450" y="283" on="0"/>
        <pt x="470" y="234" on="0"/>
        <pt x="470" y="204" on="1"/>
        <pt x="470" y="162" on="0"/>
        <pt x="434" y="101" on="0"/>
        <pt x="373" y="61" on="0"/>
        <pt x="292" y="42" on="0"/>
        <pt x="246" y="42" on="1"/>
        <pt x="242" y="42" on="0"/>
        <pt x="227" y="42" on="0"/>
        <pt x="219" y="43" on="1"/>
        <pt x="280" y="-55" on="1"/>
        <pt x="239" y="-75" on="1"/>
        <pt x="171" y="48" on="1"/>
        <pt x="152" y="52" on="0"/>
        <pt x="116" y="68" on="0"/>
        <pt x="87" y="92" on="0"/>
        <pt x="70" y="123" on="0"/>
        <pt x="70" y="141" on="1"/>
        <pt x="70" y="163" on="0"/>
        <pt x="100" y="187" on="0"/>
        <pt x="119" y="187" on="1"/>
        <pt x="122" y="187" on="0"/>
        <pt x="130" y="187" on="0"/>
        <pt x="138" y="185" on="1"/>
        <pt x="199" y="87" on="1"/>
        <pt x="212" y="84" on="0"/>
        <pt x="240" y="83" on="0"/>
        <pt x="245" y="83" on="1"/>
        <pt x="281" y="83" on="0"/>
        <pt x="345" y="98" on="0"/>
        <pt x="393" y="129" on="0"/>
        <pt x="421" y="175" on="0"/>
      </contour>
      <contour>
        <pt x="108" y="539" on="1"/>
        <pt x="126" y="464" on="0"/>
        <pt x="210" y="376" on="0"/>
        <pt x="262" y="374" on="1"/>
        <pt x="274" y="374" on="1"/>
        <pt x="331" y="376" on="0"/>
        <pt x="415" y="464" on="0"/>
        <pt x="432" y="539" on="1"/>
      </contour>
    </TTGlyph>
    <TTGlyph name="JhaVirama.gm" xMin="-40" yMin="-243" xMax="570" yMax="577">
      <contour>
        <pt x="421" y="206" on="1"/>
        <pt x="421" y="262" on="0"/>
        <pt x="323" y="334" on="0"/>
        <pt x="229" y="334" on="1"/>
        <pt x="184" y="334" on="0"/>
        <pt x="99" y="318" on="0"/>
        <pt x="74" y="311" on="1"/>
        <pt x="64" y="351" on="1"/>
        <pt x="74" y="353" on="0"/>
        <pt x="101" y="359" on="0"/>
        <pt x="129" y="364" on="0"/>
        <pt x="156" y="368" on="0"/>
        <pt x="167" y="369" on="1"/>
        <pt x="151" y="379" on="0"/>
        <pt x="118" y="410" on="0"/>
        <pt x="88" y="452" on="0"/>
        <pt x="65" y="506" on="0"/>
        <pt x="59" y="539" on="1"/>
        <pt x="-40" y="539" on="1"/>
        <pt x="-40" y="577" on="1"/>
        <pt x="570" y="577" on="1"/>
        <pt x="570" y="539" on="1"/>
        <pt x="481" y="539" on="1"/>
        <pt x="475" y="500" on="0"/>
        <pt x="446" y="439" on="0"/>
        <pt x="409" y="393" on="0"/>
        <pt x="368" y="363" on="0"/>
        <pt x="350" y="355" on="1"/>
        <pt x="374" y="348" on="0"/>
        <pt x="417" y="321" on="0"/>
        <pt x="450" y="283" on="0"/>
        <pt x="470" y="234" on="0"/>
        <pt x="470" y="204" on="1"/>
        <pt x="470" y="162" on="0"/>
        <pt x="434" y="101" on="0"/>
        <pt x="373" y="61" on="0"/>
        <pt x="292" y="42" on="0"/>
        <pt x="246" y="42" on="1"/>
        <pt x="242" y="42" on="0"/>
        <pt x="227" y="42" on="0"/>
        <pt x="219" y="43" on="1"/>
        <pt x="280" y="-55" on="1"/>
        <pt x="239" y="-75" on="1"/>
        <pt x="171" y="48" on="1"/>
        <pt x="152" y="52" on="0"/>
        <pt x="116" y="68" on="0"/>
        <pt x="87" y="92" on="0"/>
        <pt x="70" y="123" on="0"/>
        <pt x="70" y="141" on="1"/>
        <pt x="70" y="163" on="0"/>
        <pt x="100" y="187" on="0"/>
        <pt x="119" y="187" on="1"/>
        <pt x="122" y="187" on="0"/>
        <pt x="130" y="187" on="0"/>
        <pt x="138" y="185" on="1"/>
        <pt x="199" y="87" on="1"/>
        <pt x="212" y="84" on="0"/>
        <pt x="240" y="83" on="0"/>
        <pt x="245" y="83" on="1"/>
        <pt x="281" y="83" on="0"/>
        <pt x="345" y="98" on="0"/>
        <pt x="393" y="129" on="0"/>
        <pt x="421" y="175" on="0"/>
      </contour>
      <contour>
        <pt x="108" y="539" on="1"/>
        <pt x="126" y="464" on="0"/>
        <pt x="210" y="376" on="0"/>
        <pt x="262" y="374" on="1"/>
        <pt x="274" y="374" on="1"/>
        <pt x="331" y="376" on="0"/>
        <pt x="415" y="464" on="0"/>
        <pt x="432" y="539" on="1"/>
      </contour>
      <contour>
        <pt x="550" y="-215" on="1"/>
        <pt x="525" y="-243" on="1"/>
        <pt x="343" y="-101" on="1"/>
        <pt x="374" y="-63" on="1"/>
      </contour>
    </TTGlyph>
    <TTGlyph name="Jsmall" xMin="0" yMin="-141" xMax="145" yMax="470">
      <contour>
        <pt x="145" y="470" on="1"/>
        <pt x="145" y="57" on="1"/>
        <pt x="145" y="31" on="0"/>
        <pt x="142" y="-11" on="0"/>
        <pt x="135" y="-45" on="0"/>
        <pt x="123" y="-75" on="0"/>
        <pt x="113" y="-89" on="1"/>
        <pt x="102" y="-105" on="0"/>
        <pt x="74" y="-125" on="0"/>
        <pt x="43" y="-137" on="0"/>
        <pt x="13" y="-141" on="0"/>
        <pt x="0" y="-141" on="1"/>
        <pt x="0" y="-103" on="1"/>
        <pt x="21" y="-103" on="0"/>
        <pt x="66" y="-85" on="0"/>
        <pt x="79" y="-61" on="1"/>
        <pt x="90" y="-40" on="0"/>
        <pt x="97" y="16" on="0"/>
        <pt x="97" y="38" on="1"/>
        <pt x="97" y="470" on="1"/>
      </contour>
    </TTGlyph>
    <TTGlyph name="K" xMin="80" yMin="0" xMax="522" yMax="630">
      <contour>
        <pt x="80" y="0" on="1"/>
        <pt x="80" y="630" on="1"/>
        <pt x="132" y="630" on="1"/>
        <pt x="132" y="305" on="1"/>
        <pt x="431" y="630" on="1"/>
        <pt x="497" y="630" on="1"/>
        <pt x="240" y="354" on="1"/>
        <pt x="522" y="0" on="1"/>
        <pt x="455" y="0" on="1"/>
        <pt x="205" y="318" on="1"/>
        <pt x="132" y="239" on="1"/>
        <pt x="132" y="0" on="1"/>
      </contour>
    </TTGlyph>
    <TTGlyph name="Ka.gm" xMin="-30" yMin="0" xMax="597" yMax="577">
      <contour>
        <pt x="-30" y="577" on="1"/>
        <pt x="597" y="577" on="1"/>
        <pt x="597" y="539" on="1"/>
        <pt x="496" y="539" on="1"/>
        <pt x="494" y="465" on="0"/>
        <pt x="454" y="315" on="0"/>
        <pt x="419" y="258" on="1"/>
        <pt x="434" y="229" on="0"/>
        <pt x="460" y="164" on="0"/>
        <pt x="481" y="96" on="0"/>
        <pt x="496" y="30" on="0"/>
        <pt x="500" y="0" on="1"/>
        <pt x="453" y="0" on="1"/>
        <pt x="444" y="57" on="0"/>
        <pt x="411" y="174" on="0"/>
        <pt x="391" y="219" on="1"/>
        <pt x="362" y="181" on="0"/>
        <pt x="272" y="127" on="0"/>
        <pt x="208" y="127" on="1"/>
        <pt x="174" y="127" on="0"/>
        <pt x="113" y="146" on="0"/>
        <pt x="67" y="182" on="0"/>
        <pt x="40" y="236" on="0"/>
        <pt x="40" y="271" on="1"/>
        <pt x="40" y="303" on="0"/>
        <pt x="64" y="356" on="0"/>
        <pt x="107" y="395" on="0"/>
        <pt x="167" y="416" on="0"/>
        <pt x="203" y="416" on="1"/>
        <pt x="237" y="416" on="0"/>
        <pt x="294" y="399" on="0"/>
        <pt x="342" y="369" on="0"/>
        <pt x="381" y="328" on="0"/>
        <pt x="396" y="305" on="1"/>
        <pt x="413" y="343" on="0"/>
        <pt x="447" y="462" on="0"/>
        <pt x="449" y="539" on="1"/>
        <pt x="-30" y="539" on="1"/>
      </contour>
      <contour>
        <pt x="213" y="167" on="1"/>
        <pt x="264" y="167" on="0"/>
        <pt x="348" y="221" on="0"/>
        <pt x="373" y="264" on="1"/>
        <pt x="358" y="292" on="0"/>
        <pt x="319" y="335" on="0"/>
        <pt x="276" y="362" on="0"/>
        <pt x="230" y="376" on="0"/>
        <pt x="209" y="376" on="1"/>
        <pt x="152" y="376" on="0"/>
        <pt x="89" y="317" on="0"/>
        <pt x="89" y="271" on="1"/>
        <pt x="89" y="220" on="0"/>
        <pt x="159" y="167" on="0"/>
      </contour>
    </TTGlyph>
    <TTGlyph name="KaVirama.gm" xMin="-30" yMin="-243" xMax="613" yMax="577">
      <contour>
        <pt x="-30" y="577" on="1"/>
        <pt x="597" y="577" on="1"/>
        <pt x="597" y="539" on="1"/>
        <pt x="496" y="539" on="1"/>
        <pt x="494" y="465" on="0"/>
        <pt x="454" y="315" on="0"/>
        <pt x="419" y="258" on="1"/>
        <pt x="434" y="229" on="0"/>
        <pt x="460" y="164" on="0"/>
        <pt x="481" y="96" on="0"/>
        <pt x="496" y="30" on="0"/>
        <pt x="500" y="0" on="1"/>
        <pt x="453" y="0" on="1"/>
        <pt x="444" y="57" on="0"/>
        <pt x="411" y="174" on="0"/>
        <pt x="391" y="219" on="1"/>
        <pt x="362" y="181" on="0"/>
        <pt x="272" y="127" on="0"/>
        <pt x="208" y="127" on="1"/>
        <pt x="174" y="127" on="0"/>
        <pt x="113" y="146" on="0"/>
        <pt x="67" y="182" on="0"/>
        <pt x="40" y="236" on="0"/>
        <pt x="40" y="271" on="1"/>
        <pt x="40" y="303" on="0"/>
        <pt x="64" y="356" on="0"/>
        <pt x="107" y="395" on="0"/>
        <pt x="167" y="416" on="0"/>
        <pt x="203" y="416" on="1"/>
        <pt x="237" y="416" on="0"/>
        <pt x="294" y="399" on="0"/>
        <pt x="342" y="369" on="0"/>
        <pt x="381" y="328" on="0"/>
        <pt x="396" y="305" on="1"/>
        <pt x="413" y="343" on="0"/>
        <pt x="447" y="462" on="0"/>
        <pt x="449" y="539" on="1"/>
        <pt x="-30" y="539" on="1"/>
      </contour>
      <contour>
        <pt x="213" y="167" on="1"/>
        <pt x="264" y="167" on="0"/>
        <pt x="348" y="221" on="0"/>
        <pt x="373" y="264" on="1"/>
        <pt x="358" y="292" on="0"/>
        <pt x="319" y="335" on="0"/>
        <pt x="276" y="362" on="0"/>
        <pt x="230" y="376" on="0"/>
        <pt x="209" y="376" on="1"/>
        <pt x="152" y="376" on="0"/>
        <pt x="89" y="317" on="0"/>
        <pt x="89" y="271" on="1"/>
        <pt x="89" y="220" on="0"/>
        <pt x="159" y="167" on="0"/>
      </contour>
      <contour>
        <pt x="613" y="-215" on="1"/>
        <pt x="588" y="-243" on="1"/>
        <pt x="406" y="-101" on="1"/>
        <pt x="437" y="-63" on="1"/>
      </contour>
    </TTGlyph>
    <TTGlyph name="KaViramaRa.gm" xMin="-30" yMin="-160" xMax="628" yMax="577">
      <contour>
        <pt x="487" y="-114" on="1"/>
        <pt x="472" y="-120" on="0"/>
        <pt x="442" y="-126" on="0"/>
        <pt x="419" y="-126" on="1"/>
        <pt x="383" y="-126" on="0"/>
        <pt x="344" y="-101" on="0"/>
        <pt x="344" y="-81" on="1"/>
        <pt x="344" y="-66" on="0"/>
        <pt x="356" y="-46" on="0"/>
        <pt x="365" y="-41" on="1"/>
        <pt x="453" y="-68" on="1"/>
        <pt x="453" y="-23" on="1"/>
        <pt x="453" y="50" on="0"/>
        <pt x="426" y="179" on="0"/>
        <pt x="397" y="227" on="1"/>
        <pt x="368" y="186" on="0"/>
        <pt x="275" y="127" on="0"/>
        <pt x="208" y="127" on="1"/>
        <pt x="174" y="127" on="0"/>
        <pt x="113" y="146" on="0"/>
        <pt x="67" y="182" on="0"/>
        <pt x="40" y="236" on="0"/>
        <pt x="40" y="271" on="1"/>
        <pt x="40" y="303" on="0"/>
        <pt x="64" y="356" on="0"/>
        <pt x="107" y="395" on="0"/>
        <pt x="167" y="416" on="0"/>
        <pt x="203" y="416" on="1"/>
        <pt x="237" y="416" on="0"/>
        <pt x="294" y="399" on="0"/>
        <pt x="342" y="369" on="0"/>
        <pt x="381" y="328" on="0"/>
        <pt x="396" y="305" on="1"/>
        <pt x="413" y="343" on="0"/>
        <pt x="447" y="462" on="0"/>
        <pt x="449" y="539" on="1"/>
        <pt x="-30" y="539" on="1"/>
        <pt x="-30" y="577" on="1"/>
        <pt x="597" y="577" on="1"/>
        <pt x="597" y="539" on="1"/>
        <pt x="496" y="539" on="1"/>
        <pt x="494" y="467" on="0"/>
        <pt x="455" y="322" on="0"/>
        <pt x="423" y="265" on="1"/>
        <pt x="460" y="209" on="0"/>
        <pt x="500" y="70" on="0"/>
        <pt x="500" y="-23" on="1"/>
        <pt x="500" y="-81" on="1"/>
        <pt x="628" y="-114" on="1"/>
        <pt x="614" y="-160" on="1"/>
      </contour>
      <contour>
        <pt x="213" y="167" on="1"/>
        <pt x="264" y="167" on="0"/>
        <pt x="348" y="221" on="0"/>
        <pt x="373" y="264" on="1"/>
        <pt x="358" y="292" on="0"/>
        <pt x="319" y="335" on="0"/>
        <pt x="276" y="362" on="0"/>
        <pt x="230" y="376" on="0"/>
        <pt x="209" y="376" on="1"/>
        <pt x="152" y="376" on="0"/>
        <pt x="89" y="317" on="0"/>
        <pt x="89" y="271" on="1"/>
        <pt x="89" y="220" on="0"/>
        <pt x="159" y="167" on="0"/>
      </contour>
    </TTGlyph>
    <TTGlyph name="Kcommaaccent" xMin="80" yMin="-303" xMax="522" yMax="630">
      <contour>
        <pt x="80" y="0" on="1"/>
        <pt x="80" y="630" on="1"/>
        <pt x="132" y="630" on="1"/>
        <pt x="132" y="305" on="1"/>
        <pt x="431" y="630" on="1"/>
        <pt x="497" y="630" on="1"/>
        <pt x="240" y="354" on="1"/>
        <pt x="522" y="0" on="1"/>
        <pt x="455" y="0" on="1"/>
        <pt x="205" y="318" on="1"/>
        <pt x="132" y="239" on="1"/>
        <pt x="132" y="0" on="1"/>
      </contour>
      <contour>
        <pt x="278" y="-186" on="1"/>
        <pt x="261" y="-183" on="0"/>
        <pt x="238" y="-159" on="0"/>
        <pt x="238" y="-138" on="1"/>
        <pt x="238" y="-120" on="0"/>
        <pt x="261" y="-96" on="0"/>
        <pt x="279" y="-96" on="1"/>
        <pt x="295" y="-96" on="0"/>
        <pt x="327" y="-123" on="0"/>
        <pt x="327" y="-162" on="1"/>
        <pt x="327" y="-185" on="0"/>
        <pt x="311" y="-227" on="0"/>
        <pt x="284" y="-264" on="0"/>
        <pt x="249" y="-293" on="0"/>
        <pt x="230" y="-303" on="1"/>
        <pt x="210" y="-275" on="1"/>
        <pt x="240" y="-260" on="0"/>
        <pt x="278" y="-212" on="0"/>
        <pt x="283" y="-187" on="1"/>
      </contour>
    </TTGlyph>
    <TTGlyph name="Kha.gm" xMin="-30" yMin="0" xMax="592" yMax="577">
      <contour>
        <pt x="129" y="577" on="1"/>
        <pt x="149" y="539" on="0"/>
        <pt x="167" y="468" on="0"/>
        <pt x="167" y="433" on="1"/>
        <pt x="167" y="419" on="0"/>
        <pt x="165" y="393" on="0"/>
        <pt x="163" y="381" on="1"/>
        <pt x="427" y="381" on="1"/>
        <pt x="427" y="577" on="1"/>
        <pt x="592" y="577" on="1"/>
        <pt x="592" y="539" on="1"/>
        <pt x="474" y="539" on="1"/>
        <pt x="474" y="0" on="1"/>
        <pt x="427" y="0" on="1"/>
        <pt x="427" y="173" on="1"/>
        <pt x="402" y="149" on="0"/>
        <pt x="323" y="117" on="0"/>
        <pt x="265" y="117" on="1"/>
        <pt x="193" y="117" on="0"/>
        <pt x="79" y="184" on="0"/>
        <pt x="53" y="238" on="1"/>
        <pt x="79" y="278" on="0"/>
        <pt x="119" y="376" on="0"/>
        <pt x="119" y="433" on="1"/>
        <pt x="119" y="492" on="0"/>
        <pt x="98" y="539" on="1"/>
        <pt x="-30" y="539" on="1"/>
        <pt x="-30" y="577" on="1"/>
      </contour>
      <contour>
        <pt x="268" y="157" on="1"/>
        <pt x="328" y="157" on="0"/>
        <pt x="409" y="203" on="0"/>
        <pt x="427" y="233" on="1"/>
        <pt x="427" y="343" on="1"/>
        <pt x="155" y="343" on="1"/>
        <pt x="147" y="313" on="0"/>
        <pt x="121" y="262" on="0"/>
        <pt x="107" y="239" on="1"/>
        <pt x="116" y="222" on="0"/>
        <pt x="150" y="192" on="0"/>
        <pt x="193" y="170" on="0"/>
        <pt x="243" y="157" on="0"/>
      </contour>
    </TTGlyph>
    <TTGlyph name="KhaVirama.gm" xMin="-30" yMin="-243" xMax="644" yMax="577">
      <contour>
        <pt x="129" y="577" on="1"/>
        <pt x="149" y="539" on="0"/>
        <pt x="167" y="468" on="0"/>
        <pt x="167" y="433" on="1"/>
        <pt x="167" y="419" on="0"/>
        <pt x="165" y="393" on="0"/>
        <pt x="163" y="381" on="1"/>
        <pt x="427" y="381" on="1"/>
        <pt x="427" y="577" on="1"/>
        <pt x="592" y="577" on="1"/>
        <pt x="592" y="539" on="1"/>
        <pt x="474" y="539" on="1"/>
        <pt x="474" y="0" on="1"/>
        <pt x="427" y="0" on="1"/>
        <pt x="427" y="173" on="1"/>
        <pt x="402" y="149" on="0"/>
        <pt x="323" y="117" on="0"/>
        <pt x="265" y="117" on="1"/>
        <pt x="193" y="117" on="0"/>
        <pt x="79" y="184" on="0"/>
        <pt x="53" y="238" on="1"/>
        <pt x="79" y="278" on="0"/>
        <pt x="119" y="376" on="0"/>
        <pt x="119" y="433" on="1"/>
        <pt x="119" y="492" on="0"/>
        <pt x="98" y="539" on="1"/>
        <pt x="-30" y="539" on="1"/>
        <pt x="-30" y="577" on="1"/>
      </contour>
      <contour>
        <pt x="268" y="157" on="1"/>
        <pt x="328" y="157" on="0"/>
        <pt x="409" y="203" on="0"/>
        <pt x="427" y="233" on="1"/>
        <pt x="427" y="343" on="1"/>
        <pt x="155" y="343" on="1"/>
        <pt x="147" y="313" on="0"/>
        <pt x="121" y="262" on="0"/>
        <pt x="107" y="239" on="1"/>
        <pt x="116" y="222" on="0"/>
        <pt x="150" y="192" on="0"/>
        <pt x="193" y="170" on="0"/>
        <pt x="243" y="157" on="0"/>
      </contour>
      <contour>
        <pt x="644" y="-215" on="1"/>
        <pt x="619" y="-243" on="1"/>
        <pt x="437" y="-101" on="1"/>
        <pt x="468" y="-63" on="1"/>
      </contour>
    </TTGlyph>
    <TTGlyph name="Khanda.gm" xMin="84" yMin="-39" xMax="711" yMax="696">
      <contour>
        <pt x="361" y="-1" on="1"/>
        <pt x="361" y="18" on="0"/>
        <pt x="376" y="30" on="1"/>
        <pt x="376" y="82" on="1"/>
        <pt x="360" y="74" on="0"/>
        <pt x="332" y="59" on="0"/>
        <pt x="321" y="54" on="1"/>
        <pt x="323" y="52" on="0"/>
        <pt x="327" y="42" on="0"/>
        <pt x="327" y="38" on="1"/>
        <pt x="327" y="24" on="0"/>
        <pt x="308" y="7" on="0"/>
        <pt x="293" y="7" on="1"/>
        <pt x="278" y="7" on="0"/>
        <pt x="259" y="26" on="0"/>
        <pt x="259" y="40" on="1"/>
        <pt x="259" y="62" on="0"/>
        <pt x="284" y="75" on="1"/>
        <pt x="301" y="83" on="0"/>
        <pt x="337" y="101" on="0"/>
        <pt x="358" y="110" on="1"/>
        <pt x="336" y="121" on="0"/>
        <pt x="289" y="148" on="0"/>
        <pt x="269" y="160" on="1"/>
        <pt x="220" y="96" on="1"/>
        <pt x="196" y="129" on="0"/>
        <pt x="148" y="195" on="0"/>
        <pt x="109" y="266" on="0"/>
        <pt x="84" y="344" on="0"/>
        <pt x="84" y="389" on="1"/>
        <pt x="84" y="445" on="0"/>
        <pt x="140" y="542" on="0"/>
        <pt x="199" y="579" on="1"/>
        <pt x="188" y="565" on="0"/>
        <pt x="170" y="538" on="0"/>
        <pt x="157" y="505" on="0"/>
        <pt x="149" y="463" on="0"/>
        <pt x="149" y="435" on="1"/>
        <pt x="149" y="396" on="0"/>
        <pt x="172" y="321" on="0"/>
        <pt x="225" y="249" on="0"/>
        <pt x="313" y="178" on="0"/>
        <pt x="378" y="143" on="1"/>
        <pt x="378" y="194" on="1"/>
        <pt x="348" y="210" on="0"/>
        <pt x="327" y="226" on="1"/>
        <pt x="334" y="242" on="0"/>
        <pt x="338" y="259" on="1"/>
        <pt x="312" y="266" on="0"/>
        <pt x="266" y="296" on="0"/>
        <pt x="231" y="339" on="0"/>
        <pt x="210" y="396" on="0"/>
        <pt x="210" y="431" on="1"/>
        <pt x="210" y="494" on="0"/>
        <pt x="283" y="575" on="0"/>
        <pt x="334" y="592" on="1"/>
        <pt x="331" y="601" on="0"/>
        <pt x="324" y="616" on="0"/>
        <pt x="321" y="623" on="1"/>
        <pt x="347" y="636" on="0"/>
        <pt x="387" y="679" on="0"/>
        <pt x="399" y="696" on="1"/>
        <pt x="411" y="679" on="0"/>
        <pt x="451" y="636" on="0"/>
        <pt x="477" y="623" on="1"/>
        <pt x="473" y="616" on="0"/>
        <pt x="467" y="600" on="0"/>
        <pt x="463" y="591" on="1"/>
        <pt x="515" y="574" on="0"/>
        <pt x="585" y="491" on="0"/>
        <pt x="585" y="431" on="1"/>
        <pt x="585" y="397" on="0"/>
        <pt x="564" y="341" on="0"/>
        <pt x="530" y="299" on="0"/>
        <pt x="483" y="269" on="0"/>
        <pt x="458" y="261" on="1"/>
        <pt x="461" y="251" on="0"/>
        <pt x="468" y="234" on="0"/>
        <pt x="471" y="226" on="1"/>
        <pt x="460" y="218" on="0"/>
        <pt x="429" y="199" on="0"/>
        <pt x="415" y="191" on="1"/>
        <pt x="415" y="142" on="1"/>
        <pt x="481" y="177" on="0"/>
        <pt x="570" y="248" on="0"/>
        <pt x="623" y="321" on="0"/>
        <pt x="646" y="396" on="0"/>
        <pt x="646" y="435" on="1"/>
        <pt x="646" y="463" on="0"/>
        <pt x="638" y="505" on="0"/>
        <pt x="625" y="538" on="0"/>
        <pt x="606" y="565" on="0"/>
        <pt x="596" y="579" on="1"/>
        <pt x="655" y="542" on="0"/>
        <pt x="711" y="445" on="0"/>
        <pt x="711" y="389" on="1"/>
        <pt x="711" y="344" on="0"/>
        <pt x="686" y="266" on="0"/>
        <pt x="647" y="195" on="0"/>
        <pt x="599" y="129" on="0"/>
        <pt x="575" y="96" on="1"/>
        <pt x="526" y="160" on="1"/>
        <pt x="506" y="148" on="0"/>
        <pt x="458" y="121" on="0"/>
        <pt x="436" y="110" on="1"/>
        <pt x="509" y="75" on="1"/>
        <pt x="534" y="62" on="0"/>
        <pt x="534" y="40" on="1"/>
        <pt x="534" y="26" on="0"/>
        <pt x="515" y="7" on="0"/>
        <pt x="500" y="7" on="1"/>
        <pt x="485" y="7" on="0"/>
        <pt x="466" y="24" on="0"/>
        <pt x="466" y="38" on="1"/>
        <pt x="466" y="42" on="0"/>
        <pt x="469" y="52" on="0"/>
        <pt x="471" y="54" on="1"/>
        <pt x="460" y="59" on="0"/>
        <pt x="432" y="74" on="0"/>
        <pt x="416" y="82" on="1"/>
        <pt x="416" y="33" on="1"/>
        <pt x="436" y="21" on="0"/>
        <pt x="436" y="-1" on="1"/>
        <pt x="436" y="-17" on="0"/>
        <pt x="414" y="-39" on="0"/>
        <pt x="399" y="-39" on="1"/>
        <pt x="383" y="-39" on="0"/>
        <pt x="361" y="-17" on="0"/>
      </contour>
      <contour>
        <pt x="274" y="431" on="1"/>
        <pt x="274" y="385" on="0"/>
        <pt x="316" y="325" on="0"/>
        <pt x="351" y="312" on="1"/>
        <pt x="356" y="339" on="0"/>
        <pt x="363" y="400" on="0"/>
        <pt x="363" y="432" on="1"/>
        <pt x="363" y="456" on="0"/>
        <pt x="355" y="513" on="0"/>
        <pt x="348" y="540" on="1"/>
        <pt x="316" y="528" on="0"/>
        <pt x="274" y="472" on="0"/>
      </contour>
      <contour>
        <pt x="522" y="431" on="1"/>
        <pt x="522" y="470" on="0"/>
        <pt x="480" y="526" on="0"/>
        <pt x="448" y="539" on="1"/>
        <pt x="442" y="512" on="0"/>
        <pt x="435" y="456" on="0"/>
        <pt x="435" y="432" on="1"/>
        <pt x="435" y="400" on="0"/>
        <pt x="441" y="339" on="0"/>
        <pt x="446" y="312" on="1"/>
        <pt x="481" y="324" on="0"/>
        <pt x="522" y="384" on="0"/>
      </contour>
    </TTGlyph>
    <TTGlyph name="Khha.gm" xMin="-30" yMin="-14" xMax="592" yMax="577">
      <contour>
        <pt x="129" y="577" on="1"/>
        <pt x="149" y="539" on="0"/>
        <pt x="167" y="468" on="0"/>
        <pt x="167" y="433" on="1"/>
        <pt x="167" y="419" on="0"/>
        <pt x="165" y="393" on="0"/>
        <pt x="163" y="381" on="1"/>
        <pt x="427" y="381" on="1"/>
        <pt x="427" y="577" on="1"/>
        <pt x="592" y="577" on="1"/>
        <pt x="592" y="539" on="1"/>
        <pt x="474" y="539" on="1"/>
        <pt x="474" y="0" on="1"/>
        <pt x="427" y="0" on="1"/>
        <pt x="427" y="173" on="1"/>
        <pt x="402" y="149" on="0"/>
        <pt x="323" y="117" on="0"/>
        <pt x="265" y="117" on="1"/>
        <pt x="193" y="117" on="0"/>
        <pt x="79" y="184" on="0"/>
        <pt x="53" y="238" on="1"/>
        <pt x="79" y="278" on="0"/>
        <pt x="119" y="376" on="0"/>
        <pt x="119" y="433" on="1"/>
        <pt x="119" y="492" on="0"/>
        <pt x="98" y="539" on="1"/>
        <pt x="-30" y="539" on="1"/>
        <pt x="-30" y="577" on="1"/>
      </contour>
      <contour>
        <pt x="268" y="157" on="1"/>
        <pt x="328" y="157" on="0"/>
        <pt x="409" y="203" on="0"/>
        <pt x="427" y="233" on="1"/>
        <pt x="427" y="343" on="1"/>
        <pt x="155" y="343" on="1"/>
        <pt x="147" y="313" on="0"/>
        <pt x="121" y="262" on="0"/>
        <pt x="107" y="239" on="1"/>
        <pt x="116" y="222" on="0"/>
        <pt x="150" y="192" on="0"/>
        <pt x="193" y="170" on="0"/>
        <pt x="243" y="157" on="0"/>
      </contour>
      <contour>
        <pt x="51" y="26" on="1"/>
        <pt x="51" y="43" on="0"/>
        <pt x="75" y="68" on="0"/>
        <pt x="93" y="68" on="1"/>
        <pt x="111" y="68" on="0"/>
        <pt x="135" y="43" on="0"/>
        <pt x="135" y="26" on="1"/>
        <pt x="135" y="9" on="0"/>
        <pt x="111" y="-14" on="0"/>
        <pt x="93" y="-14" on="1"/>
        <pt x="75" y="-14" on="0"/>
        <pt x="51" y="9" on="0"/>
      </contour>
    </TTGlyph>
    <TTGlyph name="KhhaVirama.gm" xMin="-30" yMin="-243" xMax="644" yMax="577">
      <contour>
        <pt x="129" y="577" on="1"/>
        <pt x="149" y="539" on="0"/>
        <pt x="167" y="468" on="0"/>
        <pt x="167" y="433" on="1"/>
        <pt x="167" y="419" on="0"/>
        <pt x="165" y="393" on="0"/>
        <pt x="163" y="381" on="1"/>
        <pt x="427" y="381" on="1"/>
        <pt x="427" y="577" on="1"/>
        <pt x="592" y="577" on="1"/>
        <pt x="592" y="539" on="1"/>
        <pt x="474" y="539" on="1"/>
        <pt x="474" y="0" on="1"/>
        <pt x="427" y="0" on="1"/>
        <pt x="427" y="173" on="1"/>
        <pt x="402" y="149" on="0"/>
        <pt x="323" y="117" on="0"/>
        <pt x="265" y="117" on="1"/>
        <pt x="193" y="117" on="0"/>
        <pt x="79" y="184" on="0"/>
        <pt x="53" y="238" on="1"/>
        <pt x="79" y="278" on="0"/>
        <pt x="119" y="376" on="0"/>
        <pt x="119" y="433" on="1"/>
        <pt x="119" y="492" on="0"/>
        <pt x="98" y="539" on="1"/>
        <pt x="-30" y="539" on="1"/>
        <pt x="-30" y="577" on="1"/>
      </contour>
      <contour>
        <pt x="268" y="157" on="1"/>
        <pt x="328" y="157" on="0"/>
        <pt x="409" y="203" on="0"/>
        <pt x="427" y="233" on="1"/>
        <pt x="427" y="343" on="1"/>
        <pt x="155" y="343" on="1"/>
        <pt x="147" y="313" on="0"/>
        <pt x="121" y="262" on="0"/>
        <pt x="107" y="239" on="1"/>
        <pt x="116" y="222" on="0"/>
        <pt x="150" y="192" on="0"/>
        <pt x="193" y="170" on="0"/>
        <pt x="243" y="157" on="0"/>
      </contour>
      <contour>
        <pt x="41" y="26" on="1"/>
        <pt x="41" y="43" on="0"/>
        <pt x="65" y="68" on="0"/>
        <pt x="83" y="68" on="1"/>
        <pt x="101" y="68" on="0"/>
        <pt x="125" y="43" on="0"/>
        <pt x="125" y="26" on="1"/>
        <pt x="125" y="9" on="0"/>
        <pt x="101" y="-14" on="0"/>
        <pt x="83" y="-14" on="1"/>
        <pt x="65" y="-14" on="0"/>
        <pt x="41" y="9" on="0"/>
      </contour>
      <contour>
        <pt x="644" y="-215" on="1"/>
        <pt x="619" y="-243" on="1"/>
        <pt x="437" y="-101" on="1"/>
        <pt x="468" y="-63" on="1"/>
      </contour>
    </TTGlyph>
    <TTGlyph name="Ksmall" xMin="68" yMin="0" xMax="405" yMax="470">
      <contour>
        <pt x="68" y="0" on="1"/>
        <pt x="68" y="470" on="1"/>
        <pt x="116" y="470" on="1"/>
        <pt x="116" y="236" on="1"/>
        <pt x="324" y="470" on="1"/>
        <pt x="388" y="470" on="1"/>
        <pt x="200" y="265" on="1"/>
        <pt x="405" y="0" on="1"/>
        <pt x="339" y="0" on="1"/>
        <pt x="167" y="230" on="1"/>
        <pt x="116" y="174" on="1"/>
        <pt x="116" y="0" on="1"/>
      </contour>
    </TTGlyph>
    <TTGlyph name="L" xMin="80" yMin="0" xMax="421" yMax="630">
      <contour>
        <pt x="80" y="630" on="1"/>
        <pt x="132" y="630" on="1"/>
        <pt x="132" y="42" on="1"/>
        <pt x="421" y="42" on="1"/>
        <pt x="421" y="0" on="1"/>
        <pt x="80" y="0" on="1"/>
      </contour>
    </TTGlyph>
    <TTGlyph name="La.gm" xMin="-20" yMin="-6" xMax="659" yMax="577">
      <contour>
        <pt x="-20" y="577" on="1"/>
        <pt x="659" y="577" on="1"/>
        <pt x="659" y="539" on="1"/>
        <pt x="498" y="539" on="1"/>
        <pt x="496" y="517" on="0"/>
        <pt x="486" y="470" on="0"/>
        <pt x="474" y="425" on="0"/>
        <pt x="460" y="386" on="0"/>
        <pt x="454" y="373" on="1"/>
        <pt x="519" y="344" on="0"/>
        <pt x="593" y="249" on="0"/>
        <pt x="593" y="181" on="1"/>
        <pt x="593" y="143" on="0"/>
        <pt x="565" y="79" on="0"/>
        <pt x="517" y="30" on="0"/>
        <pt x="454" y="-1" on="0"/>
        <pt x="420" y="-6" on="1"/>
        <pt x="410" y="34" on="1"/>
        <pt x="474" y="48" on="0"/>
        <pt x="544" y="131" on="0"/>
        <pt x="544" y="188" on="1"/>
        <pt x="544" y="239" on="0"/>
        <pt x="485" y="311" on="0"/>
        <pt x="434" y="336" on="1"/>
        <pt x="424" y="318" on="0"/>
        <pt x="398" y="281" on="0"/>
        <pt x="368" y="247" on="0"/>
        <pt x="335" y="218" on="0"/>
        <pt x="319" y="208" on="1"/>
        <pt x="279" y="231" on="0"/>
        <pt x="219" y="301" on="0"/>
        <pt x="199" y="336" on="1"/>
        <pt x="157" y="316" on="0"/>
        <pt x="94" y="241" on="0"/>
        <pt x="94" y="188" on="1"/>
        <pt x="94" y="123" on="0"/>
        <pt x="165" y="49" on="0"/>
        <pt x="228" y="34" on="1"/>
        <pt x="218" y="-6" on="1"/>
        <pt x="184" y="-2" on="0"/>
        <pt x="122" y="27" on="0"/>
        <pt x="74" y="75" on="0"/>
        <pt x="45" y="141" on="0"/>
        <pt x="45" y="183" on="1"/>
        <pt x="45" y="250" on="0"/>
        <pt x="120" y="347" on="0"/>
        <pt x="180" y="373" on="1"/>
        <pt x="164" y="406" on="0"/>
        <pt x="138" y="492" on="0"/>
        <pt x="133" y="539" on="1"/>
        <pt x="-20" y="539" on="1"/>
      </contour>
      <contour>
        <pt x="319" y="257" on="1"/>
        <pt x="344" y="279" on="0"/>
        <pt x="389" y="343" on="0"/>
        <pt x="423" y="418" on="0"/>
        <pt x="446" y="499" on="0"/>
        <pt x="449" y="539" on="1"/>
        <pt x="180" y="539" on="1"/>
        <pt x="191" y="454" on="0"/>
        <pt x="262" y="305" on="0"/>
      </contour>
    </TTGlyph>
    <TTGlyph name="LaVirama.gm" xMin="-20" yMin="-243" xMax="659" yMax="577">
      <contour>
        <pt x="-20" y="577" on="1"/>
        <pt x="659" y="577" on="1"/>
        <pt x="659" y="539" on="1"/>
        <pt x="498" y="539" on="1"/>
        <pt x="496" y="517" on="0"/>
        <pt x="486" y="470" on="0"/>
        <pt x="474" y="425" on="0"/>
        <pt x="460" y="386" on="0"/>
        <pt x="454" y="373" on="1"/>
        <pt x="519" y="344" on="0"/>
        <pt x="593" y="249" on="0"/>
        <pt x="593" y="181" on="1"/>
        <pt x="593" y="143" on="0"/>
        <pt x="565" y="79" on="0"/>
        <pt x="517" y="30" on="0"/>
        <pt x="454" y="-1" on="0"/>
        <pt x="420" y="-6" on="1"/>
        <pt x="410" y="34" on="1"/>
        <pt x="474" y="48" on="0"/>
        <pt x="544" y="131" on="0"/>
        <pt x="544" y="188" on="1"/>
        <pt x="544" y="239" on="0"/>
        <pt x="485" y="311" on="0"/>
        <pt x="434" y="336" on="1"/>
        <pt x="424" y="318" on="0"/>
        <pt x="398" y="281" on="0"/>
        <pt x="368" y="247" on="0"/>
        <pt x="335" y="218" on="0"/>
        <pt x="319" y="208" on="1"/>
        <pt x="279" y="231" on="0"/>
        <pt x="219" y="301" on="0"/>
        <pt x="199" y="336" on="1"/>
        <pt x="157" y="316" on="0"/>
        <pt x="94" y="241" on="0"/>
        <pt x="94" y="188" on="1"/>
        <pt x="94" y="123" on="0"/>
        <pt x="165" y="49" on="0"/>
        <pt x="228" y="34" on="1"/>
        <pt x="218" y="-6" on="1"/>
        <pt x="184" y="-2" on="0"/>
        <pt x="122" y="27" on="0"/>
        <pt x="74" y="75" on="0"/>
        <pt x="45" y="141" on="0"/>
        <pt x="45" y="183" on="1"/>
        <pt x="45" y="250" on="0"/>
        <pt x="120" y="347" on="0"/>
        <pt x="180" y="373" on="1"/>
        <pt x="164" y="406" on="0"/>
        <pt x="138" y="492" on="0"/>
        <pt x="133" y="539" on="1"/>
        <pt x="-20" y="539" on="1"/>
      </contour>
      <contour>
        <pt x="319" y="257" on="1"/>
        <pt x="344" y="279" on="0"/>
        <pt x="389" y="343" on="0"/>
        <pt x="423" y="418" on="0"/>
        <pt x="446" y="499" on="0"/>
        <pt x="449" y="539" on="1"/>
        <pt x="180" y="539" on="1"/>
        <pt x="191" y="454" on="0"/>
        <pt x="262" y="305" on="0"/>
      </contour>
      <contour>
        <pt x="653" y="-215" on="1"/>
        <pt x="628" y="-243" on="1"/>
        <pt x="446" y="-101" on="1"/>
        <pt x="477" y="-63" on="1"/>
      </contour>
    </TTGlyph>
    <TTGlyph name="Lacute" xMin="80" yMin="0" xMax="422" yMax="834">
      <contour>
        <pt x="81" y="630" on="1"/>
        <pt x="133" y="630" on="1"/>
        <pt x="133" y="42" on="1"/>
        <pt x="422" y="42" on="1"/>
        <pt x="422" y="0" on="1"/>
        <pt x="81" y="0" on="1"/>
      </contour>
      <contour>
        <pt x="122" y="710" on="1"/>
        <pt x="80" y="710" on="1"/>
        <pt x="170" y="834" on="1"/>
        <pt x="233" y="834" on="1"/>
      </contour>
    </TTGlyph>
    <TTGlyph name="Lcaron" xMin="80" yMin="0" xMax="421" yMax="714">
      <contour>
        <pt x="80" y="630" on="1"/>
        <pt x="132" y="630" on="1"/>
        <pt x="132" y="42" on="1"/>
        <pt x="421" y="42" on="1"/>
        <pt x="421" y="0" on="1"/>
        <pt x="80" y="0" on="1"/>
      </contour>
      <contour>
        <pt x="318" y="624" on="1"/>
        <pt x="301" y="627" on="0"/>
        <pt x="278" y="651" on="0"/>
        <pt x="278" y="672" on="1"/>
        <pt x="278" y="690" on="0"/>
        <pt x="301" y="714" on="0"/>
        <pt x="319" y="714" on="1"/>
        <pt x="335" y="714" on="0"/>
        <pt x="367" y="687" on="0"/>
        <pt x="367" y="648" on="1"/>
        <pt x="367" y="625" on="0"/>
        <pt x="351" y="583" on="0"/>
        <pt x="324" y="546" on="0"/>
        <pt x="289" y="517" on="0"/>
        <pt x="270" y="507" on="1"/>
        <pt x="250" y="535" on="1"/>
        <pt x="280" y="550" on="0"/>
        <pt x="318" y="598" on="0"/>
        <pt x="323" y="623" on="1"/>
      </contour>
    </TTGlyph>
</ttFont>
